<?xml version="1.0" encoding="utf-8"?>
<!-- Generator: Adobe Illustrator 16.0.0, SVG Export Plug-In . SVG Version: 6.00 Build 0)  -->
<!DOCTYPE svg PUBLIC "-//W3C//DTD SVG 1.1//EN" "http://www.w3.org/Graphics/SVG/1.1/DTD/svg11.dtd">
<svg version="1.1" id="Layer_1" xmlns="http://www.w3.org/2000/svg" xmlns:xlink="http://www.w3.org/1999/xlink" x="0px" y="0px"
	 width="512px" height="512px" viewBox="0 0 512 512" enable-background="new 0 0 512 512" xml:space="preserve">
<g id="backgammon">
	<path d="M501.336,21.345H256.002H10.659c-5.873,0-10.652,4.775-10.652,10.667v447.996c0,5.883,4.78,10.646,10.652,10.646h245.344
		h245.333c5.883,0,10.658-4.764,10.658-10.646V32.012C511.994,26.12,507.219,21.345,501.336,21.345z M21.35,42.674h223.996v426.678
		H21.35V42.674z M490.65,469.352H266.66V42.674h223.99V469.352z"/>
	<path d="M64.002,117.346c17.642,0,32-14.358,32-32c0-17.647-14.358-32-32-32c-17.652,0-31.995,14.353-31.995,32
		C32.007,102.987,46.35,117.346,64.002,117.346z M64.002,74.674c5.877,0,10.657,4.789,10.657,10.672
		c0,5.877-4.779,10.667-10.657,10.667c-5.873,0-10.652-4.79-10.652-10.667C53.35,79.463,58.129,74.674,64.002,74.674z"/>
	<path d="M128.002,117.346c17.642,0,32-14.358,32-32c0-17.647-14.358-32-32-32c-17.657,0-32,14.353-32,32
		C96.002,102.987,110.345,117.346,128.002,117.346z M128.002,74.674c5.877,0,10.657,4.789,10.657,10.672
		c0,5.877-4.78,10.667-10.657,10.667c-5.873,0-10.657-4.79-10.657-10.667C117.345,79.463,122.129,74.674,128.002,74.674z"/>
	<path d="M96.002,149.346c0,17.642,14.343,32,32,32c17.642,0,32-14.358,32-32c0-17.647-14.358-32-32-32
		C110.345,117.346,96.002,131.698,96.002,149.346z M128.002,138.674c5.877,0,10.657,4.789,10.657,10.672
		c0,5.873-4.78,10.662-10.657,10.662c-5.873,0-10.657-4.789-10.657-10.662C117.345,143.463,122.129,138.674,128.002,138.674z"/>
	<path d="M192.002,117.346c17.642,0,32-14.358,32-32c0-17.647-14.358-32-32-32c-17.657,0-32,14.353-32,32
		C160.002,102.987,174.345,117.346,192.002,117.346z M192.002,74.674c5.873,0,10.657,4.789,10.657,10.672
		c0,5.877-4.784,10.667-10.657,10.667s-10.657-4.79-10.657-10.667C181.345,79.463,186.13,74.674,192.002,74.674z"/>
	<path d="M320.002,117.346c17.639,0,32.002-14.358,32.002-32c0-17.647-14.363-32-32.002-32c-17.646,0-32,14.353-32,32
		C288.002,102.987,302.355,117.346,320.002,117.346z M320.002,74.674c5.873,0,10.658,4.789,10.658,10.672
		c0,5.877-4.785,10.667-10.658,10.667c-5.881,0-10.656-4.79-10.656-10.667C309.346,79.463,314.121,74.674,320.002,74.674z"/>
	<path d="M384.004,117.346c17.637,0,32-14.358,32-32c0-17.647-14.363-32-32-32c-17.648,0-32,14.353-32,32
		C352.004,102.987,366.355,117.346,384.004,117.346z M384.004,74.674c5.871,0,10.656,4.789,10.656,10.672
		c0,5.877-4.785,10.667-10.656,10.667c-5.883,0-10.658-4.79-10.658-10.667C373.346,79.463,378.121,74.674,384.004,74.674z"/>
	<path d="M448.004,117.346c17.637,0,31.99-14.358,31.99-32c0-17.647-14.354-32-31.99-32c-17.648,0-32,14.353-32,32
		C416.004,102.987,430.355,117.346,448.004,117.346z M448.004,74.674c5.871,0,10.646,4.789,10.646,10.672
		c0,5.877-4.775,10.667-10.646,10.667c-5.883,0-10.658-4.79-10.658-10.667C437.346,79.463,442.121,74.674,448.004,74.674z"/>
	<path d="M352.004,149.346c0,17.642,14.352,32,32,32c17.637,0,32-14.358,32-32c0-17.647-14.363-32-32-32
		C366.355,117.346,352.004,131.698,352.004,149.346z M384.004,138.674c5.871,0,10.656,4.789,10.656,10.672
		c0,5.873-4.785,10.662-10.656,10.662c-5.883,0-10.658-4.789-10.658-10.662C373.346,143.463,378.121,138.674,384.004,138.674z"/>
	<path d="M352.004,213.346c0,17.638,14.352,32,32,32c17.637,0,32-14.362,32-32c0-17.652-14.363-32-32-32
		C366.355,181.346,352.004,195.694,352.004,213.346z M384.004,202.674c5.871,0,10.656,4.79,10.656,10.672
		c0,5.873-4.785,10.662-10.656,10.662c-5.883,0-10.658-4.79-10.658-10.662C373.346,207.463,378.121,202.674,384.004,202.674z"/>
	<path d="M64.021,394.664c17.637,0,31.981-14.344,31.981-32c0-17.627-14.358-32-32-32c-17.652,0-31.995,14.373-31.995,32
		c0,17.656,14.343,32,31.98,32c-17.637,0.01-31.98,14.373-31.98,32c0,17.658,14.343,32,31.995,32c17.642,0,32-14.342,32-32
		C96.002,409.037,81.659,394.674,64.021,394.664z M53.35,362.664c0-5.873,4.779-10.656,10.652-10.656
		c5.877,0,10.657,4.783,10.657,10.656c0,5.893-4.779,10.688-10.657,10.688C58.129,373.352,53.35,368.557,53.35,362.664z
		 M64.002,437.352c-5.873,0-10.652-4.805-10.652-10.688s4.779-10.656,10.652-10.656c5.877,0,10.657,4.773,10.657,10.656
		S69.879,437.352,64.002,437.352z"/>
	<path d="M128.002,394.664c-17.657,0-32,14.373-32,32c0,17.658,14.343,32,32,32c17.642,0,32-14.342,32-32
		C160.002,409.037,145.644,394.664,128.002,394.664z M128.002,437.352c-5.873,0-10.657-4.805-10.657-10.688
		s4.784-10.656,10.657-10.656c5.877,0,10.657,4.773,10.657,10.656S133.879,437.352,128.002,437.352z"/>
	<path d="M192.002,394.664c-17.657,0-32,14.373-32,32c0,17.658,14.343,32,32,32c17.642,0,32-14.342,32-32
		C224.002,409.037,209.645,394.664,192.002,394.664z M192.002,437.352c-5.873,0-10.657-4.805-10.657-10.688
		s4.785-10.656,10.657-10.656s10.657,4.773,10.657,10.656S197.875,437.352,192.002,437.352z"/>
	<path d="M384.004,394.664c-17.648,0-32,14.373-32,32c0,17.658,14.352,32,32,32c17.637,0,32-14.342,32-32
		C416.004,409.037,401.641,394.664,384.004,394.664z M384.004,437.352c-5.883,0-10.658-4.805-10.658-10.688
		s4.775-10.656,10.658-10.656c5.871,0,10.656,4.773,10.656,10.656S389.875,437.352,384.004,437.352z"/>
	<path d="M479.994,362.664c0-17.627-14.354-32-31.99-32c-17.648,0-32,14.373-32,32c0,17.656,14.342,32,31.98,32
		c-17.639,0.01-31.98,14.373-31.98,32c0,17.658,14.352,32,32,32c17.637,0,31.99-14.342,31.99-32c0-17.627-14.344-31.99-31.98-32
		C465.65,394.664,479.994,380.32,479.994,362.664z M458.65,426.664c0,5.883-4.775,10.688-10.646,10.688
		c-5.883,0-10.658-4.805-10.658-10.688s4.775-10.656,10.658-10.656C453.875,416.008,458.65,420.781,458.65,426.664z
		 M448.004,373.352c-5.883,0-10.658-4.795-10.658-10.688c0-5.873,4.775-10.656,10.658-10.656c5.871,0,10.646,4.783,10.646,10.656
		C458.65,368.557,453.875,373.352,448.004,373.352z"/>
	<path d="M194.909,204.812c-3.127-3.098-7.814-3.98-11.843-2.226l-41.937,18.393c-2.456,1.078-4.406,3.029-5.5,5.48l-18.377,41.952
		c-1.765,4.039-0.873,8.725,2.22,11.832l36.657,36.639c2.03,2.049,4.765,3.127,7.53,3.127c1.451,0,2.907-0.285,4.279-0.912
		l41.956-18.373c2.451-1.078,4.421-3.029,5.48-5.5l18.392-41.94c1.765-4.024,0.893-8.721-2.235-11.824L194.909,204.812z
		 M202.11,272.369l-20.451-20.455l9.201-20.971l20.456,20.446L202.11,272.369z M166.629,233.096l-5.75,13.118l-13.127,5.745
		l5.75-13.113L166.629,233.096z M166.051,296.645l-20.456-20.451l20.985-9.195l20.451,20.451L166.051,296.645z"/>
	<path d="M294.816,355.881c1.588,4.098,5.539,6.783,9.932,6.783h51.834c4.383,0,8.322-2.686,9.932-6.783l16.656-42.658
		c0.99-2.5,0.99-5.273,0-7.764l-16.656-42.662c-1.609-4.094-5.549-6.789-9.932-6.789h-51.834c-4.393,0-8.344,2.695-9.932,6.789
		l-16.656,42.662c-0.971,2.49-0.971,5.264,0,7.764L294.816,355.881z M303.719,320.008h28.912l8.332,21.342h-28.93L303.719,320.008z
		 M361.777,309.352l-5.195,13.342l-5.207-13.342l5.207-13.344L361.777,309.352z M312.033,277.35h28.93l-8.332,21.314h-28.912
		L312.033,277.35z"/>
</g>
</svg>
