<?xml version="1.0" encoding="utf-8"?>
<!-- Generator: Adobe Illustrator 16.0.0, SVG Export Plug-In . SVG Version: 6.00 Build 0)  -->
<!DOCTYPE svg PUBLIC "-//W3C//DTD SVG 1.1//EN" "http://www.w3.org/Graphics/SVG/1.1/DTD/svg11.dtd">
<svg version="1.1" id="Layer_1" xmlns="http://www.w3.org/2000/svg" xmlns:xlink="http://www.w3.org/1999/xlink" x="0px" y="0px"
	 width="512px" height="512px" viewBox="0 0 512 512" enable-background="new 0 0 512 512" xml:space="preserve">
<g id="casino_chips">
	<path d="M373.346,138.664c-37.234,0-71.068,14.75-96,38.701v-17.368h10.656c5.902,0,10.668-4.77,10.668-10.662v-42.672
		c0-5.892-4.766-10.662-10.668-10.662H32.007c-5.892,0-10.657,4.77-10.657,10.662v32H10.678c-5.892,0-10.672,4.774-10.672,10.672
		v42.662c0,5.892,4.78,10.666,10.672,10.666H21.35v21.334H10.678c-5.892,0-10.672,4.774-10.672,10.667v42.676
		c0,5.873,4.78,10.658,10.672,10.658H21.35v21.344H10.678c-5.892,0-10.672,4.764-10.672,10.656v42.656
		c0,5.902,4.78,10.688,10.672,10.688H21.35v32c0,5.871,4.765,10.656,10.657,10.656h255.995c5.902,0,10.668-4.785,10.668-10.656
		v-11.227c21.568,13.844,47.205,21.883,74.676,21.883c76.451,0,138.648-62.207,138.648-138.658
		C511.994,200.875,449.797,138.664,373.346,138.664z M235.081,287.998c0.559,7.283,1.687,14.402,3.329,21.344H42.678v-21.344
		H235.081z M277.934,287.998c1.078,9.783,3.648,19.127,7.461,27.783l-18.568,10.727c-5.51-11.902-9.088-24.873-10.324-38.51H277.934
		z M277.934,266.664h-21.431c1.236-13.642,4.814-26.613,10.324-38.51l18.568,10.72C281.582,247.546,279.012,256.88,277.934,266.664z
		 M245.346,223.998H42.678v-21.334h213.854C252.218,209.404,248.468,216.537,245.346,223.998z M277.512,344.969l18.57-10.727
		c5.734,7.756,12.588,14.619,20.342,20.344l-10.715,18.568C294.787,365.43,285.248,355.871,277.512,344.969z M334.875,365.271
		c8.678,3.814,18.02,6.383,27.795,7.461v21.451c-13.637-1.254-26.607-4.812-38.51-10.342L334.875,365.271z M384.004,372.732
		c9.773-1.078,19.117-3.646,27.793-7.461l10.717,18.57c-11.893,5.529-24.873,9.088-38.51,10.342V372.732z M373.346,351.998
		c-41.176,0-74.676-33.5-74.676-74.658c0-41.176,33.5-74.676,74.676-74.676c41.168,0,74.658,33.5,74.658,74.676
		C448.004,318.498,414.514,351.998,373.346,351.998z M384.004,181.928v-21.436c13.637,1.235,26.617,4.809,38.51,10.329
		l-10.717,18.559C403.121,185.576,393.777,183.017,384.004,181.928z M362.67,181.928c-9.775,1.089-19.107,3.647-27.795,7.451
		l-10.715-18.559c11.902-5.52,24.873-9.093,38.51-10.329V181.928z M468.748,287.998h21.441c-1.234,13.637-4.812,26.607-10.334,38.5
		l-18.559-10.717C465.092,307.125,467.65,297.781,468.748,287.998z M468.748,266.664c-1.098-9.784-3.656-19.118-7.451-27.79
		l18.559-10.72c5.521,11.897,9.1,24.868,10.334,38.51H468.748z M469.15,209.693l-18.559,10.721
		c-5.717-7.75-12.578-14.613-20.324-20.338l10.717-18.568C451.885,189.232,461.436,198.782,469.15,209.693z M305.709,181.507
		l10.715,18.568c-7.754,5.726-14.607,12.588-20.332,20.338l-18.58-10.721C285.248,198.782,294.787,189.232,305.709,181.507z
		 M42.678,117.335h234.667v21.328h-10.656h-0.02H42.678V117.335z M21.35,159.997h10.657l0,0h223.996v21.338H32.007l0,0H21.35
		V159.997z M21.35,245.335h10.657l0,0H238.41c-1.643,6.922-2.77,14.045-3.329,21.329H32.007l0,0H21.35V245.335z M21.35,351.998
		v-21.344h10.657h213.339c3,7.156,6.564,14,10.657,20.5v0.844H32.007H21.35z M277.346,394.654H42.678v-21.312H266.67h6.705
		c1.295,1.342,2.627,2.656,3.971,3.949V394.654z M440.984,373.154l-10.717-18.568c7.746-5.725,14.607-12.588,20.324-20.344
		l18.559,10.727C461.436,355.871,451.885,365.43,440.984,373.154z"/>
	<path d="M426.404,261.732c-1.264-3.863-4.598-6.671-8.607-7.259l-24.107-3.505l-10.785-21.844c-1.793-3.642-5.5-5.946-9.559-5.946
		c-4.068,0-7.764,2.304-9.568,5.946l-10.773,21.844l-24.109,3.505c-4.02,0.588-7.361,3.396-8.617,7.259
		c-1.244,3.857-0.195,8.098,2.705,10.932l17.441,17l-4.127,24.02c-0.666,4,0.971,8.029,4.256,10.441
		c3.273,2.373,7.637,2.686,11.225,0.795l21.568-11.334l21.559,11.334c1.561,0.822,3.266,1.234,4.951,1.234
		c2.227,0,4.422-0.686,6.285-2.029c3.283-2.412,4.922-6.441,4.234-10.441l-4.107-24.02l17.432-17
		C426.611,269.83,427.65,265.59,426.404,261.732z M387.355,278.311c-2.51,2.432-3.666,5.971-3.078,9.432l1.422,8.236l-7.383-3.883
		c-1.568-0.814-3.273-1.225-4.971-1.225c-1.705,0-3.412,0.41-4.971,1.225l-7.391,3.883l1.41-8.236c0.59-3.461-0.549-7-3.068-9.432
		l-5.98-5.842l8.266-1.188c3.48-0.51,6.48-2.686,8.029-5.838l3.705-7.494l3.688,7.494c1.559,3.152,4.559,5.328,8.029,5.838
		l8.283,1.188L387.355,278.311z"/>
</g>
</svg>
