<?xml version="1.0" encoding="utf-8"?>
<!-- Generator: Adobe Illustrator 16.0.0, SVG Export Plug-In . SVG Version: 6.00 Build 0)  -->
<!DOCTYPE svg PUBLIC "-//W3C//DTD SVG 1.1//EN" "http://www.w3.org/Graphics/SVG/1.1/DTD/svg11.dtd">
<svg version="1.1" id="Layer_1" xmlns="http://www.w3.org/2000/svg" xmlns:xlink="http://www.w3.org/1999/xlink" x="0px" y="0px"
	 width="512px" height="512px" viewBox="0 0 512 512" enable-background="new 0 0 512 512" xml:space="preserve">
<g id="casino_roulette_1">
	<path d="M491.877,156.36c-12.893-30.485-31.344-57.858-54.863-81.373c-23.5-23.5-50.893-41.956-81.354-54.862
		C324.092,6.781,290.562,0.002,256.002,0.002c-34.554,0-68.079,6.779-99.647,20.123C125.87,33.031,98.487,51.487,74.987,74.987
		c-23.505,23.515-41.966,50.888-54.858,81.373C6.776,187.919,0.006,221.453,0.006,255.998c0,34.559,6.77,68.088,20.123,99.656
		c12.892,30.48,31.353,57.854,54.858,81.373c23.5,23.5,50.882,41.951,81.368,54.854c31.569,13.342,65.094,20.117,99.647,20.117
		c34.56,0,68.089-6.775,99.658-20.117c30.461-12.902,57.854-31.354,81.354-54.854c23.52-23.52,41.971-50.893,54.863-81.373
		c13.342-31.568,20.117-65.098,20.117-99.656C511.994,221.453,505.219,187.919,491.877,156.36z M421.936,421.93
		c-44.324,44.334-103.246,68.734-165.933,68.734c-62.682,0-121.608-24.4-165.937-68.734C45.747,377.625,21.34,318.684,21.34,255.998
		c0-62.672,24.407-121.608,68.726-165.917c44.328-44.329,103.255-68.736,165.937-68.736c62.687,0,121.609,24.407,165.933,68.736
		c44.312,44.309,68.715,103.245,68.715,165.917C490.65,318.684,466.248,377.625,421.936,421.93z"/>
	<path d="M256.002,42.674c-56.985,0-110.554,22.187-150.849,62.48c-40.289,40.299-62.485,93.878-62.485,150.844
		c0,56.98,22.196,110.559,62.485,150.854c40.294,40.303,93.863,62.49,150.849,62.49c56.98,0,110.56-22.188,150.843-62.49
		c40.295-40.295,62.5-93.873,62.5-150.854c0-56.966-22.205-110.545-62.5-150.844C366.562,64.86,312.982,42.674,256.002,42.674z
		 M150.934,245.341H64.301c0.995-18.235,4.529-36,10.431-52.873l80.113,33.187C152.938,231.983,151.61,238.562,150.934,245.341z
		 M150.934,266.664c0.676,6.775,2.005,13.363,3.912,19.697l-80.113,33.186c-5.902-16.883-9.436-34.646-10.431-52.883H150.934z
		 M171.728,256.013c0-46.485,37.804-84.28,84.274-84.28c46.47,0,84.275,37.795,84.275,84.28c0,46.466-37.805,84.259-84.275,84.259
		C209.532,340.271,171.728,302.479,171.728,256.013z M322.719,174.203c-5.166-4.221-10.746-7.971-16.656-11.171l33.186-80.143
		c16.107,7.765,31.156,17.828,44.756,30.015L322.719,174.203z M286.346,154.86c-6.334-1.907-12.912-3.235-19.676-3.922V64.311
		c18.234,0.985,35.99,4.521,52.863,10.422L286.346,154.86z M245.336,150.938c-6.77,0.687-13.348,2.015-19.687,3.922l-33.186-80.128
		c16.872-5.901,34.632-9.437,52.873-10.422V150.938z M205.949,163.032c-5.917,3.2-11.495,6.95-16.667,11.171l-61.284-61.299
		c13.593-12.187,28.647-22.25,44.755-30.015L205.949,163.032z M189.282,337.811c5.172,4.217,10.75,7.971,16.667,11.168
		l-33.196,80.137c-16.108-7.764-31.162-17.824-44.755-30.01L189.282,337.811z M225.649,357.164
		c6.338,1.893,12.917,3.236,19.687,3.912v86.617c-18.24-0.98-36-4.51-52.873-10.422L225.649,357.164z M266.67,361.076
		c6.764-0.676,13.342-2.02,19.686-3.912l33.178,80.107c-16.873,5.912-34.629,9.441-52.863,10.422V361.076z M306.062,348.979
		c5.91-3.197,11.49-6.951,16.656-11.168l61.285,61.295c-13.6,12.186-28.648,22.246-44.756,30.01L306.062,348.979z M337.816,322.713
		c4.217-5.166,7.961-10.734,11.146-16.656l80.148,33.186c-7.766,16.109-17.834,31.178-30.02,44.766L337.816,322.713z
		 M357.16,286.361c1.902-6.334,3.234-12.922,3.902-19.697h86.637c-0.98,18.236-4.529,36-10.422,52.883L357.16,286.361z
		 M361.062,245.341c-0.668-6.779-2-13.357-3.902-19.687l80.117-33.187c5.893,16.873,9.441,34.638,10.422,52.873H361.062z
		 M348.963,205.953c-3.186-5.921-6.93-11.485-11.146-16.656l61.275-61.3c12.186,13.599,22.254,28.657,30.02,44.75L348.963,205.953z
		 M112.909,127.997l61.29,61.3c-4.221,5.156-7.971,10.735-11.167,16.656l-80.138-33.206
		C90.654,156.654,100.713,141.596,112.909,127.997z M82.894,339.262l80.138-33.205c3.196,5.922,6.941,11.49,11.167,16.656
		l-61.29,61.295C100.713,370.42,90.654,355.352,82.894,339.262z"/>
	<path d="M348.875,120.468c-4.156-4.171-10.922-4.171-15.098,0c-4.146,4.157-4.146,10.922,0,15.079
		c4.176,4.171,10.941,4.171,15.098,0C353.033,131.39,353.033,124.625,348.875,120.468z"/>
	<path d="M225.835,266.664c3.221,9.078,10.422,16.285,19.5,19.51v23.168c0,5.891,4.774,10.656,10.667,10.656
		c5.888,0,10.667-4.766,10.667-10.656v-23.168c9.078-3.225,16.264-10.432,19.49-19.51h23.186c5.873,0,10.656-4.773,10.656-10.666
		s-4.783-10.657-10.656-10.657H286.16c-3.227-9.078-10.412-16.279-19.49-19.5v-23.172c0-5.887-4.779-10.671-10.667-10.671
		c-5.892,0-10.667,4.784-10.667,10.671v23.172c-9.079,3.221-16.28,10.422-19.5,19.5h-23.171c-5.887,0-10.662,4.765-10.662,10.657
		s4.774,10.666,10.662,10.666H225.835z M256.002,245.341c5.882,0,10.667,4.784,10.667,10.657c0,5.893-4.785,10.666-10.667,10.666
		s-10.667-4.773-10.667-10.666C245.336,250.125,250.12,245.341,256.002,245.341z"/>
</g>
</svg>
