<?xml version="1.0" encoding="utf-8"?>
<!-- Generator: Adobe Illustrator 16.0.0, SVG Export Plug-In . SVG Version: 6.00 Build 0)  -->
<!DOCTYPE svg PUBLIC "-//W3C//DTD SVG 1.1//EN" "http://www.w3.org/Graphics/SVG/1.1/DTD/svg11.dtd">
<svg version="1.1" id="Layer_1" xmlns="http://www.w3.org/2000/svg" xmlns:xlink="http://www.w3.org/1999/xlink" x="0px" y="0px"
	 width="512px" height="512px" viewBox="0 0 512 512" enable-background="new 0 0 512 512" xml:space="preserve">
<path id="casino_player" d="M501.336,330.9h-63.99c-5.891,0-10.676,4.764-10.676,10.656v32v5.766
	c-12.049-4.639-18.824-8.824-26.941-11.922c-41.795-15.902-52.666-27.393-55.451-32.814c-0.088-0.186-0.186-0.402-0.273-0.588
	l-0.256-36.529c22.363-29.932,38.344-67.285,38.344-105.976c0-0.378-0.01-0.745-0.01-1.118c2.137-9.073,13.822-63.118-2.207-100.029
	c-16.754-38.618-60.559-39.471-64.402-39.471c-0.176,0-0.273,0-0.273,0s-2.666-23.78,25.805-40.888
	c4.773-2.868-22.531-9.985-60.285-9.985c-57.638,0-139.609,16.583-168.839,90.201c-18.186,45.779-4.75,113.138-4.75,113.138
	l0.314-0.559c2.73,34.622,17.701,67.677,37.873,94.687l-0.25,36.529c-0.093,0.186-0.172,0.402-0.279,0.588
	c-2.784,5.422-13.657,16.912-55.441,32.814c-11.779,4.5-20.745,11.312-47.216,18.441l-1.813,0.51
	c-24.094,7.971-40.31,30.312-40.31,55.529v70.117h196.775h47.75h49.216h79.598h64h51.717h12.273c5.893,0,10.658-4.785,10.658-10.656
	v-32v-31.785v-0.215v-31.785v-32v-32C511.994,335.664,507.229,330.9,501.336,330.9z M490.67,394.9h-42.666v-10.668h42.666V394.9z
	 M490.67,426.654h-42.666v-10.422h42.666V426.654z M384.004,448.232h42.666v10.422h-42.666V448.232z M426.67,426.654h-42.666
	v-10.422h42.666V426.654z M384.004,479.998h42.666v10.646h-42.666V479.998z M448.004,448.232h42.666v10.422h-42.666V448.232z
	 M448.004,352.232h42.666V362.9h-42.666V352.232z M322.66,332.842l-26.441,36.4l-20.059-14.088
	c15.402-7.098,31.529-18.607,46.432-33.344L322.66,332.842z M260.674,394.654H228.41l-3.844-21.049l14.858-10.734
	c1.735,0.156,3.436,0.254,5.107,0.254c1.784,0,3.579-0.117,5.407-0.305l14.657,10.285L260.674,394.654z M131.688,98.076
	c5.755-14.441,14.285-27.05,25.392-37.456c10.064-9.446,22.485-17.344,36.922-23.495c30.657-13.055,64.08-15.79,86.716-15.79
	c7.334,0,14,0.274,19.922,0.711c-1.393,2.706-2.451,5.27-3.295,7.613c-4.234,11.818-3.627,21.044-3.344,23.593l1.873,19.623
	l19.658-0.672c0.949,0.01,9.822,0.182,19.842,3.917c12.1,4.505,20.246,11.936,24.941,22.716c3.432,7.931,5.529,17.971,6.266,29.681
	l-7.578-11.828l-8.08-12.578l-14.578,3.279c-0.441,0.103-45.559,10.146-92.142,10.146c-46.28,0-89.888-10.005-90.309-10.107
	l-15.657-3.657l-7.829,14.04l-5.563,9.96C126.129,116.346,128.409,106.336,131.688,98.076z M131.458,159.732l17.574-31.529
	c0,0,45.672,10.672,95.172,10.672c49.505,0,96.83-10.672,96.83-10.672l14.4,22.476c3.531,12.774,5.314,26.451,5.314,40.814
	c0,35.132-15.971,73.495-43.844,105.249c-12.244,13.961-25.971,25.629-39.686,33.785c-12.236,7.254-23.844,11.254-32.687,11.254
	c-8.843,0-20.436-4-32.687-11.254c-13.715-8.156-27.436-19.824-39.686-33.785c-27.858-31.754-43.843-70.117-43.843-105.249
	C128.316,180.468,129.379,169.851,131.458,159.732z M213.375,355.371l-19.201,13.9l-27.765-36.322l0.064-11.139
	C181.532,336.684,197.831,348.311,213.375,355.371z M21.35,490.645v-48.764c0-15.902,10.157-29.98,25.309-35.148l1.206-0.361
	c19.951-5.363,30.951-10.629,39.813-14.873c3.422-1.646,6.388-3.068,9.265-4.156c19.48-7.412,44.966-18.344,59.152-32.756
	l27.437,35.883c2.098,2.744,5.284,4.186,8.485,4.186c2.172,0,4.358-0.656,6.235-2.02l7.157-5.166l3.579,19.686l-9.721,83.49H21.35z
	 M244.532,490.645h-23.779l8.687-74.646h30.172l9.822,74.646H244.532z M290.934,490.645l-10.922-83.117l3.805-20.941l8.736,6.127
	c1.852,1.314,4,1.941,6.107,1.941c3.312,0,6.559-1.52,8.656-4.383l25.795-35.529c14.205,14.314,39.607,25.207,59.049,32.609
	c2.854,1.078,5.805,2.5,9.225,4.146c2.236,1.059,4.619,2.215,7.236,3.402h-35.275c-5.893,0-10.676,4.764-10.676,10.656v31.785v0.215
	v31.785v21.303H290.934z M490.67,490.645h-42.666v-10.646h42.666V490.645z"/>
</svg>
