<?xml version="1.0" encoding="utf-8"?>
<!-- Generator: Adobe Illustrator 16.0.0, SVG Export Plug-In . SVG Version: 6.00 Build 0)  -->
<!DOCTYPE svg PUBLIC "-//W3C//DTD SVG 1.1//EN" "http://www.w3.org/Graphics/SVG/1.1/DTD/svg11.dtd">
<svg version="1.1" id="Layer_1" xmlns="http://www.w3.org/2000/svg" xmlns:xlink="http://www.w3.org/1999/xlink" x="0px" y="0px"
	 width="512px" height="512px" viewBox="0 0 512 512" enable-background="new 0 0 512 512" xml:space="preserve">
<g id="checkers">
	<path fill="#080808" d="M469.403,0.002H42.612c-5.907,0-10.672,4.779-10.672,10.672v63.201v363.594v63.854
		c0,5.891,4.765,10.676,10.672,10.676h426.791c5.892,0,10.656-4.785,10.656-10.676v-63.854V73.875V10.674
		C480.06,4.781,475.295,0.002,469.403,0.002z M373.373,169.89c0,23.549,19.138,42.687,42.667,42.687s42.686-19.138,42.686-42.687
		c0-23.515-19.137-42.672-42.666-42.672h42.666v42.672v42.687H416.04h-42.667V169.89v-42.672h42.657
		C392.501,127.218,373.373,146.375,373.373,169.89z M416.04,148.562c11.765,0,21.343,9.563,21.343,21.328
		s-9.578,21.343-21.343,21.343c-11.766,0-21.344-9.578-21.344-21.343S404.274,148.562,416.04,148.562z M53.284,233.919h42.671
		h42.671v42.667v42.695H95.956H53.284v-42.695V233.919z M159.971,233.919h85.358v85.362h-85.358V233.919z M266.667,276.586v-42.667
		h42.677h42.687v42.667v42.695h-42.687h-42.677V276.586z M373.373,233.919h85.353v85.362h-85.353V233.919z M352.03,212.576h-85.363
		v-85.358h85.363V212.576z M266.667,69.232c2.539,19.02,17.627,34.113,36.646,36.643h-36.646V69.232z M287.628,63.58
		c0-11.77,9.568-21.328,21.343-21.328c11.765,0,21.343,9.559,21.343,21.328c0,11.766-9.578,21.344-21.343,21.344
		C297.196,84.924,287.628,75.346,287.628,63.58z M314.608,105.875c20.872-2.765,37.029-20.672,37.029-42.295
		c0-21.47-15.951-39.299-36.628-42.235h37.021v84.53H314.608z M266.667,57.938V21.345h36.255
		C284.079,24.031,269.187,39.046,266.667,57.938z M245.329,105.875h-85.358v-84.53h85.358V105.875z M202.657,127.218h42.672v42.672
		v42.687h-42.672h-42.686V169.89v-42.672H202.657z M138.627,212.576H53.284v-85.358h85.343V212.576z M53.284,340.605h85.343v86.188
		H53.284V340.605z M159.971,383.291v-42.686h42.686h42.672v42.686v43.502h-85.358V383.291z M266.667,340.605h85.363v86.188h-85.363
		V340.605z M373.373,383.291v-42.686h42.667h42.686v42.686v43.502h-85.353V383.291z M458.726,105.875h-85.353v-84.53h85.353V105.875
		z M53.284,21.345h34.343c-19.563,3.878-34.343,21.172-34.343,41.858c0,23.529,19.137,42.672,42.671,42.672
		c23.53,0,42.671-19.143,42.671-42.672c0-20.687-14.784-37.98-34.343-41.858h34.343v41.858v42.672H95.956H53.284V63.203V21.345z
		 M95.956,41.86c11.765,0,21.343,9.578,21.343,21.343s-9.579,21.328-21.343,21.328c-11.765,0-21.343-9.563-21.343-21.328
		S84.19,41.86,95.956,41.86z M53.284,490.645v-42.51h405.441v42.51H53.284z"/>
	<path fill="#080808" d="M248.451,461.105c-4.172,4.168-4.172,10.922,0,15.088c4.171,4.158,10.921,4.158,15.093,0
		c4.172-4.166,4.172-10.92,0-15.088C259.372,456.93,252.623,456.93,248.451,461.105z"/>
	<path fill="#080808" d="M159.971,169.89c0,23.549,19.157,42.687,42.686,42.687c23.53,0,42.672-19.138,42.672-42.687
		c0-23.529-19.142-42.672-42.672-42.672C179.127,127.218,159.971,146.36,159.971,169.89z M202.657,148.562
		c11.765,0,21.329,9.563,21.329,21.328s-9.563,21.343-21.329,21.343c-11.765,0-21.343-9.578-21.343-21.343
		S190.892,148.562,202.657,148.562z"/>
	<path fill="#080808" d="M309.344,319.281c23.549,0,42.687-19.156,42.687-42.695c0-23.524-19.138-42.667-42.687-42.667
		c-23.53,0-42.677,19.143-42.677,42.667C266.667,300.125,285.813,319.281,309.344,319.281z M309.344,255.248
		c11.774,0,21.343,9.578,21.343,21.338c0,11.775-9.568,21.354-21.343,21.354c-11.765,0-21.334-9.578-21.334-21.354
		C288.01,264.826,297.579,255.248,309.344,255.248z"/>
	<path fill="#080808" d="M95.956,319.281c23.53,0,42.671-19.156,42.671-42.695c0-23.524-19.142-42.667-42.671-42.667
		c-23.535,0-42.671,19.143-42.671,42.667C53.284,300.125,72.421,319.281,95.956,319.281z M95.956,255.248
		c11.765,0,21.343,9.578,21.343,21.338c0,11.775-9.579,21.354-21.343,21.354c-11.765,0-21.343-9.578-21.343-21.354
		C74.612,264.826,84.19,255.248,95.956,255.248z"/>
	<path fill="#080808" d="M202.657,425.959c23.53,0,42.672-19.137,42.672-42.668c0-23.529-19.142-42.686-42.672-42.686
		c-23.529,0-42.686,19.156-42.686,42.686C159.971,406.822,179.127,425.959,202.657,425.959z M202.657,361.949
		c11.765,0,21.329,9.578,21.329,21.342c0,11.766-9.563,21.344-21.329,21.344c-11.765,0-21.343-9.578-21.343-21.344
		C181.313,371.527,190.892,361.949,202.657,361.949z"/>
	<path fill="#080808" d="M416.04,425.959c23.529,0,42.686-19.137,42.686-42.668c0-23.529-19.156-42.686-42.686-42.686
		s-42.667,19.156-42.667,42.686C373.373,406.822,392.511,425.959,416.04,425.959z M416.04,361.949
		c11.765,0,21.343,9.578,21.343,21.342c0,11.766-9.578,21.344-21.343,21.344c-11.766,0-21.344-9.578-21.344-21.344
		C394.696,371.527,404.274,361.949,416.04,361.949z"/>
</g>
</svg>
