<?xml version="1.0" encoding="UTF-8" standalone="no"?>
<svg width="512px" height="512px" viewBox="0 0 512 512" version="1.1" xmlns="http://www.w3.org/2000/svg" xmlns:xlink="http://www.w3.org/1999/xlink">
    <!-- Generator: Sketch 39.1 (31720) - http://www.bohemiancoding.com/sketch -->
    <title>computer-game</title>
    <desc>Created with Sketch.</desc>
    <defs></defs>
    <g id="Page-1" stroke="none" stroke-width="1" fill="none" fill-rule="evenodd">
        <g id="computer-game" fill="#FFFFFF">
            <g id="computer_game">
                <path d="M501.326,0.002 L373.326,0.002 C367.433,0.002 362.66,4.776 362.66,10.664 L362.66,246.008 C326.533,249.062 298.767,260.811 280.031,280.998 C263.625,298.713 258.375,318.586 256.728,330.654 L210.252,330.654 L201.041,323.556 C199.174,322.124 196.874,321.341 194.526,321.341 L170.33,321.341 C167.34,321.341 164.487,322.585 162.463,324.79 L141.433,347.78 C140.418,348.889 139.648,350.182 139.183,351.624 C114.536,425.683 110.776,473.085 127.688,496.536 C134.978,506.643 145.825,511.997 159.041,511.997 C170.526,511.997 186.776,506.272 198.987,479.026 C201.516,473.37 203.448,467.741 204.854,462.958 C210.198,466.958 216.83,469.341 224.001,469.341 C233.452,469.341 241.962,465.212 247.819,458.653 L285.5,458.653 C291.373,465.212 299.873,469.341 309.324,469.341 C316.814,469.341 323.717,466.741 329.158,462.4 C330.59,467.312 332.56,473.154 335.187,479.027 C347.402,506.273 363.658,511.998 375.138,511.998 C388.372,511.998 399.197,506.644 406.501,496.537 C423.401,473.086 419.647,425.683 395.001,351.625 C394.53,350.184 393.765,348.891 392.745,347.781 L371.716,324.791 C369.696,322.586 366.843,321.342 363.843,321.342 L339.66,321.342 C337.316,321.342 335.014,322.125 333.16,323.557 L323.933,330.655 L278.326,330.655 C279.562,323.782 282.316,314.311 288.424,304.843 C295.082,294.529 304.473,286.155 316.356,279.95 C329.002,273.341 344.553,269.155 362.661,267.44 L362.661,287.999 C362.661,293.892 367.434,298.655 373.327,298.655 L501.327,298.655 C507.22,298.655 511.995,293.891 511.995,287.999 L511.995,10.664 C511.994,4.776 507.219,0.002 501.326,0.002 L501.326,0.002 Z M309.316,362.654 L224.041,362.654 L224.085,351.998 L309.316,351.998 L309.316,362.654 L309.316,362.654 Z M224.002,447.998 C218.12,447.998 213.33,443.213 213.33,437.342 C213.33,431.449 218.12,426.654 224.002,426.654 C229.875,426.654 234.664,431.449 234.664,437.342 C234.665,443.213 229.875,447.998 224.002,447.998 L224.002,447.998 Z M309.326,447.998 C303.433,447.998 298.66,443.213 298.66,437.342 C298.66,431.449 303.433,426.654 309.326,426.654 C315.219,426.654 320.002,431.449 320.002,437.342 C320.002,443.213 315.219,447.998 309.326,447.998 L309.326,447.998 Z M334.092,349.781 L343.297,342.654 L359.16,342.654 L375.465,360.498 C403.504,445.586 396.141,474.43 389.19,484.057 C387.161,486.901 383.465,490.645 375.141,490.645 C365.846,490.645 358.953,479.764 354.817,470.616 C349.395,458.655 347.161,446.274 347.161,446.165 C346.534,442.694 344.317,439.872 341.317,438.401 C341.317,438.057 341.327,437.684 341.327,437.342 C341.327,419.684 326.973,405.342 309.327,405.342 C291.69,405.342 277.327,419.684 277.327,437.342 L256.003,437.342 C256.003,419.684 241.64,405.342 224.003,405.342 C206.356,405.342 191.993,419.684 191.993,437.342 C191.993,437.842 192.013,438.371 192.032,438.871 C189.473,440.43 187.591,443.027 187.042,446.154 C187.018,446.273 184.792,458.654 179.375,470.615 C175.229,479.763 168.346,490.644 159.042,490.644 C150.714,490.644 147.032,486.9 144.988,484.056 C138.051,474.429 130.674,445.585 158.709,360.497 L175.032,342.653 L190.885,342.653 L200.105,349.78 C200.914,350.399 201.816,350.899 202.757,351.26 L202.664,373.27 C202.649,376.114 203.767,378.84 205.777,380.85 C207.777,382.87 210.493,383.996 213.331,383.996 L320.002,383.996 C322.826,383.996 325.533,382.869 327.533,380.869 C329.553,378.869 330.66,376.152 330.66,373.308 L330.64,351.525 C331.875,351.154 333.043,350.576 334.092,349.781 L334.092,349.781 Z M490.65,277.34 L384.004,277.34 L384.004,21.335 L490.65,21.335 L490.65,277.34 L490.65,277.34 Z" id="Shape"></path>
                <path d="M405.326,64.002 L469.326,64.002 C475.219,64.002 479.994,59.228 479.994,53.335 C479.994,47.448 475.219,42.664 469.326,42.664 L405.326,42.664 C399.435,42.664 394.66,47.448 394.66,53.335 C394.66,59.228 399.436,64.002 405.326,64.002 L405.326,64.002 Z" id="Shape"></path>
                <path d="M405.326,106.664 L469.326,106.664 C475.219,106.664 479.994,101.89 479.994,96.002 C479.994,90.11 475.219,85.336 469.326,85.336 L405.326,85.336 C399.435,85.336 394.66,90.11 394.66,96.002 C394.66,101.89 399.436,106.664 405.326,106.664 L405.326,106.664 Z" id="Shape"></path>
                <path d="M405.326,149.336 L469.326,149.336 C475.219,149.336 479.994,144.557 479.994,138.664 C479.994,132.771 475.219,127.997 469.326,127.997 L405.326,127.997 C399.435,127.997 394.66,132.771 394.66,138.664 C394.66,144.557 399.436,149.336 405.326,149.336 L405.326,149.336 Z" id="Shape"></path>
                <path d="M437.326,202.664 C431.435,202.664 426.65,207.443 426.65,213.336 C426.65,219.224 431.435,223.998 437.326,223.998 C443.219,223.998 448.004,219.224 448.004,213.336 C448.004,207.443 443.219,202.664 437.326,202.664 L437.326,202.664 Z" id="Shape"></path>
                <path d="M160.002,213.336 C160.002,219.224 164.776,223.998 170.669,223.998 C176.556,223.998 181.331,219.224 181.331,213.336 C181.331,207.443 176.557,202.664 170.669,202.664 C164.777,202.664 160.002,207.443 160.002,213.336 L160.002,213.336 Z" id="Shape"></path>
                <path d="M245.331,287.998 C245.331,282.105 240.556,277.34 234.664,277.34 L228.57,277.34 L219.433,245.336 L320.001,245.336 C331.776,245.336 341.325,235.782 341.325,223.998 L341.325,21.335 C341.325,9.556 331.776,0.002 320.001,0.002 L21.335,0.002 C9.55,0.002 0.006,9.556 0.006,21.335 L0.006,223.998 C0.006,235.782 9.55,245.336 21.335,245.336 L121.879,245.336 L112.752,277.34 L106.668,277.34 C100.776,277.34 96.002,282.106 96.002,287.998 C96.002,293.89 100.776,298.654 106.668,298.654 L234.664,298.654 C240.556,298.654 245.331,293.891 245.331,287.998 L245.331,287.998 Z M320.002,21.335 L320.002,181.336 L21.335,181.336 L21.335,21.335 L320.002,21.335 L320.002,21.335 Z M21.335,202.664 L170.668,202.664 L320.001,202.664 L320.001,223.998 L170.669,223.998 L21.335,223.998 L21.335,202.664 L21.335,202.664 Z M134.934,277.34 L144.042,245.409 L197.263,245.389 L206.386,277.339 L134.934,277.339 L134.934,277.34 Z" id="Shape"></path>
            </g>
        </g>
    </g>
</svg>