<?xml version="1.0" encoding="utf-8"?>
<!-- Generator: Adobe Illustrator 16.0.0, SVG Export Plug-In . SVG Version: 6.00 Build 0)  -->
<!DOCTYPE svg PUBLIC "-//W3C//DTD SVG 1.1//EN" "http://www.w3.org/Graphics/SVG/1.1/DTD/svg11.dtd">
<svg version="1.1" id="Layer_1" xmlns="http://www.w3.org/2000/svg" xmlns:xlink="http://www.w3.org/1999/xlink" x="0px" y="0px"
	 width="512px" height="512px" viewBox="0 0 512 512" enable-background="new 0 0 512 512" xml:space="preserve">
<g id="croupier">
	<path d="M245.336,426.9c-5.888,0-10.672,4.764-10.672,10.656s4.784,10.676,10.672,10.676c5.892,0,10.666-4.783,10.666-10.676
		S251.228,426.9,245.336,426.9z"/>
	<path d="M245.336,469.342c-5.888,0-10.672,4.764-10.672,10.656c0,5.883,4.784,10.646,10.672,10.646
		c5.892,0,10.666-4.764,10.666-10.646C256.002,474.105,251.228,469.342,245.336,469.342z"/>
	<path d="M501.336,330.9h-63.99c-5.91,0-10.695,4.764-10.695,10.656v32v5.766c-12.039-4.619-18.824-8.824-26.932-11.902
		c-41.795-15.922-58.098-28.109-60.873-33.549l0,0c-2.441-9.01-5.844-15.207-10.068-15.932c-0.656-0.129-1.402-0.178-2.215-0.197
		c30.912-32.244,55.52-78.22,55.52-126.249c0,0,15.107-64.319-20.99-124.854l-0.029-0.27c-0.029,0.005-0.059,0.005-0.129,0.015
		c-7.822-13.074-18.029-25.956-31.303-37.976C315.748,15.83,281.473,0.002,240.14,0.002c-28.295,0-59.902,7.422-90.545,28.407
		C90.158,69.12,96.158,171.787,96.158,171.787s4.157,1.049,11.647,2.034c-0.544,5.75-0.833,11.637-0.833,17.672
		c0,47.872,24.451,93.69,55.201,125.937c-0.662,0.127-1.314,0.303-1.907,0.51c-4.804,1.715-8.304,7.932-10.657,16.559
		c-0.161,0.049-0.265,0.078-0.27,0.088c-2.784,5.422-18.211,16.912-60.01,32.834c-11.779,4.48-20.73,11.312-47.201,18.422
		l-1.818,0.51c-24.094,7.971-40.305,30.312-40.305,55.529v70.117h244.521h128.819h64h51.717h12.273
		c5.883,0,10.658-4.785,10.658-10.656v-32v-31.785v-0.215v-31.785v-32v-32C511.994,335.664,507.219,330.9,501.336,330.9z
		 M490.65,394.9h-42.646v-10.668h42.646V394.9z M490.65,426.664h-42.646v-10.432h42.646V426.664z M384.004,448.232h42.646v10.432
		h-42.646V448.232z M426.65,416.232v10.432h-42.646v-10.432H426.65z M384.004,490.664v-10.666h42.646v10.666H384.004z
		 M448.004,448.232h42.646v10.432h-42.646V448.232z M448.004,352.232h42.646V362.9h-42.646V352.232z M391.504,387.105
		c0.322,2.137,0.695,4.736,1.059,7.795h-19.217c-5.912,0-10.686,4.764-10.686,10.656v31.785v0.215v31.785v21.322h-49.539
		c6.127-25.166,10.539-47.705,13.695-67.264c0.686-0.158,1.354-0.314,1.961-0.529c11.127-3.971,15.314-32.1,14.256-58.217
		C360.219,375.105,381.562,383.322,391.504,387.105z M256.664,363.311c0,4.854-2.177,10.902-5.544,15.402
		c-2.844,3.814-5.56,5.217-6.594,5.217s-3.745-1.402-6.593-5.217c-3.368-4.5-5.539-10.549-5.539-15.402
		c0-0.598,0.029-1.098,0.078-1.52c4.162,0.863,8.201,1.334,12.054,1.334c3.858,0,7.897-0.471,12.06-1.334
		C256.635,362.213,256.664,362.713,256.664,363.311z M215.674,382.822c-3.946,1.764-8.25,3.656-12.721,5.549
		c-16.318,6.871-26.451,10.215-32.461,11.842c-1.539-6.215-3.107-16.283-3.279-29.588c-0.211-15.725,1.687-26.471,3.377-31.971
		c5.201,0.844,15.74,3.686,34.691,12.666c2.313,1.266,4.618,2.441,6.902,3.521c-0.73,2.549-1.128,5.352-1.128,8.469
		C211.056,369.742,212.742,376.586,215.674,382.822z M277.248,356.271c2.834-1.244,5.805-2.539,8.844-3.822
		c16.332-6.893,26.471-10.236,32.471-11.863c1.529,6.225,3.107,16.285,3.283,29.598c0.207,15.717-1.686,26.471-3.373,31.971
		c-5.254-0.863-15.92-3.725-35.195-12.893c-3.695-1.764-7.246-3.549-10.49-5.205c3.295-6.578,5.215-13.873,5.215-20.746
		C278.002,360.781,277.738,358.43,277.248,356.271z M351.846,126.654c-4.676-5.294-9.912-9.633-15.607-12.976
		c4.314-10.451,9.766-16.726,14.578-20.485c5.873,13.368,9.824,27.878,11.746,43.157c0.283,2.382,0.529,4.721,0.715,7
		C359.846,136.919,356.092,131.438,351.846,126.654z M121.536,119.399c3.068-15.897,7.662-29.946,13.652-41.75
		c6.985-13.75,15.892-24.397,26.461-31.643c23.906-16.372,50.323-24.677,78.49-24.677c36.343,0,65.392,14.045,75.177,22.888
		c9.932,9,18.432,19.049,25.383,30.01c-8.461,5.672-17.844,15.422-24.539,32.157c-3.5-0.604-7.098-0.907-10.805-0.907
		c-15.922,0-33.068,5.383-52.446,16.451c-46.682,26.667-89.844,32.265-117.844,32.265c-6.711,0-12.603-0.328-17.51-0.765
		C117.973,144.351,119.036,132.39,121.536,119.399z M129.09,175.443c1.922,0.054,3.912,0.079,5.976,0.079
		c31.221,0,78.005-6.265,128.417-35.069c16.99-9.696,30.707-13.646,41.873-13.646c26.863,0,39.049,22.794,46.363,43.416
		c2.5,7.064,5.627,11.932,8.902,15.255c0.078,1.99,0.127,4,0.127,6.016c0,35.132-15.98,73.495-43.844,105.249
		c-12.244,13.971-25.971,25.648-39.686,33.785c-12.24,7.254-23.849,11.254-32.692,11.254c-8.838,0-20.446-4-32.691-11.254
		c-13.705-8.137-27.436-19.814-39.676-33.785c-27.868-31.754-43.854-70.117-43.854-105.249
		C128.306,186.037,128.575,180.684,129.09,175.443z M160.267,422.871c0.75,0.137,1.612,0.205,2.539,0.205
		c0.368,0,0.745-0.02,1.133-0.049c3.142,19.656,7.554,42.314,13.721,67.637H99.668c-6.784-54.393-2.823-90.195-0.549-104.156
		c11.104-4.236,30.878-12.01,46.785-21.727C145.379,392.027,150.801,421.213,160.267,422.871z M21.34,441.881
		c0-15.902,10.157-29.98,25.318-35.148l1.196-0.342c12.363-3.334,21.284-6.619,28.393-9.648c-0.383,3.707-0.745,7.883-1.024,12.5
		c-1.839,29.422,0.24,58.688,2.96,81.422H21.34V441.881z M199.635,490.664c-6.907-27.705-11.618-52.156-14.829-72.51
		c14.844-4.912,32.393-12.549,44.604-18.127c4.544,3.264,9.677,5.244,15.117,5.244c5.044,0,9.819-1.695,14.108-4.559
		c12.486,6.629,31.113,15.717,46.918,20.285c-3.207,19.775-7.814,43.244-14.412,69.666h-46.614H199.635z M490.65,490.664h-42.646
		v-10.666h42.646V490.664z"/>
</g>
</svg>
