<?xml version="1.0" encoding="utf-8"?>
<!-- Generator: Adobe Illustrator 16.0.0, SVG Export Plug-In . SVG Version: 6.00 Build 0)  -->
<!DOCTYPE svg PUBLIC "-//W3C//DTD SVG 1.1//EN" "http://www.w3.org/Graphics/SVG/1.1/DTD/svg11.dtd">
<svg version="1.1" id="Layer_1" xmlns="http://www.w3.org/2000/svg" xmlns:xlink="http://www.w3.org/1999/xlink" x="0px" y="0px"
	 width="512px" height="512px" viewBox="0 0 512 512" enable-background="new 0 0 512 512" xml:space="preserve">
<g id="dandy_gamepad">
	<path fill="#080808" d="M458.667,277.34H283.823v-32.004c0-5.902-4.764-10.672-10.656-10.672h-5.344v-31.995
		c0-5.882,4.805-10.671,10.677-10.671l0,0h117.324c17.677,0,32-14.329,32-32.001c0-17.671-14.323-32-32-32H118.5l0,0
		c-5.873,0-10.672-4.779-10.672-10.661c0-5.883,4.799-10.662,10.672-10.662l0,0h117.328c17.672,0,31.995-14.328,31.995-32v-64.01
		c0-5.888-4.765-10.662-10.651-10.662c-5.893,0-10.672,4.774-10.672,10.662v64.01c0,5.872-4.784,10.662-10.672,10.662H118.5l0,0
		c-17.672,0-32,14.328-32,32c0,17.671,14.329,32,32,32l0,0h277.324c5.892,0,10.677,4.779,10.677,10.661
		c0,5.883-4.785,10.672-10.677,10.672H278.5l0,0c-17.671,0-32,14.324-32,32v31.995h-5.328c-5.893,0-10.672,4.77-10.672,10.672
		v32.004H53.333c-17.643,0-32,14.344-32,32.002v170.656c0,17.646,14.357,32,32,32h405.334c17.638,0,32-14.354,32-32V309.342
		C490.667,291.684,476.305,277.34,458.667,277.34z M251.829,255.998H262.5v21.342h-10.671V255.998z M469.324,479.998
		c0,5.873-4.784,10.646-10.657,10.646H53.333c-5.878,0-10.657-4.773-10.657-10.646V309.342c0-5.893,4.779-10.688,10.657-10.688
		h405.334c5.873,0,10.657,4.795,10.657,10.688V479.998z"/>
	<path fill="#080808" d="M342.501,319.998c-17.647,0-32.001,14.344-32.001,32s14.354,32,32.001,32c17.637,0,32-14.344,32-32
		S360.138,319.998,342.501,319.998z M342.501,362.654c-5.873,0-10.677-4.783-10.677-10.656s4.804-10.658,10.677-10.658
		c5.872,0,10.666,4.785,10.666,10.658S348.373,362.654,342.501,362.654z"/>
	<path fill="#080808" d="M417.167,319.998c-17.656,0-32,14.344-32,32s14.344,32,32,32c17.638,0,32-14.344,32-32
		S434.805,319.998,417.167,319.998z M417.167,362.654c-5.893,0-10.666-4.783-10.666-10.656s4.773-10.658,10.666-10.658
		c5.873,0,10.657,4.785,10.657,10.658S423.04,362.654,417.167,362.654z"/>
	<path fill="#080808" d="M342.501,394.654c-17.647,0-32.001,14.373-32.001,32c0,17.658,14.354,32,32.001,32
		c17.637,0,32-14.342,32-32C374.501,409.027,360.138,394.654,342.501,394.654z M342.501,437.342
		c-5.873,0-10.677-4.805-10.677-10.688s4.804-10.656,10.677-10.656c5.872,0,10.666,4.773,10.666,10.656
		S348.373,437.342,342.501,437.342z"/>
	<path fill="#080808" d="M417.167,394.654c-17.656,0-32,14.373-32,32c0,17.658,14.344,32,32,32c17.638,0,32-14.342,32-32
		C449.167,409.027,434.805,394.654,417.167,394.654z M417.167,437.342c-5.893,0-10.666-4.805-10.666-10.688
		s4.773-10.656,10.666-10.656c5.873,0,10.657,4.773,10.657,10.656S423.04,437.342,417.167,437.342z"/>
	<path fill="#080808" d="M182.5,362.654h-10.672v-10.656c0-17.676-14.328-32-32-32s-32,14.324-32,32v10.656H97.171
		c-17.671,0-31.995,14.344-31.995,32c0,17.688,14.324,32,31.995,32h10.657v10.688c0,17.656,14.328,32,32,32s32-14.344,32-32v-10.688
		H182.5c17.672,0,32-14.312,32-32C214.5,376.998,200.172,362.654,182.5,362.654z M182.5,405.342h-10.672H150.5v21.312v10.688
		c0,5.871-4.779,10.656-10.672,10.656c-5.873,0-10.657-4.785-10.657-10.656v-10.688v-21.312h-21.343H97.171
		c-5.887,0-10.671-4.795-10.671-10.688c0-5.883,4.785-10.656,10.671-10.656h10.657h21.343v-21.344v-10.656
		c0-5.873,4.784-10.658,10.657-10.658c5.893,0,10.672,4.785,10.672,10.658v10.656v21.344h21.328H182.5
		c5.873,0,10.671,4.773,10.671,10.656C193.171,400.547,188.373,405.342,182.5,405.342z"/>
	<path fill="#080808" d="M278.5,447.998h-42.672c-5.892,0-10.656,4.775-10.656,10.656c0,5.902,4.765,10.688,10.656,10.688H278.5
		c5.893,0,10.667-4.785,10.667-10.688C289.167,452.773,284.393,447.998,278.5,447.998z"/>
</g>
</svg>
