<?xml version="1.0" encoding="utf-8"?>
<!-- Generator: Adobe Illustrator 16.0.0, SVG Export Plug-In . SVG Version: 6.00 Build 0)  -->
<!DOCTYPE svg PUBLIC "-//W3C//DTD SVG 1.1//EN" "http://www.w3.org/Graphics/SVG/1.1/DTD/svg11.dtd">
<svg version="1.1" id="Layer_1" xmlns="http://www.w3.org/2000/svg" xmlns:xlink="http://www.w3.org/1999/xlink" x="0px" y="0px"
	 width="512px" height="512px" viewBox="0 0 512 512" enable-background="new 0 0 512 512" xml:space="preserve">
<path id="dendy_gun" fill="#080808" d="M501.336,69.306h-10.667c0-5.892-4.783-10.667-10.676-10.667
	c-5.883,0-10.647,4.774-10.647,10.667H280.659l-29.407-19.549c-1.75-1.161-3.813-1.779-5.906-1.779H85.345
	c0-5.892-4.779-10.662-10.667-10.662c-5.892,0-10.676,4.77-10.676,10.662H53.35c-4.049,0-7.735,2.279-9.549,5.897L36.08,69.306
	H21.35c-4.907,0-9.172,3.333-10.358,8.083L0.335,120.057c-1.422,5.686,2.015,11.451,7.687,12.912
	c0.142,0.039,14.985,3.892,30.578,10.338c23.794,9.833,30.422,17.612,32.25,21.162L0.942,320.949
	c-1.485,3.293-1.187,7.127,0.779,10.156c1.971,3.029,5.349,4.863,8.956,4.863H37.35v32c0,5.902,4.765,10.666,10.652,10.666h5.348
	v42.678c0,9.42-2.672,16.529-8.157,21.715c-6.049,5.715-14.642,8.215-20.799,9.314c-7.265,1.273-13.029,0.98-13.029,0.98
	c-5.907-0.373-10.971,4.107-11.328,9.99c-0.373,5.871,4.093,10.93,9.971,11.303c0.215,0,1.265,0.068,2.936,0.068
	c8.143,0,31.172-1.381,46.795-16.049c9.906-9.322,14.94-21.873,14.94-37.322v-42.678h5.324c5.892,0,10.676-4.764,10.676-10.666
	v-39.207l18.437-3.676c3.687-0.715,6.701-3.344,7.966-6.883l29.437-82.955c0.971-1.446,1.578-3.133,1.75-4.951l3.843-10.843
	l59.516,9.716c0.578,0.093,1.156,0.132,1.72,0.132c4.25,0,8.187-2.554,9.858-6.593l19.299-46.73h24.167
	c3.568,0,6.893-1.774,8.862-4.735l3.98-5.941h157.834c5.882,0,10.657-4.77,10.657-10.662v-21.333h53.333
	c5.893,0,10.657-4.775,10.657-10.667V79.978C511.993,74.086,507.229,69.306,501.336,69.306z M46.757,123.596
	c-8.706-3.598-17.05-6.417-23.235-8.338l6.156-24.618h13c4.044,0,7.73-2.279,9.545-5.897l7.72-15.436h93.344l-3.143,6.186
	c-2.656,5.25-0.563,11.672,4.687,14.344c1.549,0.789,3.187,1.156,4.814,1.156c3.887,0,7.642-2.132,9.529-5.838l8.049-15.848h8.422
	l-3.143,6.186c-2.672,5.25-0.578,11.672,4.672,14.344c1.549,0.789,3.201,1.156,4.828,1.156c3.893,0,7.628-2.132,9.515-5.838
	l8.049-15.848h8.422l-3.143,6.186c-2.671,5.25-0.578,11.672,4.687,14.344c1.549,0.789,3.187,1.156,4.814,1.156
	c3.892,0,7.642-2.132,9.515-5.838l8.063-15.848h0.201l52.583,34.961l-5.156,7.71H170.674c-4.079,0-7.814,2.334-9.594,6.005
	l-17.779,36.657H89.845C84.002,143.336,69.771,133.11,46.757,123.596z M69.35,357.311H58.678v-22.186l10.672-2.127V357.311z
	 M52.286,314.635H27.129L89.08,175.978h55.829l-15.143,42.662h-7.608c-5.892,0-10.656,4.775-10.656,10.662
	c0,5.892,4.765,10.672,10.656,10.672h0.05l-7.579,21.327h-7.956c-5.887,0-10.671,4.785-10.671,10.678s4.784,10.656,10.671,10.656
	h0.393l-8.063,22.727L52.286,314.635z M167.531,175.978h3.143v24.887l-11.314-1.853L167.531,175.978z M206.703,206.748
	l-14.701-2.397v-28.373h21.343h6.079L206.703,206.748z M260.982,154.64h-25.637c-0.03,0-0.064,0-0.108,0h-21.893h-46.343
	l10.357-21.333h97.907L260.982,154.64z M426.669,143.978H293.796l7.138-10.671h125.735V143.978z M490.669,111.978h-53.323H315.218
	l3.177-4.735c1.578-2.353,2.157-5.24,1.588-8.025c-0.549-2.779-2.187-5.226-4.549-6.794l-2.687-1.784h177.922V111.978z"/>
</svg>
