<?xml version="1.0" encoding="utf-8"?>
<!-- Generator: Adobe Illustrator 16.0.0, SVG Export Plug-In . SVG Version: 6.00 Build 0)  -->
<!DOCTYPE svg PUBLIC "-//W3C//DTD SVG 1.1//EN" "http://www.w3.org/Graphics/SVG/1.1/DTD/svg11.dtd">
<svg version="1.1" id="Layer_1" xmlns="http://www.w3.org/2000/svg" xmlns:xlink="http://www.w3.org/1999/xlink" x="0px" y="0px"
	 width="512px" height="512px" viewBox="0 0 512 512" enable-background="new 0 0 512 512" xml:space="preserve">
<g id="dice">
	<path fill="#080808" d="M156.875,225.603c-4.171-4.167-10.921-4.167-15.088,0c-4.162,4.162-4.162,10.922,0,15.083
		c4.167,4.167,10.917,4.167,15.088,0C161.037,236.524,161.037,229.765,156.875,225.603z"/>
	<path fill="#080808" d="M60.875,315.657c4.162-4.176,4.162-10.922,0-15.078c-4.162-4.176-10.922-4.176-15.083,0
		c-4.167,4.156-4.167,10.902,0,15.078C49.953,319.823,56.713,319.823,60.875,315.657z"/>
	<path fill="#080808" d="M114.204,390.011c4.171-4.156,4.171-10.922,0-15.078c-4.167-4.168-10.917-4.168-15.079,0
		c-4.171,4.156-4.171,10.922,0,15.078C103.287,394.187,110.037,394.187,114.204,390.011z"/>
	<path fill="#080808" d="M184.449,375.235c-4.162,4.168-4.162,10.922,0,15.09c4.167,4.156,10.921,4.156,15.088,0
		c4.162-4.168,4.162-10.922,0-15.09C195.371,371.079,188.616,371.079,184.449,375.235z"/>
	<path fill="#080808" d="M211.116,337.903c-4.167,4.176-4.167,10.92,0,15.078c4.171,4.176,10.921,4.176,15.083,0
		c4.171-4.158,4.171-10.902,0-15.078C222.037,333.735,215.287,333.735,211.116,337.903z"/>
	<path fill="#080808" d="M511.136,205.51L444.881,50.661c-1.716-4.039-5.765-6.603-10.138-6.461l-148.794,4.755
		c-2.677,0.088-5.216,1.172-7.128,3.049L172.63,156.328c-3.132,3.078-4.064,7.77-2.333,11.804l4.637,10.848l-21.725-8.495
		c-2.5-0.965-5.265-0.965-7.755,0L6.782,224.642c-4.093,1.594-6.78,5.54-6.78,9.927v168.433c0,4.393,2.687,8.324,6.78,9.922
		l138.672,54.156c1.24,0.48,2.559,0.727,3.873,0.727c1.319,0,2.633-0.246,3.883-0.727l138.662-54.156
		c4.098-1.598,6.794-5.529,6.794-9.922v-75.217l96.814-3.098c2.676-0.098,5.215-1.176,7.137-3.049l106.187-104.324
		C511.931,214.235,512.872,209.549,511.136,205.51z M290.792,70.142l117.324-3.75l-83.726,82.265l-117.324,3.75L290.792,70.142z
		 M196.052,174.103l125.897-4.024l57.235,133.786l-125.893,4.029L196.052,174.103z M138.665,441.53L21.331,395.696v-145.51
		l117.333,45.815V441.53z M149.326,277.265L39.983,234.568l109.343-42.691l37.378,14.593l20.598,48.162L149.326,277.265z
		 M277.321,395.696L159.998,441.53V296.001l55.701-21.756l20.843,48.736c1.682,3.922,5.549,6.471,9.809,6.471
		c0.113,0,0.226,0,0.343-0.02l30.627-0.961V395.696z M398.802,295.472L341.577,161.69l89.844-88.279l57.225,133.794L398.802,295.472
		z"/>
	<path fill="#080808" d="M303.058,117.985c5.471,2.196,11.686-0.461,13.872-5.926c2.187-5.471-0.461-11.682-5.932-13.868
		c-5.471-2.196-11.677,0.461-13.862,5.927C294.93,109.588,297.606,115.799,303.058,117.985z"/>
	<path fill="#080808" d="M258.042,218.46c2.191-5.465-0.465-11.676-5.936-13.868c-5.47-2.191-11.676,0.461-13.868,5.932
		c-2.196,5.466,0.461,11.681,5.932,13.867C249.636,226.588,255.851,223.931,258.042,218.46z"/>
	<path fill="#080808" d="M326.772,281.874c5.471,2.186,11.677-0.471,13.863-5.932c2.205-5.471-0.451-11.682-5.922-13.873
		c-5.471-2.197-11.686,0.461-13.872,5.932S321.312,279.667,326.772,281.874z"/>
	<path fill="#080808" d="M301.606,223.029c5.471,2.191,11.666-0.466,13.862-5.937c2.187-5.466-0.471-11.671-5.94-13.868
		c-5.451-2.186-11.677,0.471-13.863,5.941C293.479,214.627,296.136,220.838,301.606,223.029z"/>
	<path fill="#080808" d="M269.341,283.235c5.471,2.188,11.687-0.471,13.873-5.941c2.187-5.461-0.471-11.666-5.941-13.861
		c-5.461-2.191-11.676,0.465-13.862,5.93C261.214,274.823,263.87,281.05,269.341,283.235z"/>
	<path fill="#080808" d="M428.636,129.073c-5.471-2.187-11.686,0.466-13.873,5.936c-2.186,5.471,0.471,11.671,5.932,13.868
		c5.471,2.187,11.677-0.471,13.873-5.937C436.763,137.48,434.106,131.269,428.636,129.073z"/>
	<path fill="#080808" d="M445.871,207.72c5.471,2.186,11.667-0.47,13.872-5.936c2.188-5.471-0.47-11.682-5.94-13.868
		c-5.461-2.196-11.667,0.461-13.872,5.927C437.743,199.313,440.401,205.524,445.871,207.72z"/>
	<path fill="#080808" d="M387.999,169.666c-5.471-2.196-11.688,0.461-13.883,5.927c-2.187,5.471,0.471,11.682,5.941,13.877
		c5.471,2.186,11.666-0.47,13.862-5.936C396.116,178.063,393.46,171.853,387.999,169.666z"/>
	<path fill="#080808" d="M413.165,228.51c-5.471-2.196-11.686,0.461-13.873,5.926c-2.186,5.471,0.471,11.681,5.941,13.868
		c5.461,2.196,11.667-0.461,13.854-5.932C421.293,236.907,418.636,230.696,413.165,228.51z"/>
	<path fill="#080808" d="M420.9,178.799c-5.47-2.187-11.667,0.466-13.872,5.936c-2.187,5.471,0.471,11.681,5.932,13.868
		c5.471,2.196,11.686-0.461,13.882-5.932C429.028,187.206,426.371,180.995,420.9,178.799z"/>
</g>
</svg>
