<?xml version="1.0" encoding="utf-8"?>
<!-- Generator: Adobe Illustrator 16.0.0, SVG Export Plug-In . SVG Version: 6.00 Build 0)  -->
<!DOCTYPE svg PUBLIC "-//W3C//DTD SVG 1.1//EN" "http://www.w3.org/Graphics/SVG/1.1/DTD/svg11.dtd">
<svg version="1.1" id="Layer_1" xmlns="http://www.w3.org/2000/svg" xmlns:xlink="http://www.w3.org/1999/xlink" x="0px" y="0px"
	 width="512px" height="512px" viewBox="0 0 512 512" enable-background="new 0 0 512 512" xml:space="preserve">
<g id="domino">
	<path d="M190.304,27.494c-0.804-5.838-6.187-9.917-12.024-9.112L9.215,41.67c-5.838,0.804-9.917,6.187-9.112,12.024l46.573,338.134
		c0.388,2.803,1.873,5.332,4.123,7.029c1.867,1.42,4.132,2.176,6.446,2.176c0.485,0,0.971-0.029,1.451-0.098l169.069-23.295
		c5.833-0.793,9.912-6.186,9.108-12.01L190.304,27.494z M170.627,40.969L191,188.906L43.064,209.289L22.691,61.352L170.627,40.969z
		 M66.353,378.349L45.98,230.421l147.932-20.387l20.377,147.942L66.353,378.349z"/>
	<path d="M52.314,97.185c4.696,3.554,11.392,2.633,14.946-2.063c3.554-4.691,2.632-11.383-2.054-14.941
		c-4.696-3.554-11.392-2.632-14.946,2.059C46.696,86.935,47.618,93.622,52.314,97.185z"/>
	<path d="M100.407,133.631c4.696,3.554,11.383,2.632,14.937-2.063c3.563-4.696,2.643-11.383-2.054-14.946
		c-4.696-3.554-11.383-2.632-14.946,2.063C94.79,123.381,95.711,130.068,100.407,133.631z"/>
	<path d="M146.432,155.131c-3.554,4.696-2.632,11.383,2.064,14.937c4.691,3.563,11.382,2.642,14.941-2.054
		c3.554-4.696,2.632-11.383-2.059-14.946C156.682,149.514,149.991,150.435,146.432,155.131z"/>
	<path d="M61.902,166.769c-3.554,4.696-2.632,11.387,2.059,14.946c4.696,3.554,11.382,2.632,14.941-2.059
		c3.559-4.696,2.638-11.387-2.059-14.941C72.152,161.156,65.461,162.078,61.902,166.769z"/>
	<path d="M136.843,85.538c4.706,3.564,11.393,2.642,14.946-2.054c3.563-4.696,2.642-11.392-2.054-14.946
		c-4.696-3.564-11.393-2.642-14.946,2.054C131.236,75.288,132.157,81.984,136.843,85.538z"/>
	<path d="M90.549,264.19c3.554-4.695,2.632-11.387-2.064-14.946c-4.696-3.554-11.382-2.633-14.936,2.059
		c-3.564,4.701-2.643,11.387,2.054,14.956C80.299,269.808,86.985,268.888,90.549,264.19z"/>
	<path d="M136.579,285.69c-4.696-3.559-11.392-2.637-14.946,2.049c-3.559,4.707-2.637,11.393,2.054,14.951
		c4.696,3.559,11.392,2.637,14.946-2.059C142.196,295.946,141.275,289.239,136.579,285.69z"/>
	<path d="M184.667,322.132c-4.696-3.549-11.382-2.627-14.946,2.059c-3.554,4.688-2.633,11.393,2.063,14.941
		c4.691,3.559,11.382,2.637,14.937-2.049C190.28,332.378,189.358,325.69,184.667,322.132z"/>
	<path d="M100.132,333.769c-4.691-3.549-11.387-2.627-14.941,2.061c-3.563,4.705-2.642,11.391,2.054,14.959
		c4.696,3.539,11.392,2.619,14.946-2.068C105.75,344.015,104.829,337.327,100.132,333.769z"/>
	<path d="M175.079,252.553c3.564-4.706,2.643-11.392-2.054-14.946c-4.696-3.563-11.393-2.642-14.946,2.054
		c-3.563,4.696-2.642,11.392,2.054,14.946C164.829,258.161,171.525,257.239,175.079,252.553z"/>
	<path d="M503.247,136.789l-167.893-30.647c-2.794-0.51-5.657,0.108-7.98,1.716c-2.333,1.612-3.922,4.078-4.441,6.862
		l-61.284,335.766c-1.055,5.795,2.779,11.363,8.578,12.402l167.883,30.656c0.637,0.107,1.274,0.176,1.922,0.176
		c2.156,0,4.265-0.656,6.059-1.891c2.334-1.609,3.922-4.078,4.422-6.863l61.313-335.771
		C512.875,143.406,509.031,137.852,503.247,136.789z M431.453,470.642l-146.902-26.812l26.804-146.902l146.912,26.812
		L431.453,470.642z M462.09,302.749l-146.893-26.803l26.814-146.908l146.912,26.819L462.09,302.749z"/>
	<path d="M408.119,224.676c4.844-3.348,6.068-9.99,2.706-14.843c-3.343-4.843-9.98-6.054-14.843-2.701
		c-4.844,3.343-6.05,9.99-2.707,14.833C396.639,226.808,403.275,228.029,408.119,224.676z"/>
	<path d="M343.658,256.279c3.344,4.843,9.98,6.054,14.824,2.71c4.842-3.353,6.059-10,2.715-14.843
		c-3.353-4.843-10-6.054-14.843-2.711C341.512,244.784,340.295,251.426,343.658,256.279z"/>
	<path d="M457.746,190.367c4.863-3.353,6.06-9.995,2.717-14.838c-3.354-4.854-10-6.064-14.844-2.711
		c-4.843,3.353-6.059,9.99-2.695,14.833C446.266,192.504,452.904,193.715,457.746,190.367z"/>
	<path d="M331.031,325.378c-4.844,3.342-6.06,10-2.707,14.842c3.344,4.844,9.99,6.049,14.844,2.707
		c4.844-3.344,6.049-10,2.706-14.844S335.874,322.034,331.031,325.378z"/>
	<path d="M399.658,424.642c-4.854,3.363-6.068,10-2.725,14.844c3.361,4.844,10,6.059,14.842,2.705
		c4.844-3.342,6.069-9.99,2.727-14.832C411.139,422.505,404.502,421.3,399.658,424.642z"/>
	<path d="M315.707,409.319c-4.853,3.352-6.049,10-2.706,14.842c3.344,4.844,10,6.059,14.844,2.717
		c4.843-3.363,6.059-10,2.706-14.844C327.197,407.19,320.561,405.976,315.707,409.319z"/>
	<path d="M429.806,343.407c-3.343-4.844-9.98-6.061-14.823-2.697c-4.863,3.344-6.06,9.98-2.717,14.824
		c3.354,4.863,10,6.059,14.844,2.715C431.953,354.897,433.168,348.249,429.806,343.407z"/>
</g>
</svg>
