<?xml version="1.0" encoding="UTF-8" standalone="no"?>
<svg width="448px" height="512px" viewBox="0 0 448 512" version="1.1" xmlns="http://www.w3.org/2000/svg" xmlns:xlink="http://www.w3.org/1999/xlink">
    <!-- Generator: Sketch 39.1 (31720) - http://www.bohemiancoding.com/sketch -->
    <title>game-magazine</title>
    <desc>Created with Sketch.</desc>
    <defs></defs>
    <g id="Page-1" stroke="none" stroke-width="1" fill="none" fill-rule="evenodd">
        <g id="game-magazine" fill="#FFFFFF">
            <g id="game_magazine">
                <path d="M245.354,298.654 C276.688,298.654 306.159,286.439 328.325,264.277 C335.983,256.615 342.542,247.959 347.796,238.566 L353.013,229.257 L267.218,181.311 L353.013,133.374 L347.796,124.061 C342.542,114.673 336.003,106.021 328.325,98.35 C306.159,76.188 276.688,63.987 245.354,63.987 C214.016,63.987 184.55,76.188 162.394,98.35 C116.643,144.095 116.643,218.537 162.394,264.277 C184.551,286.439 214.017,298.654 245.354,298.654 L245.354,298.654 Z M177.473,113.429 C195.611,95.306 219.718,85.311 245.355,85.311 C271.002,85.311 295.111,95.306 313.238,113.429 C316.964,117.174 320.395,121.194 323.454,125.453 L223.488,181.311 L323.454,237.178 C320.395,241.433 316.964,245.458 313.238,249.193 C295.111,267.32 271.003,277.31 245.355,277.31 C219.718,277.31 195.611,267.32 177.473,249.193 C140.051,211.763 140.051,150.865 177.473,113.429 L177.473,113.429 Z" id="Shape"></path>
                <path d="M263.552,135.537 C267.718,131.375 267.718,124.625 263.552,120.458 C259.375,116.291 252.63,116.291 248.473,120.458 C244.296,124.625 244.296,131.375 248.473,135.537 C252.63,139.713 259.375,139.713 263.552,135.537 L263.552,135.537 Z" id="Shape"></path>
                <path d="M116.565,362.654 L372.561,362.654 C378.454,362.654 383.237,357.89 383.237,351.998 C383.237,346.106 378.454,341.34 372.561,341.34 L116.565,341.34 C110.673,341.34 105.909,346.106 105.909,351.998 C105.909,357.89 110.674,362.654 116.565,362.654 L116.565,362.654 Z" id="Shape"></path>
                <path d="M308.562,383.998 L180.565,383.998 C174.673,383.998 169.909,388.771 169.909,394.654 C169.909,400.556 174.674,405.342 180.565,405.342 L308.561,405.342 C314.453,405.342 319.237,400.557 319.237,394.654 C319.237,388.771 314.453,383.998 308.562,383.998 L308.562,383.998 Z" id="Shape"></path>
                <path d="M447.993,469.342 L447.993,10.664 C447.993,4.776 443.227,0.002 437.346,0.002 L10.678,0.002 C4.786,0.002 0.007,4.776 0.007,10.664 L0.007,469.342 L0.007,469.342 L0.007,501.342 C0.007,507.213 4.786,511.998 10.678,511.998 L437.346,511.998 C443.228,511.998 447.993,507.213 447.993,501.342 C447.993,495.43 443.227,490.645 437.346,490.645 L437.346,479.999 C443.228,479.998 447.993,475.213 447.993,469.342 L447.993,469.342 Z M426.669,458.654 L64.002,458.654 L64.002,21.335 L426.669,21.335 L426.669,458.654 L426.669,458.654 Z M42.678,21.335 L42.678,458.654 L21.35,458.654 L21.35,426.654 L21.35,426.654 L21.35,21.335 L42.678,21.335 L42.678,21.335 Z M416.003,490.645 L21.35,490.645 L21.35,479.999 L416.003,479.999 L416.003,490.645 L416.003,490.645 Z" id="Shape"></path>
            </g>
        </g>
    </g>
</svg>