<?xml version="1.0" encoding="utf-8"?>
<!-- Generator: Adobe Illustrator 16.0.0, SVG Export Plug-In . SVG Version: 6.00 Build 0)  -->
<!DOCTYPE svg PUBLIC "-//W3C//DTD SVG 1.1//EN" "http://www.w3.org/Graphics/SVG/1.1/DTD/svg11.dtd">
<svg version="1.1" id="Layer_1" xmlns="http://www.w3.org/2000/svg" xmlns:xlink="http://www.w3.org/1999/xlink" x="0px" y="0px"
	 width="512px" height="512px" viewBox="0 0 512 512" enable-background="new 0 0 512 512" xml:space="preserve">
<path id="gamer" d="M492.688,368.9c-0.627-1.844-1.734-3.5-3.225-4.766l-23.893-20.264c-1.922-1.639-4.373-2.531-6.902-2.531
	h-21.323c-2.833,0-5.539,1.129-7.539,3.109l-7.54,7.549h-56.754c-14.354-8-19.451-13.941-21.236-17.412
	c-0.088-0.195-0.166-0.402-0.264-0.607l-0.266-36.51c22.334-29.883,38.285-67.157,38.344-105.785v0.01
	c0,0,15.656-60.951-1.873-101.348C363.453,51.718,319.64,50.87,315.815,50.87c-0.186,0-0.283,0-0.283,0s-2.657-23.775,25.812-40.893
	c4.775-2.868-22.549-9.976-60.293-9.976c-57.643-0.01-139.614,16.583-168.844,90.201c-18.181,45.774-4.745,113.133-4.745,113.133
	l0.024-0.039c2.838,34.437,17.76,67.299,37.838,94.172l-0.26,36.51c-0.093,0.205-0.172,0.412-0.265,0.607
	c-2.784,5.412-13.657,16.893-55.461,32.814c-11.779,4.5-20.735,11.312-47.201,18.422l-1.823,0.529
	c-24.094,7.961-40.304,30.303-40.304,55.52v70.127h244.53h38.854l0,0c0.01,0,0.01,0,0.01,0h190.521c0.01,0,0.029,0,0.039,0
	c0.02,0,0.02,0,0.029,0h0.412v-0.02c11.892-0.107,21.637-4.98,28.234-14.137C517.807,476.803,514.542,434.635,492.688,368.9z
	 M416.003,383.998h-85.285l0.049-10.676h85.217L416.003,383.998z M322.688,334.135l0.029,4.52l1.784,3.932
	c0.138,0.344,0.422,0.971,0.794,1.734c0.98,1.922,2.206,3.805,3.599,5.609c-0.539,0.676-1.118,1.361-1.706,2.068h-2.735
	l-7.578-7.568c-2-1.98-4.706-3.09-7.529-3.09h-9.735c7.813-5.627,15.549-12.186,22.98-19.529L322.688,334.135z M130.291,213.326
	h2.765c1.98,15.422,11.211,26.672,52.813,26.672c41.608,0,50.844-11.25,52.819-26.672h11.706
	c1.965,15.422,11.2,26.672,52.804,26.672c41.617,0,50.844-11.25,52.814-26.672h2.764c-5.059,28.687-19.686,58.143-41.872,83.416
	c-12.235,13.961-25.971,25.629-39.667,33.766c-12.245,7.273-23.863,11.273-32.696,11.273c-8.843,0-20.456-4-32.696-11.273
	c-13.71-8.137-27.431-19.805-39.676-33.766C149.987,271.469,135.354,242.013,130.291,213.326z M153.869,202.664
	c0-8.299,1.682-9.784,2.397-10.416c1.485-1.31,8-5.584,29.603-5.584c21.604,0,28.123,4.274,29.608,5.584
	c0.711,0.632,2.397,2.117,2.397,10.416c0,9.24-0.873,10.794-1.137,11.054c-0.206,0.201-5.407,4.946-30.868,4.946
	c-25.451,0-30.656-4.745-30.867-4.946C154.737,213.458,153.869,211.904,153.869,202.664z M271.208,202.664
	c0-8.299,1.687-9.784,2.402-10.416c1.471-1.31,8-5.584,29.588-5.584c21.617,0,28.128,4.274,29.617,5.584
	c0.717,0.632,2.383,2.117,2.383,10.416c0,9.24-0.853,10.794-1.117,11.054c-0.226,0.201-5.422,4.946-30.883,4.946
	c-25.451,0-30.647-4.745-30.854-4.946C272.081,213.458,271.208,211.904,271.208,202.664z M132.026,98.076
	c5.74-14.451,14.279-27.05,25.382-37.466c10.064-9.437,22.49-17.344,36.921-23.49c30.657-13.05,64.079-15.79,86.722-15.79
	c7.343,0,14.01,0.279,19.931,0.716c-1.392,2.706-2.471,5.27-3.313,7.613c-4.216,11.809-3.617,21.044-3.324,23.593l1.873,19.623
	l19.657-0.672c0.94,0.01,9.813,0.172,19.843,3.907c12.098,4.51,20.245,11.936,24.922,22.721c3.441,7.926,5.549,17.976,6.265,29.676
	l-7.579-11.818l-8.078-12.573l-14.559,3.274c-0.451,0.103-45.765,10.142-92.147,10.142c-46.289,0-89.897-10.01-90.318-10.103
	l-15.657-3.657l-7.828,14.04l-5.554,9.955C126.458,116.346,128.752,106.336,132.026,98.076z M149.369,128.203
	c0,0,45.672,10.662,95.172,10.662c49.49,0,96.834-10.662,96.834-10.662l13.813,21.539c3.687,13.045,5.578,27.03,5.578,41.74
	c0,0.172-0.02,0.344-0.02,0.516h-5.137c-3.107-15.422-15.078-26.672-52.412-26.672c-37.313,0-49.289,11.25-52.393,26.672h-12.539
	c-3.103-15.422-15.078-26.672-52.397-26.672c-37.313,0-49.299,11.25-52.396,26.672h-5.147c0-0.172-0.01-0.344-0.01-0.516
	c0-10.681,0.99-20.985,2.946-30.818L149.369,128.203z M244.541,363.105c8.476,0,17.819-2.176,27.521-6.176l-6.191,9.52
	c-0.5,0.764-0.902,1.578-1.191,2.451c-1.638,4.922-3.157,9.705-4.584,14.361c-5.009,0.48-10.186,0.736-15.554,0.736
	c-54.235,0-75.029-24.873-82.063-37.393c0.456-0.734,0.892-1.48,1.284-2.254c0.387-0.766,0.671-1.383,0.818-1.766l1.779-3.932
	l0.035-4.52l0.093-12.324C192.168,347.213,221.526,363.105,244.541,363.105z M341.345,458.654c-5.872,0-10.676-4.783-10.676-10.656
	c0-5.883,4.804-10.676,10.676-10.676c5.893,0,10.668,4.793,10.668,10.676C352.013,453.871,347.237,458.654,341.345,458.654z
	 M319.61,484.713c1.686-3.42,3.078-6.842,4.205-9.971c5.04,3.314,11.06,5.256,17.529,5.256c9.451,0,17.971-4.127,23.824-10.676
	h27.02c5.854,6.549,14.373,10.676,23.824,10.676c6.471,0,12.5-1.941,17.529-5.256c1.146,3.129,2.539,6.551,4.225,9.971
	c1.06,2.139,2.139,4.129,3.246,5.932H316.346C317.453,488.842,318.552,486.852,319.61,484.713z M416.013,458.654
	c-5.893,0-10.667-4.783-10.667-10.656c0-5.883,4.774-10.676,10.667-10.676c5.872,0,10.656,4.793,10.656,10.676
	C426.669,453.871,421.885,458.654,416.013,458.654z M21.35,490.645v-48.773c0-15.893,10.162-29.971,25.328-35.158l1.196-0.342
	c19.941-5.373,30.951-10.639,39.809-14.873c3.422-1.646,6.378-3.068,9.26-4.156c15.873-6.051,35.726-14.422,50.206-25.1
	c2.98,4.412,6.917,9.285,12.098,14.178c25.318,23.893,60.358,28.902,85.294,28.902c3.211,0,6.333-0.08,9.373-0.236
	c-10.162,39.529-11.235,67.785-3.28,85.559h-6.093H21.35z M485.336,485.371c-1.638,2.264-4.608,5.273-11.372,5.273
	c-6.196,0-11.902-5.059-16.902-15.039c-4.637-9.254-6.568-18.893-6.578-18.951c-0.373-2.039-1.334-3.812-2.657-5.254
	c0.128-1.127,0.187-2.246,0.187-3.402c0-17.656-14.363-32-32-32c-17.638,0-32,14.344-32,32h-10.667c0-17.656-14.362-32-32.001-32
	c-17.646,0-31.999,14.344-31.999,32c0,1.156,0.059,2.295,0.187,3.422c-1.314,1.422-2.266,3.195-2.657,5.234
	c-1.373,7.188-9.402,33.99-23.48,33.99c-6.765,0-9.726-3.01-11.363-5.273c-2.94-4.068-6.21-12.736-5.137-30.941
	c1.146-19.549,7.059-45.617,17.607-77.5l9.294-14.275h11.138l4.539,4.529l-0.127,27.441c-0.021,2.824,1.107,5.559,3.107,7.559
	s4.716,3.139,7.559,3.139h106.657c2.844,0,5.549-1.129,7.549-3.129c2-2.01,3.128-4.715,3.128-7.539l-0.039-27.549l4.46-4.451h13.001
	l18.607,15.814c10.216,31.186,15.961,56.725,17.089,75.961C491.542,472.635,488.268,481.303,485.336,485.371z"/>
</svg>
