<?xml version="1.0" encoding="utf-8"?>
<!-- Generator: Adobe Illustrator 16.0.0, SVG Export Plug-In . SVG Version: 6.00 Build 0)  -->
<!DOCTYPE svg PUBLIC "-//W3C//DTD SVG 1.1//EN" "http://www.w3.org/Graphics/SVG/1.1/DTD/svg11.dtd">
<svg version="1.1" id="Layer_1" xmlns="http://www.w3.org/2000/svg" xmlns:xlink="http://www.w3.org/1999/xlink" x="0px" y="0px"
	 width="512px" height="512px" viewBox="0 0 512 512" enable-background="new 0 0 512 512" xml:space="preserve">
<g id="game_app">
	<path d="M421.339,170.664v-42.667c0-5.887-4.784-10.661-10.696-10.661V42.664c0-23.56-19.088-42.662-42.646-42.662H133.333
		c-23.578,0-42.672,19.103-42.672,42.662v426.678c0,23.559,19.094,42.656,42.672,42.656h234.663
		c23.559,0,42.646-19.098,42.646-42.656V255.998c5.912,0,10.696-4.774,10.696-10.662v-42.672c0-5.892-4.784-10.666-10.696-10.666
		v-10.662C416.555,181.336,421.339,176.557,421.339,170.664z M133.333,21.335h234.663c11.744,0,21.343,9.574,21.343,21.329v21.338
		H112.005V42.664C112.005,30.909,121.568,21.335,133.333,21.335z M389.339,85.336v341.318H112.005V85.336H389.339z M367.996,490.645
		H133.333c-11.765,0-21.328-9.559-21.328-21.303v-21.344h277.334v21.344C389.339,481.086,379.74,490.645,367.996,490.645z"/>
	<path d="M325.339,458.654H176.005c-5.907,0-10.672,4.775-10.672,10.688c0,5.871,4.765,10.656,10.672,10.656h149.334
		c5.872,0,10.656-4.785,10.656-10.656C335.995,463.43,331.211,458.654,325.339,458.654z"/>
	<path d="M325.339,53.335c5.872,0,10.656-4.779,10.656-10.671c0-5.888-4.784-10.662-10.656-10.662
		c-5.912,0-10.687,4.774-10.687,10.662C314.652,48.556,319.427,53.335,325.339,53.335z"/>
	<path d="M176.005,53.335h117.333c5.873,0,10.657-4.779,10.657-10.671c0-5.888-4.784-10.662-10.657-10.662H176.005
		c-5.907,0-10.672,4.774-10.672,10.662C165.333,48.556,170.098,53.335,176.005,53.335z"/>
	<path d="M186.662,373.342h127.991c29.402,0,53.344-23.941,53.344-53.344v-128c0-29.402-23.941-53.334-53.344-53.334H186.662
		c-29.407,0-53.329,23.932-53.329,53.334v128C133.333,349.4,157.255,373.342,186.662,373.342z M154.662,191.998
		c0-17.647,14.358-32.001,32-32.001h127.991c17.656,0,32,14.354,32,32.001v128c0,17.656-14.344,32-32,32H186.662
		c-17.642,0-32-14.344-32-32V191.998z"/>
	<path d="M254.721,330.654c19.932,0,38.677-7.754,52.805-21.863c4.872-4.871,9.029-10.391,12.372-16.352l5.216-9.314l-48.529-27.127
		l48.529-27.123l-5.216-9.313c-3.343-5.976-7.5-11.485-12.372-16.358c-14.128-14.103-32.873-21.867-52.805-21.867
		c-19.937,0-38.687,7.765-52.794,21.867c-14.113,14.099-21.863,32.849-21.863,52.795c0,19.941,7.75,38.686,21.863,52.793
		C216.034,322.9,234.784,330.654,254.721,330.654z M217.005,218.287c10.073-10.079,23.466-15.623,37.716-15.623
		c14.245,0,27.647,5.544,37.706,15.623c0.941,0.937,1.843,1.906,2.696,2.906l-62.275,34.805l62.275,34.812
		c-0.854,1-1.755,1.971-2.696,2.902c-10.059,10.068-23.461,15.629-37.706,15.629c-14.25,0-27.643-5.561-37.716-15.629
		c-10.063-10.078-15.627-23.471-15.627-37.715C201.377,241.758,206.941,228.355,217.005,218.287z"/>
</g>
</svg>
