<?xml version="1.0" encoding="utf-8"?>
<!-- Generator: Adobe Illustrator 16.0.0, SVG Export Plug-In . SVG Version: 6.00 Build 0)  -->
<!DOCTYPE svg PUBLIC "-//W3C//DTD SVG 1.1//EN" "http://www.w3.org/Graphics/SVG/1.1/DTD/svg11.dtd">
<svg version="1.1" id="Layer_1" xmlns="http://www.w3.org/2000/svg" xmlns:xlink="http://www.w3.org/1999/xlink" x="0px" y="0px"
	 width="512px" height="512px" viewBox="0 0 512 512" enable-background="new 0 0 512 512" xml:space="preserve">
<g id="game_cartridge">
	<path fill="#080808" d="M266.67,96.336h-64.006V74.664c0-5.893-4.77-10.662-10.662-10.662H85.34
		c-5.893,0-10.672,4.77-10.672,10.662v21.672h-64c-5.892,0-10.662,4.774-10.662,10.666v42.334v256.318v31.688
		c0,5.871,4.77,10.656,10.662,10.656H266.67c5.893,0,10.676-4.785,10.676-10.656v-31.688V149.336v-42.334
		C277.346,101.11,272.562,96.336,266.67,96.336z M96.002,85.336h85.338v10.666H96.002V85.336z M21.34,117.664h234.662v277.334H21.34
		V117.664z M21.34,426.654v-10.312h234.662v10.312H21.34z"/>
	<path fill="#080808" d="M501.336,191.998h-21.342v-10.662c0-5.893-4.775-10.672-10.648-10.672h-160
		c-5.912,0-10.686,4.779-10.686,10.672v256.006c0,5.871,4.773,10.656,10.686,10.656h160c5.873,0,10.648-4.785,10.648-10.656v-10.688
		h21.342c5.883,0,10.658-4.764,10.658-10.656V202.664C511.994,196.772,507.219,191.998,501.336,191.998z M479.994,298.654h10.656
		v21.344h-10.656V298.654z M479.994,277.34v-21.342h10.656v21.342H479.994z M479.994,341.34h10.656v21.314h-10.656V341.34z
		 M490.65,213.336v21.328h-10.656v-21.328H490.65z M458.65,426.654h-21.305c0-5.883-4.783-10.656-10.695-10.656h-74.646
		c-5.893,0-10.658,4.773-10.658,10.656h-21.344V191.998h21.344c0,5.892,4.766,10.666,10.658,10.666h74.646
		c5.912,0,10.695-4.774,10.695-10.666h21.305v10.666v213.334V426.654z M479.994,405.342v-21.344h10.656v21.344H479.994z"/>
	<path fill="#080808" d="M394.189,255.998c-29.412,0-53.334,23.922-53.334,53.344c0,29.4,23.922,53.312,53.334,53.312
		c29.402,0,53.344-23.912,53.344-53.312C447.533,279.92,423.592,255.998,394.189,255.998z M394.189,341.34
		c-17.646,0-32-14.371-32-31.998c0-17.658,14.354-32.002,32-32.002c17.656,0,32,14.344,32,32.002
		C426.189,326.969,411.846,341.34,394.189,341.34z"/>
	<path fill="#080808" d="M394.66,287.998c-5.883,0-10.656,4.783-10.656,10.656v21.344c0,5.893,4.773,10.656,10.656,10.656
		c5.902,0,10.686-4.764,10.686-10.656v-21.344C405.346,292.781,400.562,287.998,394.66,287.998z"/>
	<path fill="#080808" d="M137.188,170.997c-47.044,0-85.324,38.285-85.324,85.334c0,47.06,38.279,85.323,85.324,85.323
		c47.054,0,85.338-38.264,85.338-85.323C222.527,209.282,184.243,170.997,137.188,170.997z M137.188,320.342
		c-35.285,0-63.996-28.717-63.996-64.011c0-35.284,28.711-63.995,63.996-63.995c35.29,0,64,28.711,64,63.995
		C201.189,291.625,172.478,320.342,137.188,320.342z"/>
	<path fill="#080808" d="M170.669,245.336h-64c-5.892,0-10.666,4.77-10.666,10.662s4.774,10.666,10.666,10.666h64
		c5.887,0,10.671-4.773,10.671-10.666S176.556,245.336,170.669,245.336z"/>
</g>
</svg>
