<?xml version="1.0" encoding="utf-8"?>
<!-- Generator: Adobe Illustrator 16.0.0, SVG Export Plug-In . SVG Version: 6.00 Build 0)  -->
<!DOCTYPE svg PUBLIC "-//W3C//DTD SVG 1.1//EN" "http://www.w3.org/Graphics/SVG/1.1/DTD/svg11.dtd">
<svg version="1.1" id="Layer_1" xmlns="http://www.w3.org/2000/svg" xmlns:xlink="http://www.w3.org/1999/xlink" x="0px" y="0px"
	 width="512px" height="512px" viewBox="0 0 512 512" enable-background="new 0 0 512 512" xml:space="preserve">
<g id="gamepad_playstation">
	<path fill="#080808" d="M248.451,259.13c-4.157,4.162-4.157,10.922,0,15.088c4.171,4.158,10.921,4.158,15.093,0
		c4.172-4.166,4.172-10.926,0-15.088C259.372,254.964,252.623,254.964,248.451,259.13z"/>
	<path fill="#080808" d="M412.883,178.208c4.157-4.166,4.157-10.916,0-15.088c-4.167-4.162-10.921-4.162-15.089,0
		c-4.176,4.172-4.176,10.922,0,15.088C401.962,182.38,408.716,182.38,412.883,178.208z"/>
	<path fill="#080808" d="M412.883,220.88c4.157-4.167,4.157-10.922,0-15.088c-4.167-4.162-10.921-4.162-15.089,0
		c-4.176,4.166-4.176,10.921,0,15.088C401.962,225.042,408.716,225.042,412.883,220.88z"/>
	<path fill="#080808" d="M419.118,199.542c4.177,4.166,10.922,4.166,15.098,0c4.167-4.162,4.167-10.922,0-15.084
		c-4.176-4.166-10.921-4.166-15.098,0C414.962,188.63,414.962,195.38,419.118,199.542z"/>
	<path fill="#080808" d="M391.54,184.458c-4.147-4.166-10.922-4.166-15.078,0c-4.168,4.172-4.168,10.922,0,15.084
		c4.156,4.166,10.931,4.166,15.078,0C395.716,195.38,395.716,188.62,391.54,184.458z"/>
	<path fill="#080808" d="M511.54,309.688c-2.48-42.432-15.156-98.23-37.656-165.843c-0.471-1.422-1.236-2.726-2.246-3.834
		L434.54,99.468c-2.01-2.211-4.873-3.471-7.873-3.471h-42.666c-1.647,0-3.285,0.393-4.756,1.123l-19.088,9.524H151.843
		l-19.078-9.524c-1.48-0.73-3.108-1.123-4.765-1.123H85.328c-2.985,0-5.843,1.26-7.858,3.471l-37.108,40.544
		c-1,1.108-1.765,2.412-2.25,3.834c-22.5,67.612-35.157,123.411-37.657,165.843c-2.142,36.746,3.329,64.5,16.265,82.432
		c11.265,15.627,28.113,23.883,48.701,23.883c14.956,0,28.535-6.814,40.363-20.285c8.593-9.783,16.265-23.156,22.843-39.793
		c6.451-16.334,10.559-32.52,12.873-43.178c9.765,10.971,24,17.922,39.828,17.922c17.422,0,32.907-8.383,42.643-21.322h64.059
		c9.755,12.939,25.235,21.322,42.638,21.322c15.834,0,30.068-6.951,39.844-17.922c2.303,10.658,6.411,26.844,12.862,43.178
		c6.579,16.637,14.265,30.01,22.843,39.793c11.824,13.471,25.402,20.285,40.373,20.285c20.598,0,37.422-8.256,48.687-23.883
		C508.227,374.188,513.696,346.435,511.54,309.688z M192,127.982h128v32.02H192V127.982z M34.034,379.659
		c-2.093-2.912-3.921-6.225-5.5-9.912c13.451,8.52,31.721,16.785,53.765,18.863c-5.079,3.766-10.687,6.059-16.878,6.059
		C51.578,394.669,41.313,389.747,34.034,379.659z M181.328,309.347c-17.642,0-32-14.373-32-32.002c0-17.656,14.358-32.004,32-32.004
		c17.657,0,32,14.348,32,32.004C213.328,294.974,198.985,309.347,181.328,309.347z M330.667,309.347c-17.637,0-32-14.373-32-32.002
		c0-17.656,14.363-32.004,32-32.004c17.646,0,32,14.348,32,32.004C362.667,294.974,348.313,309.347,330.667,309.347z
		 M389.216,297.052c-0.578-3.785-3.107-6.834-6.471-8.236c0.814-3.686,1.256-7.529,1.256-11.471
		c0-29.421-23.922-53.342-53.334-53.342c-29.402,0-53.324,23.921-53.324,53.342c0,3.639,0.363,7.217,1.06,10.658h-44.809
		c0.701-3.441,1.079-7.02,1.079-10.658c0-29.421-23.922-53.342-53.344-53.342c-29.407,0-53.328,23.921-53.328,53.342
		c0,3.941,0.441,7.785,1.25,11.471c-3.344,1.402-5.873,4.451-6.451,8.236c-0.049,0.264-4.113,26.078-14.128,51.324
		c-2.5,6.283-5.529,12.939-9.073,19.156c-19.471,1.402-38.534-3.314-56.765-14.107c-10.034-5.941-17.314-12.334-21.113-16.02
		c-0.529-8.01-0.529-16.844,0.035-26.461c2.358-40.129,14.436-93.349,35.887-158.212l32.393-35.396h35.451l19.078,9.529
		c1.485,0.735,3.123,1.117,4.765,1.117h21.343v42.687c0,2.828,1.127,5.539,3.127,7.539c2,2.005,4.701,3.123,7.529,3.123h149.339
		c5.893,0,10.676-4.77,10.676-10.662v-42.687h21.324c1.656,0,3.284-0.382,4.765-1.117l19.079-9.529h35.451l32.392,35.396
		c21.471,64.863,33.53,118.083,35.893,158.212c0.549,9.342,0.578,17.932,0.078,25.764c-8.029,7.98-37.059,33.451-77.892,30.883
		c-3.56-6.244-6.589-12.902-9.089-19.215C393.314,323.13,389.245,297.315,389.216,297.052z M446.589,394.669
		c-6.235,0-11.873-2.322-16.971-6.117c22.305-2.236,40.687-10.775,54.128-19.422c-1.638,3.951-3.56,7.461-5.765,10.529
		C470.687,389.747,460.413,394.669,446.589,394.669z"/>
	<path fill="#080808" d="M128,181.331h-10.672v-10.662c0-5.892-4.765-10.667-10.657-10.667c-5.887,0-10.671,4.775-10.671,10.667
		v10.662H85.328c-5.888,0-10.672,4.784-10.672,10.672c0,5.892,4.784,10.666,10.672,10.666H96v10.662
		c0,5.897,4.784,10.672,10.671,10.672c5.893,0,10.657-4.774,10.657-10.672v-10.662H128c5.892,0,10.671-4.774,10.671-10.666
		C138.671,186.115,133.892,181.331,128,181.331z"/>
</g>
</svg>
