<?xml version="1.0" encoding="utf-8"?>
<!-- Generator: Adobe Illustrator 16.0.0, SVG Export Plug-In . SVG Version: 6.00 Build 0)  -->
<!DOCTYPE svg PUBLIC "-//W3C//DTD SVG 1.1//EN" "http://www.w3.org/Graphics/SVG/1.1/DTD/svg11.dtd">
<svg version="1.1" id="Layer_1" xmlns="http://www.w3.org/2000/svg" xmlns:xlink="http://www.w3.org/1999/xlink" x="0px" y="0px"
	 width="512px" height="512px" viewBox="0 0 512 512" enable-background="new 0 0 512 512" xml:space="preserve">
<g id="game_steering_wheel">
	<path fill="#080808" d="M263.547,195.125c-4.168-4.167-10.917-4.167-15.079,0c-4.172,4.162-4.172,10.922,0,15.083
		c4.162,4.167,10.911,4.167,15.079,0C267.713,206.047,267.713,199.287,263.547,195.125z"/>
	<path fill="#080808" d="M309.352,202.664c0-29.406-23.941-53.328-53.344-53.328c-29.407,0-53.338,23.922-53.338,53.328
		c0,29.412,23.932,53.334,53.338,53.334C285.41,255.998,309.352,232.076,309.352,202.664z M224.007,202.664
		c0-17.642,14.353-32,32-32c17.637,0,32,14.358,32,32c0,17.647-14.363,32-32,32C238.36,234.664,224.007,220.312,224.007,202.664z"/>
	<path fill="#080808" d="M160.007,159.997c-17.647,0-32,14.363-32,32.001c0,17.646,14.353,32,32,32c17.642,0,32-14.354,32-32
		C192.007,174.36,177.649,159.997,160.007,159.997z M160.007,202.664c-5.883,0-10.662-4.784-10.662-10.666
		c0-5.883,4.779-10.662,10.662-10.662c5.882,0,10.667,4.779,10.667,10.662C170.674,197.88,165.889,202.664,160.007,202.664z"/>
	<path fill="#080808" d="M352.008,223.998c17.637,0,32-14.354,32-32c0-17.638-14.363-32.001-32-32.001
		c-17.656,0-32,14.363-32,32.001C320.008,209.645,334.352,223.998,352.008,223.998z M352.008,181.336
		c5.873,0,10.656,4.779,10.656,10.662c0,5.882-4.783,10.666-10.656,10.666c-5.883,0-10.658-4.784-10.658-10.666
		C341.35,186.115,346.125,181.336,352.008,181.336z"/>
	<path fill="#080808" d="M266.674,277.32h-21.333c-5.887,0-10.671,4.785-10.671,10.678s4.784,10.656,10.671,10.656h21.333
		c5.893,0,10.676-4.764,10.676-10.656S272.566,277.32,266.674,277.32z"/>
	<path fill="#080808" d="M426.625,468.537c0-0.078,0-0.137-0.01-0.215c-0.02-0.188-0.049-0.373-0.078-0.559
		c0-0.08-0.02-0.178-0.029-0.256c-0.039-0.186-0.068-0.354-0.098-0.529c-0.029-0.078-0.049-0.156-0.059-0.256
		c-0.07-0.186-0.119-0.381-0.178-0.568c-0.01-0.068-0.029-0.117-0.049-0.176c0,0,0-0.02-0.01-0.029l-21.334-64
		c-0.871-2.627-2.744-4.814-5.195-6.098c-1.039-0.529-16.068-8.119-48.049-14.354c17.373-9.305,33.451-21.207,47.785-35.529
		c38.273-38.285,59.332-89.172,59.332-143.305c0-54.132-21.059-105.024-59.332-143.304C361.037,21.08,310.125,0.002,256.007,0.002
		c-54.132,0-105.029,21.078-143.304,59.358c-38.28,38.279-59.358,89.172-59.358,143.304c0,54.133,21.078,105.02,59.358,143.305
		c14.343,14.342,30.471,26.273,47.868,35.588c-31.907,6.205-47.044,13.734-48.093,14.266c-2.485,1.283-4.377,3.469-5.26,6.127
		l-21.333,64c0,0,0,0.01-0.01,0.01c-0.015,0.049-0.024,0.098-0.039,0.146c-0.059,0.207-0.123,0.402-0.172,0.607
		c-0.02,0.09-0.039,0.168-0.059,0.266c-0.039,0.176-0.073,0.344-0.103,0.52c-0.015,0.078-0.034,0.166-0.049,0.266
		c-0.025,0.186-0.044,0.352-0.064,0.549c-0.005,0.068-0.015,0.146-0.02,0.225c-0.02,0.256-0.034,0.52-0.034,0.775v0.01v32
		c0,3.098,1.338,6.029,3.671,8.049c2.329,2.029,5.421,2.951,8.485,2.51c0.632-0.088,64.486-8.922,158.834-8.922
		c94.338,0,157.555,8.834,158.182,8.922c0.5,0.078,1,0.117,1.5,0.117c2.539,0,5.029-0.922,6.98-2.617
		c2.324-2.029,3.666-4.961,3.666-8.059v-32l0,0C426.654,469.057,426.654,468.793,426.625,468.537z M203.321,398.43
		c16.966,4.539,34.647,6.893,52.687,6.893c18.264,0,36.157-2.402,53.323-7.061v3.158c-4.479,4.273-18.891,14.578-53.333,14.578
		c-34.412,0-48.397-10.266-52.677-14.471V398.43z M74.673,202.664c0-48.432,18.868-93.971,53.118-128.216
		c34.245-34.25,79.779-53.113,128.216-53.113c48.432,0,93.961,18.863,128.215,53.113c34.246,34.245,53.129,79.784,53.129,128.216
		c0,48.437-18.883,93.971-53.129,128.227c-34.254,34.244-79.783,53.107-128.215,53.107c-48.437,0-93.971-18.863-128.216-53.107
		C93.542,296.635,74.673,251.101,74.673,202.664z M125.953,413.193c4.74-1.902,13.976-5.186,28.04-8.432
		c7.392-1.705,16.721-3.549,27.99-5.176v5.736c0,1.91,0.51,3.686,1.382,5.254l0,0c1.549,2.736,16.721,26.746,72.633,26.746
		c55.754,0,71.54-23.824,73.167-26.551l0,0c0.932-1.588,1.5-3.449,1.5-5.449v-5.688c30.227,4.422,48.146,10.637,55.373,13.549
		l14.51,43.539c-25.029-2.695-76.266-7.088-144.221-7.088c-67.333,0-119.52,4.451-144.898,7.139L125.953,413.193z M256.326,481.635
		c-71.873,0-126.491,5.059-149.653,7.658v-10.529c20.897-2.412,75.976-7.805,149.653-7.805c73.584,0,128.24,5.383,149.006,7.783
		v10.502C382.469,486.645,328.959,481.635,256.326,481.635z"/>
	<path fill="#080808" d="M376.693,323.342c32.217-32.236,49.961-75.094,49.961-120.678c0-45.588-17.744-88.446-49.961-120.677
		c-32.254-32.235-75.098-49.985-120.686-49.985s-88.446,17.75-120.677,49.985c-32.235,32.23-49.985,75.089-49.985,120.677
		c0,45.584,17.75,88.441,49.985,120.678c32.23,32.234,75.088,49.98,120.677,49.98S344.439,355.576,376.693,323.342z
		 M234.419,350.449c-3.309-63.578-38.584-97.349-68.412-114.638c-23.358-13.554-46.559-19.068-58.858-21.206
		c-0.313-3.951-0.476-7.937-0.476-11.941c0-12.603,1.554-24.961,4.569-36.867c12.588-8.133,65.118-38.618,144.765-38.618
		c47.5,0,85.088,11.015,108.264,20.26c18.609,7.422,31.158,14.912,36.51,18.363c3,11.906,4.57,24.27,4.57,36.862
		c0,4.005-0.178,7.99-0.49,11.941c-12.295,2.138-35.5,7.652-58.854,21.206c-29.834,17.289-65.098,51.06-68.412,114.638
		c-7.088,1.02-14.299,1.549-21.588,1.549C248.718,351.998,241.507,351.469,234.419,350.449z M212.689,345.635
		c-3.157-0.951-6.285-2.01-9.368-3.166v-35.422C208.301,318.703,211.429,331.576,212.689,345.635z M309.33,305.586v36.646
		c-3.293,1.246-6.637,2.393-10.01,3.402C300.635,330.979,303.979,317.625,309.33,305.586z M361.596,308.242
		c-9.373,9.383-19.766,17.344-30.932,23.805v-57.805c7.246-7.383,15.717-13.932,25.422-19.617
		c16.766-9.848,33.766-14.961,45.275-17.549C395.096,263.816,381.508,288.361,361.596,308.242z M150.414,97.071
		c28.201-28.201,65.701-43.736,105.593-43.736c39.893,0,77.393,15.535,105.588,43.736c11.334,11.328,20.607,24.161,27.656,38.039
		c-4.812-2.313-10.244-4.745-16.244-7.157c-25.068-10.088-65.707-22.107-117-22.107c-51.299,0-91.937,12.02-116.99,22.107
		c-6.015,2.412-11.446,4.844-16.265,7.157C129.806,121.232,139.085,108.399,150.414,97.071z M110.639,237.052
		c11.338,2.534,28.01,7.549,44.667,17.211c10.25,5.937,19.132,12.833,26.677,20.638v57.52
		c-11.407-6.529-22.024-14.609-31.569-24.178C130.502,288.34,116.914,263.801,110.639,237.052z"/>
</g>
</svg>
