<?xml version="1.0" encoding="utf-8"?>
<!-- Generator: Adobe Illustrator 16.0.0, SVG Export Plug-In . SVG Version: 6.00 Build 0)  -->
<!DOCTYPE svg PUBLIC "-//W3C//DTD SVG 1.1//EN" "http://www.w3.org/Graphics/SVG/1.1/DTD/svg11.dtd">
<svg version="1.1" id="Layer_1" xmlns="http://www.w3.org/2000/svg" xmlns:xlink="http://www.w3.org/1999/xlink" x="0px" y="0px"
	 width="512px" height="512px" viewBox="0 0 512 512" enable-background="new 0 0 512 512" xml:space="preserve">
<g id="gameboy">
	<path d="M170.667,426.654h-21.329c-5.892,0-10.671,4.775-10.671,10.688c0,5.871,4.779,10.656,10.671,10.656h21.329
		c5.887,0,10.671-4.785,10.671-10.656C181.338,431.43,176.554,426.654,170.667,426.654z"/>
	<path d="M234.662,426.654h-21.329c-5.887,0-10.671,4.775-10.671,10.688c0,5.871,4.785,10.656,10.671,10.656h21.329
		c5.892,0,10.671-4.785,10.671-10.656C245.333,431.43,240.554,426.654,234.662,426.654z"/>
	<path d="M138.667,394.654v-21.312H160v-64h-21.333v-21.344h-64v21.344H53.338v64h21.328v21.312H138.667z M74.666,330.654H96
		v-21.312h21.338v21.312h21.329v21.344h-21.329v21.344H96v-21.344H74.666V330.654z"/>
	<path d="M234.662,319.998c-17.672,0-32,14.324-32,32c0,17.666,14.329,32,32,32c17.671,0,32.005-14.334,32.005-32
		C266.667,334.322,252.333,319.998,234.662,319.998z M234.662,362.654c-5.883,0-10.662-4.783-10.662-10.656
		s4.779-10.658,10.662-10.658c5.882,0,10.671,4.785,10.671,10.658S240.544,362.654,234.662,362.654z"/>
	<path d="M490.647,265.443h-21.304c0-5.893-4.784-10.666-10.696-10.666h-85.304V10.664c0-5.888-4.784-10.662-10.687-10.662H21.338
		c-5.888,0-10.672,4.774-10.672,10.662v437.334c0,1.117,0.182,2.264,0.539,3.344c0.579,1.744,6.446,17.666,32.794,32.588
		c32.853,18.627,82.647,28.068,148,28.068c47.515,0,86.794-5,117.344-14.883v4.227c0,5.871,4.765,10.656,10.656,10.656h170.647
		c5.912,0,10.687-4.785,10.687-10.656V276.105C501.334,270.213,496.56,265.443,490.647,265.443z M458.647,286.781h21.344v54.559
		H330.657v-65.234h117.344C448.001,281.998,452.775,286.781,458.647,286.781z M330.657,362.654h149.334v85.344H330.657V362.654z
		 M192,490.645c-40.893,0-97.422-4.088-134.545-23.646c-17.25-9.098-23.607-18.156-25.451-21.383V21.335h319.997v233.442h-27.069
		c3.412-1.789,5.726-5.344,5.726-9.441V53.335c0-5.887-4.765-10.671-10.657-10.671H64c-5.887,0-10.662,4.784-10.662,10.671v192.001
		c0,5.888,4.774,10.662,10.662,10.662h251.05c-3.393,1.779-5.706,5.342-5.706,9.445v13.711c-3.344-1.176-6.941-1.814-10.687-1.814
		c-17.657,0-31.99,14.314-31.99,32.002c0,17.656,14.333,31.998,31.99,31.998c3.745,0,7.343-0.656,10.687-1.842v135.029
		C273.402,487.645,226.976,490.645,192,490.645z M309.344,64.002v170.662H74.666V64.002H309.344z M309.344,309.342
		c0,5.871-4.794,10.656-10.687,10.656c-5.873,0-10.657-4.785-10.657-10.656c0-5.893,4.784-10.688,10.657-10.688
		C304.55,298.654,309.344,303.449,309.344,309.342z M330.657,490.645v-21.303h149.334v21.303H330.657z"/>
</g>
</svg>
