<?xml version="1.0" encoding="UTF-8" standalone="no"?>
<svg width="512px" height="448px" viewBox="0 0 512 448" version="1.1" xmlns="http://www.w3.org/2000/svg" xmlns:xlink="http://www.w3.org/1999/xlink">
    <!-- Generator: Sketch 39.1 (31720) - http://www.bohemiancoding.com/sketch -->
    <title>game-store</title>
    <desc>Created with Sketch.</desc>
    <defs></defs>
    <g id="Page-1" stroke="none" stroke-width="1" fill="none" fill-rule="evenodd">
        <g id="game-store" fill="#FFFFFF">
            <g id="game_store">
                <path d="M501.326,0.002 L10.678,0.002 C4.786,0.002 0.006,4.776 0.006,10.664 L0.006,351.998 C0.006,357.891 4.786,362.654 10.678,362.654 L187.708,362.654 L174.923,426.654 L170.673,426.654 C164.786,426.654 160.002,431.429 160.002,437.342 C160.002,443.213 164.786,447.998 170.673,447.998 L341.325,447.998 C347.218,447.998 352.003,443.213 352.003,437.342 C352.003,431.43 347.218,426.654 341.325,426.654 L337.061,426.654 L324.276,362.654 L501.325,362.654 C507.218,362.654 511.993,357.89 511.993,351.998 L511.993,10.664 C511.994,4.776 507.219,0.002 501.326,0.002 L501.326,0.002 Z M196.689,426.654 L209.439,362.742 L302.531,362.713 L315.316,426.654 L196.689,426.654 L196.689,426.654 Z M490.67,21.335 L490.67,298.654 L21.335,298.654 L21.335,21.335 L490.67,21.335 L490.67,21.335 Z M256.002,341.342 L21.335,341.342 L21.335,319.998 L256.002,319.998 L490.67,319.998 L490.67,341.342 L256.002,341.342 L256.002,341.342 Z" id="Shape"></path>
                <path d="M266.67,330.654 C266.67,324.781 261.891,319.998 256.003,319.998 C250.111,319.998 245.332,324.781 245.332,330.654 C245.332,336.556 250.111,341.342 256.003,341.342 C261.891,341.342 266.67,336.557 266.67,330.654 L266.67,330.654 Z" id="Shape"></path>
                <path d="M53.335,234.664 L309.326,234.664 C315.219,234.664 320.002,229.891 320.002,223.998 L320.002,53.336 C320.002,47.448 315.219,42.664 309.326,42.664 L53.335,42.664 C47.442,42.664 42.678,47.448 42.678,53.336 L42.678,223.998 C42.678,229.891 47.443,234.664 53.335,234.664 L53.335,234.664 Z M64.002,64.002 L192.002,64.002 L298.67,64.002 L298.67,213.336 L192.002,213.336 L64.002,213.336 L64.002,64.002 L64.002,64.002 Z" id="Shape"></path>
                <path d="M117.331,138.664 C117.331,158.61 125.096,177.36 139.208,191.458 C153.316,205.566 172.066,213.336 192.002,213.336 C211.938,213.336 230.689,205.566 244.796,191.458 C249.674,186.586 253.845,181.086 257.189,175.101 L262.41,165.788 L213.86,138.665 L262.41,111.538 L257.189,102.228 C253.845,96.252 249.674,90.752 244.796,85.866 C230.689,71.767 211.939,64.003 192.002,64.003 C172.065,64.003 153.315,71.768 139.208,85.866 C125.095,99.968 117.331,118.718 117.331,138.664 L117.331,138.664 Z M192.002,85.336 C206.252,85.336 219.644,90.885 229.718,100.953 C230.659,101.89 231.546,102.86 232.424,103.86 L170.144,138.664 L232.409,173.468 C231.546,174.468 230.659,175.434 229.718,176.375 C219.644,186.453 206.252,191.998 192.002,191.998 C177.752,191.998 164.359,186.453 154.286,176.375 C144.223,166.302 138.673,152.914 138.673,138.664 C138.673,124.419 144.222,111.021 154.286,100.953 C164.36,90.885 177.752,85.336 192.002,85.336 L192.002,85.336 Z" id="Shape"></path>
                <path d="M394.67,144.169 L394.67,191.998 L362.67,191.998 C356.777,191.998 352.004,196.772 352.004,202.664 C352.004,208.552 356.777,213.336 362.67,213.336 L394.67,213.336 L394.67,223.998 C394.67,229.891 399.436,234.664 405.326,234.664 C411.219,234.664 416.004,229.891 416.004,223.998 L416.004,213.336 L429.063,213.336 C441.229,213.336 456.651,210.429 461.063,196.625 C467.7,175.787 440.563,150.797 416.004,133.164 L416.004,85.336 L448.004,85.336 C453.885,85.336 458.67,80.557 458.67,74.664 C458.67,68.771 453.885,64.002 448.004,64.002 L416.004,64.002 L416.004,53.336 C416.004,47.448 411.219,42.664 405.326,42.664 C399.435,42.664 394.67,47.448 394.67,53.336 L394.67,64.002 L381.592,64.002 C369.434,64.002 354.014,66.899 349.612,80.713 C342.963,101.537 370.111,126.537 394.67,144.169 L394.67,144.169 Z M440.748,189.934 C440.062,190.414 437.189,191.998 429.062,191.998 L416.003,191.998 L416.003,160.008 C436.689,176.998 440.826,187.336 440.748,189.934 L440.748,189.934 Z M381.592,85.336 L394.67,85.336 L394.67,117.321 C373.965,100.326 369.846,89.997 369.924,87.399 C370.611,86.914 373.484,85.336 381.592,85.336 L381.592,85.336 Z" id="Shape"></path>
                <path d="M52.865,277.342 L457.494,277.342 C463.375,277.342 468.15,272.557 468.15,266.654 C468.15,260.781 463.375,255.998 457.494,255.998 L52.865,255.998 C46.972,255.998 42.193,260.781 42.193,266.654 C42.193,272.557 46.972,277.342 52.865,277.342 L52.865,277.342 Z" id="Shape"></path>
            </g>
        </g>
    </g>
</svg>