<?xml version="1.0" encoding="utf-8"?>
<!-- Generator: Adobe Illustrator 16.0.0, SVG Export Plug-In . SVG Version: 6.00 Build 0)  -->
<!DOCTYPE svg PUBLIC "-//W3C//DTD SVG 1.1//EN" "http://www.w3.org/Graphics/SVG/1.1/DTD/svg11.dtd">
<svg version="1.1" id="Layer_1" xmlns="http://www.w3.org/2000/svg" xmlns:xlink="http://www.w3.org/1999/xlink" x="0px" y="0px"
	 width="512px" height="512px" viewBox="0 0 512 512" enable-background="new 0 0 512 512" xml:space="preserve">
<g id="game_disk">
	<path fill="#080808" d="M245.33,69.341H10.677c-5.892,0-10.672,4.774-10.672,10.666v31.995v287.981v32
		c0,5.893,4.78,10.676,10.672,10.676H245.33c5.887,0,10.662-4.783,10.662-10.676v-32V112.002V80.007
		C255.992,74.115,251.217,69.341,245.33,69.341z M21.339,133.341h213.319v255.977H21.339V133.341z M234.659,90.669v21.333H21.339
		V90.669H234.659z M21.339,421.317v-10.658h213.319v10.658H21.339z"/>
	<path fill="#080808" d="M510.747,308.376c-4.099-28.061-18.206-53.652-39.687-72.089c-21.295-18.255-48.373-28.299-76.285-28.299
		c-5.666,0-11.421,0.416-17.078,1.239c-31.01,4.525-58.402,20.863-77.137,45.986c-18.717,25.131-26.55,56.033-22.011,87.062
		c4.089,28.049,18.187,53.658,39.687,72.08c21.275,18.264,48.373,28.303,76.275,28.303c5.676,0,11.422-0.412,17.078-1.234
		c31.02-4.539,58.412-20.863,77.127-45.99C507.453,370.315,515.257,339.376,510.747,308.376z M487.492,300.983l-64.568,9.422
		c-0.521-0.98-1.099-1.932-1.727-2.873l39-52.333C473.482,267.601,482.924,283.483,487.492,300.983z M376.423,367.64l-8.726,49.834
		c-7.5-2.197-14.735-5.314-21.51-9.285L376.423,367.64z M396.188,335.876c-0.52,0.078-1.049,0.127-1.568,0.127
		c-5.245,0-9.765-3.941-10.529-9.127c-0.844-5.824,3.186-11.246,9.02-12.109c0.51-0.078,1.049-0.107,1.559-0.107
		c5.255,0,9.766,3.922,10.529,9.127c0.412,2.805-0.294,5.619-2,7.902C401.502,333.983,399.012,335.474,396.188,335.876z
		 M299.658,339.188c-3.706-25.373,2.696-50.656,18.01-71.225c15.333-20.564,37.735-33.922,63.107-37.623
		c4.647-0.682,9.344-1.024,14-1.024c17.05,0,33.727,4.593,48.314,13.137l-38.98,52.333c-3-0.941-6.176-1.471-9.441-1.471
		c-1.549,0-3.107,0.129-4.637,0.344c-17.471,2.559-29.599,18.824-27.049,36.285c0.705,4.842,2.5,9.303,5.107,13.166l-39,52.324
		C313.217,380.63,302.814,360.796,299.658,339.188z M471.619,382.688c-15.323,20.559-37.735,33.922-63.107,37.629
		c-4.638,0.686-9.354,1.029-14,1.029c-1.932,0-3.873-0.08-5.814-0.188l11.256-64.283c8.166-1.373,15.392-5.766,20.353-12.441
		c2.892-3.883,4.833-8.275,5.755-12.922l64.529-9.422C491.354,343.815,484.796,365.003,471.619,382.688z"/>
	<path fill="#080808" d="M128.001,176.002c-47.054,0-85.334,38.275-85.334,85.329c0,47.045,38.28,85.328,85.334,85.328
		c47.049,0,85.328-38.283,85.328-85.328C213.33,214.277,175.05,176.002,128.001,176.002z M128.001,325.315
		c-35.29,0-64-28.686-64-63.984c0-35.289,28.711-64,64-64c35.289,0,63.99,28.711,63.99,64
		C191.992,296.63,163.291,325.315,128.001,325.315z"/>
	<path fill="#080808" d="M159.992,250.669h-63.99c-5.888,0-10.662,4.77-10.662,10.662c0,5.887,4.774,10.662,10.662,10.662h63.99
		c5.892,0,10.676-4.775,10.676-10.662C170.668,255.438,165.883,250.669,159.992,250.669z"/>
</g>
</svg>
