<?xml version="1.0" encoding="utf-8"?>
<!-- Generator: Adobe Illustrator 16.0.0, SVG Export Plug-In . SVG Version: 6.00 Build 0)  -->
<!DOCTYPE svg PUBLIC "-//W3C//DTD SVG 1.1//EN" "http://www.w3.org/Graphics/SVG/1.1/DTD/svg11.dtd">
<svg version="1.1" id="Layer_1" xmlns="http://www.w3.org/2000/svg" xmlns:xlink="http://www.w3.org/1999/xlink" x="0px" y="0px"
	 width="512px" height="512px" viewBox="0 0 512 512" enable-background="new 0 0 512 512" xml:space="preserve">
<path id="hand_casino_chips" d="M450.882,259.014c-3.323-0.264-7.01-0.396-11.039-0.396c-20.382,0-49.579,3.373-87.843,9.5v-20.799
	c0-5.888-4.785-10.662-10.658-10.662h-10.676v-10.671h10.676c5.873,0,10.658-4.775,10.658-10.662v-32
	c0-5.893-4.785-10.667-10.658-10.667h-10.676v-10.672h10.676c5.873,0,10.658-4.774,10.658-10.661v-32
	c0-5.893-4.785-10.667-10.658-10.667H192c-5.893,0-10.657,4.774-10.657,10.667v21.333h-10.671c-5.887,0-10.671,4.774-10.671,10.667
	v32c0,5.887,4.784,10.661,10.671,10.661h10.671v10.672h-10.671c-5.887,0-10.671,4.774-10.671,10.667v24.427
	c-17.843-0.976-35.608-1.946-51.123-2.789c-3.892-0.211-7.642-0.319-11.279-0.319c-80.799,0-97.594,50.437-97.594,50.437v52.234
	C0.033,369.273,92.342,383.971,92.67,384c73.329,14.5,163.452,19.344,163.452,19.344s247.015-97.031,253.485-102.707
	C516.088,294.971,513.245,264.014,450.882,259.014z M330.666,257.99v10.666h-16.932c-3.127-4.143-7.862-7.686-13.146-10.666h19.411
	H330.666z M202.671,129.984h127.995v10.672h-10.657h-0.01H202.671V129.984z M181.342,161.984h10.643H192h117.343v10.672H192h-0.015
	h-10.643V161.984z M202.671,193.984h117.328h0.01h10.657v10.672h-10.667H202.671V193.984z M181.342,225.985H192h117.343v10.671H192
	h-10.657V225.985z M252.701,381.773c-19.064-1.215-94.108-6.5-155.902-18.695L96.406,363l-0.387-0.068
	c-0.177-0.029-18.035-2.902-37.172-8.5c-27.113-7.932-35.437-14.902-37.5-17.09v-45.715c1.593-2.912,5.078-8.314,11.265-13.766
	c6.299-5.549,14.029-10.039,22.985-13.299c11.951-4.367,26.078-6.588,42-6.588c3.279,0,6.687,0.094,10.123,0.285
	c56.25,3.072,141.902,7.73,154.901,8.445c2.657,0.598,9.143,2.188,16.191,4.785c6.932,2.559,11.48,5.029,14.275,6.912
	c-22.216,5.283-89.088,20.176-136.54,20.705c-5.892,0.078-10.613,4.893-10.549,10.795c0.078,5.842,4.843,10.529,10.671,10.529
	c0.049,0,0.079,0,0.127,0c25.25-0.275,58.029-4.275,97.417-11.854c22.912-4.422,41.097-8.736,48.313-10.48l0.05,0.137l17.823-3.137
	c58.599-10.354,96.55-15.146,119.441-15.146c3.461,0,6.608,0.107,9.343,0.332c18.961,1.529,29.451,5.539,34.932,8.688
	C443.402,306.293,329.166,351.715,252.701,381.773z"/>
</svg>
