<?xml version="1.0" encoding="utf-8"?>
<!-- Generator: Adobe Illustrator 16.0.0, SVG Export Plug-In . SVG Version: 6.00 Build 0)  -->
<!DOCTYPE svg PUBLIC "-//W3C//DTD SVG 1.1//EN" "http://www.w3.org/Graphics/SVG/1.1/DTD/svg11.dtd">
<svg version="1.1" id="Layer_1" xmlns="http://www.w3.org/2000/svg" xmlns:xlink="http://www.w3.org/1999/xlink" x="0px" y="0px"
	 width="512px" height="512px" viewBox="0 0 512 512" enable-background="new 0 0 512 512" xml:space="preserve">
<path id="lottery_drum" d="M448.003,447.998h-3.098l-47.688-74.188l69-69c2-2,3.128-4.705,3.128-7.529V129.385
	c0-2.828-1.128-5.539-3.128-7.539L347.503,3.124c-2-2-4.727-3.122-7.55-3.122H172.065c-2.828,0-5.549,1.122-7.549,3.122
	L45.801,121.846c-2,2-3.123,4.711-3.123,7.539v167.896c0,2.824,1.123,5.529,3.123,7.529l69,69l-47.687,74.188h-3.112
	c-17.638,0-31.995,14.344-31.995,32c0,17.646,14.357,32,31.995,32h64c17.657,0,32-14.354,32-32c0-12.912-7.657-24.039-18.672-29.098
	l19.779-30.785l3.407,3.412c2,2.01,4.721,3.127,7.549,3.127h167.888c2.823,0,5.55-1.117,7.55-3.127l3.401-3.412l19.784,30.785
	c-11.02,5.059-18.686,16.186-18.686,29.098c0,17.646,14.353,32,32,32h64c17.646,0,31.99-14.354,31.99-32
	C479.993,462.342,465.649,447.998,448.003,447.998z M213.345,373.342c5.873,0,10.657,4.773,10.657,10.656
	c0,5.873-4.784,10.656-10.657,10.656c-5.892,0-10.671-4.783-10.671-10.656C202.674,378.115,207.453,373.342,213.345,373.342z
	 M256.002,373.342c5.888,0,10.667,4.773,10.667,10.656c0,5.873-4.779,10.656-10.667,10.656c-5.877,0-10.656-4.783-10.656-10.656
	C245.346,378.115,250.125,373.342,256.002,373.342z M298.669,373.342c5.893,0,10.677,4.773,10.677,10.656
	c0,5.873-4.784,10.656-10.677,10.656c-5.873,0-10.667-4.783-10.667-10.656C288.002,378.115,292.796,373.342,298.669,373.342z
	 M288.002,341.34c0,5.873-4.784,10.658-10.657,10.658c-5.892,0-10.676-4.785-10.676-10.658c0-5.891,4.784-10.686,10.676-10.686
	C283.218,330.654,288.002,335.449,288.002,341.34z M234.674,351.998c-5.878,0-10.672-4.785-10.672-10.658
	c0-5.891,4.794-10.686,10.672-10.686c5.887,0,10.672,4.795,10.672,10.686C245.346,347.213,240.561,351.998,234.674,351.998z
	 M277.345,309.342c-8.186,0-15.671,3.088-21.343,8.156c-5.656-5.068-13.142-8.156-21.328-8.156c-0.813,0-1.608,0.029-2.407,0.088
	l23.735-36.932l23.745,36.932C278.953,309.371,278.159,309.342,277.345,309.342z M155.83,309.998
	c-2.093-0.441-4.265-0.656-6.485-0.656c-17.637,0-32,14.342-32,31.998c0,1.814,0.157,3.58,0.456,5.314l-45.623-45.627l121.873-50.48
	L155.83,309.998z M298.247,219.287c0.284-1.951,0.422-3.937,0.422-5.951c0-2.024-0.138-4.01-0.422-5.956l149.756-62.029v135.96
	L298.247,219.287z M277.345,213.336c0,11.755-9.578,21.328-21.343,21.328c-11.75,0-21.328-9.573-21.328-21.328
	c0-11.77,9.578-21.338,21.328-21.338C267.767,191.998,277.345,201.566,277.345,213.336z M290.081,187.679
	c-2.412-3.181-5.236-6.015-8.422-8.416l62.039-149.761l96.147,96.138L290.081,187.679z M261.953,171.096
	c-1.937-0.274-3.922-0.432-5.951-0.432c-2.015,0-4,0.157-5.941,0.432L188.031,21.335h135.971L261.953,171.096z M230.346,179.263
	c-3.172,2.401-6,5.235-8.407,8.416L72.178,125.64l96.138-96.138L230.346,179.263z M213.767,207.38
	c-0.265,1.946-0.422,3.932-0.422,5.956c0,2.015,0.157,4,0.422,5.951L64.002,281.311v-135.96L213.767,207.38z M439.846,301.027
	l-45.628,45.627c0.295-1.734,0.451-3.5,0.451-5.314c0-17.656-14.354-31.998-32-31.998c-2.216,0-4.393,0.215-6.48,0.656
	l-38.216-59.451L439.846,301.027z M114.301,463.773c1.857,3.42,5.451,5.568,9.357,5.568h4.344c5.892,0,10.672,4.773,10.672,10.656
	c0,5.873-4.78,10.646-10.672,10.646h-64c-5.873,0-10.652-4.773-10.652-10.646c0-5.883,4.779-10.656,10.652-10.656h8.94
	c3.623,0,7-1.863,8.966-4.912l142.81-222.143c4.848,5.24,11,9.265,17.922,11.554L114.688,452.9
	C112.58,456.184,112.423,460.342,114.301,463.773z M448.003,490.645h-64c-5.883,0-10.657-4.773-10.657-10.646
	c0-5.883,4.774-10.656,10.657-10.656h4.353c3.911,0,7.5-2.148,9.362-5.568c1.873-3.432,1.717-7.59-0.392-10.873l-127.951-199.06
	c6.921-2.289,13.078-6.313,17.94-11.554L430.11,464.43c1.971,3.049,5.344,4.912,8.971,4.912h8.922
	c5.882,0,10.666,4.773,10.666,10.656C458.669,485.871,453.885,490.645,448.003,490.645z"/>
</svg>
