<?xml version="1.0" encoding="utf-8"?>
<!-- Generator: Adobe Illustrator 16.0.0, SVG Export Plug-In . SVG Version: 6.00 Build 0)  -->
<!DOCTYPE svg PUBLIC "-//W3C//DTD SVG 1.1//EN" "http://www.w3.org/Graphics/SVG/1.1/DTD/svg11.dtd">
<svg version="1.1" id="Layer_1" xmlns="http://www.w3.org/2000/svg" xmlns:xlink="http://www.w3.org/1999/xlink" x="0px" y="0px"
	 width="512px" height="512px" viewBox="0 0 512 512" enable-background="new 0 0 512 512" xml:space="preserve">
<g id="lottery_ticket_2">
	<path fill="#080808" d="M362.664,0.002H64.002c-5.877,0-10.657,4.774-10.657,10.662v490.678c0,5.871,4.779,10.656,10.657,10.656
		h298.662c5.902,0,10.688-4.785,10.688-10.656V10.664C373.352,4.776,368.566,0.002,362.664,0.002z M352.008,21.335v106.662H74.673
		V21.335H352.008z M159.998,362.654h21.348v21.344h-21.348V362.654z M138.674,383.998h-21.329v-21.344h21.329V383.998z
		 M202.669,362.654h21.329v21.344h-21.329V362.654z M245.341,362.654h21.333v21.344h-21.333V362.654z M288.008,362.654h21.344
		v21.344h-21.344V362.654z M288.008,341.34v-21.342h21.344v21.342H288.008z M266.674,341.34h-21.333v-21.342h21.333V341.34z
		 M223.998,341.34h-21.329v-21.342h21.329V341.34z M181.345,341.34h-21.348v-21.342h21.348V341.34z M138.674,341.34h-21.329v-21.342
		h21.329V341.34z M96.002,341.34H74.673v-21.342h21.329V341.34z M96.002,362.654v21.344H74.673v-21.344H96.002z M96.002,405.342
		v21.312H74.673v-21.312H96.002z M117.345,405.342h21.329v21.312h-21.329V405.342z M159.998,405.342h21.348v21.312h-21.348V405.342z
		 M202.669,405.342h21.329v21.312h-21.329V405.342z M245.341,405.342h21.333v21.312h-21.333V405.342z M288.008,405.342h21.344
		v21.312h-21.344V405.342z M330.664,405.342h21.344v21.312h-21.344V405.342z M330.664,383.998v-21.344h21.344v21.344H330.664z
		 M330.664,341.34v-21.342h21.344v21.342H330.664z M74.673,298.654V277.34h277.334v21.314H74.673z M288.008,255.998v-21.334h21.344
		v21.334H288.008z M223.998,213.336h-21.329v-21.338h21.329V213.336z M245.341,191.998h21.333v21.338h-21.333V191.998z
		 M181.345,213.336h-21.348v-21.338h21.348V213.336z M138.674,213.336h-21.329v-21.338h21.329V213.336z M138.674,234.664v21.334
		h-21.329v-21.334H138.674z M159.998,234.664h21.348v21.334h-21.348V234.664z M202.669,234.664h21.329v21.334h-21.329V234.664z
		 M245.341,234.664h21.333v21.334h-21.333V234.664z M288.008,213.336v-21.338h21.344v21.338H288.008z M288.008,170.664v-21.328
		h21.344v21.328H288.008z M266.674,170.664h-21.333v-21.328h21.333V170.664z M223.998,170.664h-21.329v-21.328h21.329V170.664z
		 M181.345,170.664h-21.348v-21.328h21.348V170.664z M138.674,170.664h-21.329v-21.328h21.329V170.664z M96.002,170.664H74.673
		v-21.328h21.329V170.664z M96.002,191.998v21.338H74.673v-21.338H96.002z M96.002,234.664v21.334H74.673v-21.334H96.002z
		 M330.664,255.998v-21.334h21.344v21.334H330.664z M330.664,213.336v-21.338h21.344v21.338H330.664z M330.664,170.664v-21.328
		h21.344v21.328H330.664z M74.673,490.645v-42.646h277.334v42.646H74.673z"/>
	<path fill="#080808" d="M319.223,458.654H106.673c-5.892,0-10.671,4.775-10.671,10.688c0,5.871,4.78,10.656,10.671,10.656h212.549
		c5.902,0,10.688-4.785,10.688-10.656C329.91,463.43,325.125,458.654,319.223,458.654z"/>
	<path fill="#080808" d="M106.673,64.002h212.549c5.902,0,10.688-4.774,10.688-10.667c0-5.887-4.785-10.671-10.688-10.671H106.673
		c-5.892,0-10.671,4.784-10.671,10.671C96.002,59.228,100.782,64.002,106.673,64.002z"/>
	<path fill="#080808" d="M277.35,85.336H148.561c-5.873,0-10.652,4.774-10.652,10.666c0,5.888,4.78,10.662,10.652,10.662H277.35
		c5.873,0,10.658-4.774,10.658-10.662C288.008,90.11,283.223,85.336,277.35,85.336z"/>
	<path fill="#080808" d="M448.008,117.771h-42.656c-5.912,0-10.688,4.775-10.688,10.672v234.662c0,2.902,1.188,5.686,3.275,7.705
		l21.342,20.432c2.07,1.99,4.727,2.971,7.373,2.971c2.658,0,5.354-0.98,7.412-2.971l21.314-20.432
		c2.088-2.02,3.273-4.803,3.273-7.705V128.443C458.654,122.547,453.91,117.771,448.008,117.771z M437.352,139.11v10.662h-21.344
		V139.11H437.352z M426.654,368.781l-10.646-10.225V171.11h21.344v187.446L426.654,368.781z"/>
</g>
</svg>
