<?xml version="1.0" encoding="utf-8"?>
<!-- Generator: Adobe Illustrator 16.0.0, SVG Export Plug-In . SVG Version: 6.00 Build 0)  -->
<!DOCTYPE svg PUBLIC "-//W3C//DTD SVG 1.1//EN" "http://www.w3.org/Graphics/SVG/1.1/DTD/svg11.dtd">
<svg version="1.1" id="Layer_1" xmlns="http://www.w3.org/2000/svg" xmlns:xlink="http://www.w3.org/1999/xlink" x="0px" y="0px"
	 width="512px" height="512px" viewBox="0 0 512 512" enable-background="new 0 0 512 512" xml:space="preserve">
<g id="lottery_ticket_1">
	<path fill="#080808" d="M479.994,16.002H32.007c-17.642,0-32,14.353-32,32v234.652c0,17.656,14.358,32,32,32h447.987
		c17.646,0,32-14.344,32-32V48.002C511.994,30.354,497.641,16.002,479.994,16.002z M490.67,282.654
		c0,5.893-4.793,10.686-10.676,10.686H32.007c-5.877,0-10.671-4.793-10.671-10.686V48.002c0-5.882,4.794-10.667,10.671-10.667
		h447.987c5.883,0,10.676,4.785,10.676,10.667V282.654z"/>
	<path fill="#080808" d="M384.004,58.664h-42.678h-21.324h-64v64v21.333v42.667v21.334v64h64h21.324h42.678h21.322h64v-64v-21.334
		v-42.667v-21.333v-64h-64H384.004z M341.326,80.002h42.678v42.662h-42.678V80.002z M384.004,186.664h-42.678v-42.667h42.678
		V186.664z M277.326,80.002h42.676v42.662h-42.676V80.002z M277.326,143.997h42.676v42.667h-42.676V143.997z M320.002,250.664
		h-42.676v-42.666h42.676V250.664z M384.004,250.664h-42.678v-42.666h42.678V250.664z M448.004,250.664h-42.678v-42.666h42.678
		V250.664z M448.004,186.664h-42.678v-42.667h42.678V186.664z M448.004,80.002v42.662h-42.678V80.002H448.004z"/>
	<path fill="#080808" d="M138.674,58.664c-47.108,0-85.417,38.318-85.417,85.422c0,47.107,38.309,85.422,85.417,85.422
		c47.093,0,85.422-38.314,85.422-85.422C224.096,96.982,185.767,58.664,138.674,58.664z M138.674,208.179
		c-35.343,0-64.093-28.75-64.093-64.093c0-35.334,28.75-64.084,64.093-64.084c35.329,0,64.079,28.75,64.079,64.084
		C202.752,179.429,174.002,208.179,138.674,208.179z"/>
	<path fill="#080808" d="M213.409,250.664H63.923c-5.887,0-10.652,4.78-10.652,10.666c0,5.893,4.765,10.668,10.652,10.668h149.486
		c5.887,0,10.671-4.775,10.671-10.668C224.081,255.444,219.296,250.664,213.409,250.664z"/>
	<path fill="#080808" d="M170.674,133.419h-64c-5.887,0-10.671,4.774-10.671,10.667c0,5.892,4.784,10.671,10.671,10.671h64
		c5.892,0,10.657-4.779,10.657-10.671C181.331,138.193,176.566,133.419,170.674,133.419z"/>
	<path fill="#080808" d="M256.002,335.998c-35.299,0-64,28.715-64,64v32c0,35.275,28.701,64,64,64c35.294,0,64-28.725,64-64v-32
		C320.002,364.713,291.297,335.998,256.002,335.998z M256.002,357.342c23.529,0,42.667,19.127,42.667,42.656
		s-19.139,42.656-42.667,42.656c-23.529,0-42.672-19.127-42.672-42.656S232.473,357.342,256.002,357.342z M256.002,474.645
		c-16.5,0-30.813-9.402-37.922-23.117c10.623,7.824,23.735,12.471,37.922,12.471c14.187,0,27.294-4.646,37.921-12.471
		C286.816,465.242,272.502,474.645,256.002,474.645z"/>
	<path fill="#080808" d="M256.002,421.342c5.888,0,10.667-4.785,10.667-10.688v-21.312c0-5.912-4.779-10.688-10.667-10.688
		c-5.892,0-10.671,4.775-10.671,10.688v21.312C245.331,416.557,250.11,421.342,256.002,421.342z"/>
</g>
</svg>
