<?xml version="1.0" encoding="utf-8"?>
<!-- Generator: Adobe Illustrator 16.0.0, SVG Export Plug-In . SVG Version: 6.00 Build 0)  -->
<!DOCTYPE svg PUBLIC "-//W3C//DTD SVG 1.1//EN" "http://www.w3.org/Graphics/SVG/1.1/DTD/svg11.dtd">
<svg version="1.1" id="Layer_1" xmlns="http://www.w3.org/2000/svg" xmlns:xlink="http://www.w3.org/1999/xlink" x="0px" y="0px"
	 width="512px" height="512px" viewBox="0 0 512 512" enable-background="new 0 0 512 512" xml:space="preserve">
<g id="money_chips_exchange">
	<path fill="#080808" d="M469.326,394.654h-21.891c6.059-5.471,12.686-12.068,19.332-19.812
		c29.588-34.57,45.227-75.658,45.227-118.844c0-43.177-15.639-84.275-45.227-118.844c-22.234-25.976-44.441-39.138-45.383-39.691
		v0.015c-1.588-0.937-3.42-1.476-5.381-1.476c-5.893,0-10.678,4.77-10.678,10.662c0,3.922,2.129,7.343,5.285,9.196v0.01
		c0.186,0.112,20.01,11.872,39.951,35.162c11.686,13.646,20.98,28.436,27.627,43.945c8.275,19.295,12.461,39.824,12.461,61.021
		c0,38.312-13.324,73.432-39.607,104.402c-8.607,10.127-17.275,18.156-24.393,24v-32.402c0-5.893-4.766-10.658-10.646-10.658
		c-5.893,0-10.678,4.766-10.678,10.658v53.344c0,5.871,4.785,10.656,10.678,10.656h53.322c5.893,0,10.668-4.785,10.668-10.656
		C479.994,399.43,475.219,394.654,469.326,394.654z"/>
	<path fill="#080808" d="M96.002,96.002H42.659c-5.887,0-10.652,4.77-10.652,10.662s4.765,10.672,10.652,10.672h21.893
		c-6.064,5.471-12.687,12.068-19.314,19.818C15.644,171.723,0.006,212.821,0.006,255.998c0,43.186,15.638,84.273,45.231,118.844
		c22.235,25.971,44.441,39.137,45.377,39.686l0,0c1.579,0.941,3.422,1.471,5.388,1.471c5.892,0,10.656-4.785,10.656-10.656
		c0-3.922-2.107-7.344-5.25-9.188v-0.02c-0.201-0.107-20.515-12.264-40.451-35.734c-26.299-30.971-39.622-66.09-39.622-104.402
		c0-38.319,13.323-73.446,39.622-104.402c8.608-10.138,17.28-18.152,24.373-24v32.401c0,5.893,4.784,10.667,10.672,10.667
		c5.892,0,10.656-4.774,10.656-10.667v-53.333C106.659,100.771,101.894,96.002,96.002,96.002z"/>
	<path fill="#080808" d="M256.002,0.002c-58.922,0-106.672,47.755-106.672,106.662v32c0,58.912,47.75,106.672,106.672,106.672
		c58.902,0,106.658-47.76,106.658-106.672v-32C362.66,47.757,314.904,0.002,256.002,0.002z M185.395,186.61
		c5.314,4.691,11.093,8.872,17.265,12.451v6.226c-2.421-1.951-4.765-4.044-7-6.279C191.816,195.154,188.395,191.008,185.395,186.61z
		 M266.66,212.802c7.352-0.735,14.5-2.211,21.342-4.358v9.378c-6.793,2.74-13.951,4.607-21.342,5.52V212.802z M245.331,223.341
		c-7.377-0.912-14.535-2.779-21.329-5.52v-9.378c6.843,2.147,13.971,3.623,21.329,4.358V223.341z M309.326,205.287v-6.226
		c6.186-3.579,11.971-7.76,17.285-12.451c-3,4.397-6.422,8.544-10.285,12.397C314.092,201.243,311.768,203.336,309.326,205.287z
		 M316.326,167.008c-16.107,16.117-37.529,24.99-60.324,24.99c-22.799,0-44.221-8.873-60.343-24.99
		c-16.108-16.118-25-37.55-25-60.344c0-22.789,8.892-44.216,25-60.334c16.123-16.117,37.544-24.995,60.343-24.995
		c22.794,0,44.216,8.878,60.324,24.995c16.127,16.118,25,37.545,25,60.334C341.326,129.458,332.453,150.89,316.326,167.008z"/>
	<path fill="#080808" d="M256.002,64.002c-5.892,0-10.671,4.77-10.671,10.662v64c0,5.897,4.779,10.672,10.671,10.672
		c5.888,0,10.658-4.774,10.658-10.672v-64C266.66,68.771,261.891,64.002,256.002,64.002z"/>
	<path fill="#080808" d="M256.002,266.664c-58.922,0-106.672,47.756-106.672,106.678v32c0,58.9,47.75,106.656,106.672,106.656
		c58.902,0,106.658-47.756,106.658-106.656v-32C362.66,314.42,314.904,266.664,256.002,266.664z M330.012,383.213h10.756
		c-1.764,15.344-7.607,29.785-17.02,42l-7.627-7.627C323.404,407.713,328.326,395.969,330.012,383.213z M256.002,426.654
		c-10.627,0-20.515-3.127-28.843-8.5c2.779,1,5.887,0.844,8.593-0.598l20.25-10.627l20.246,10.627
		c1.568,0.834,3.264,1.236,4.961,1.236h0.039c1.264-0.021,2.49-0.236,3.617-0.639C276.531,423.527,266.631,426.654,256.002,426.654z
		 M181.988,383.213c1.686,12.756,6.593,24.5,13.872,34.373l-7.607,7.627c-9.407-12.215-15.265-26.656-17.015-42H181.988z
		 M306.002,354.811c-1.607-2.783-4.42-4.725-7.676-5.186l-22.637-3.305l-10.129-20.51c-1.514-3.068-4.371-5.156-7.65-5.764
		C279.973,320.82,298.67,335.057,306.002,354.811z M265.875,381.852l1.176,6.773l-6.098-3.195c-3.092-1.619-6.813-1.619-9.921,0
		l-6.078,3.195l1.157-6.773c0.593-3.451-0.549-6.98-3.064-9.451l-4.921-4.775l6.799-1c3.471-0.5,6.485-2.695,8.029-5.834
		l3.049-6.156l3.029,6.156c1.564,3.139,4.564,5.334,8.031,5.834l6.803,1l-4.912,4.775
		C266.434,374.871,265.281,378.4,265.875,381.852z M254.096,320.047c-3.299,0.607-6.157,2.695-7.657,5.764l-10.123,20.51
		l-22.642,3.305c-3.265,0.461-6.064,2.402-7.687,5.186C213.331,335.057,232.017,320.82,254.096,320.047z M202.659,373.342
		c0-4.912,0.686-9.658,1.921-14.178c-0.299,3.178,0.844,6.363,3.187,8.646l16.373,15.961l-3.873,22.551
		c-0.515,3.02,0.299,6.049,2.127,8.371C210.36,404.9,202.659,389.998,202.659,373.342z M291.631,405.762l-3.766-21.99l16.373-15.961
		c2.344-2.283,3.471-5.469,3.166-8.646c1.256,4.52,1.922,9.266,1.922,14.178c0,16.656-7.686,31.559-19.715,41.342
		c1.42-1.812,2.283-4.078,2.283-6.568C291.895,407.312,291.797,406.527,291.631,405.762z M300.268,313.203
		c-9.686-7.146-21.137-11.99-33.607-13.764v-10.785c15.059,1.873,29.215,7.686,41.234,16.922L300.268,313.203z M245.331,299.439
		c-12.456,1.773-23.921,6.617-33.593,13.764l-7.627-7.627c12.015-9.236,26.157-15.049,41.221-16.922V299.439z M196.532,328.184
		c-7.343,9.656-12.402,21.158-14.323,33.707h-10.785c2.015-15.148,8.015-29.334,17.5-41.334L196.532,328.184z M210.845,432.793
		c9.858,7.5,21.643,12.607,34.486,14.449v10.756c-15.421-1.912-29.892-7.961-42.093-17.598L210.845,432.793z M266.66,447.242
		c12.842-1.842,24.637-6.949,34.5-14.449l7.607,7.607c-12.205,9.637-26.676,15.686-42.107,17.598V447.242z M329.797,361.891
		c-1.941-12.549-6.98-24.051-14.344-33.707l7.629-7.627c9.471,12,15.471,26.186,17.48,41.334H329.797z M256.002,490.645
		c-22.799,0-44.221-8.871-60.343-24.98c-3.843-3.842-7.265-8-10.265-12.391c18.809,16.627,43.53,26.725,70.608,26.725
		c27.08,0,51.794-10.098,70.609-26.725c-3,4.391-6.422,8.549-10.285,12.391C300.219,481.773,278.797,490.645,256.002,490.645z"/>
</g>
</svg>
