<?xml version="1.0" encoding="utf-8"?>
<!-- Generator: Adobe Illustrator 16.0.0, SVG Export Plug-In . SVG Version: 6.00 Build 0)  -->
<!DOCTYPE svg PUBLIC "-//W3C//DTD SVG 1.1//EN" "http://www.w3.org/Graphics/SVG/1.1/DTD/svg11.dtd">
<svg version="1.1" id="Layer_1" xmlns="http://www.w3.org/2000/svg" xmlns:xlink="http://www.w3.org/1999/xlink" x="0px" y="0px"
	 width="512px" height="512px" viewBox="0 0 512 512" enable-background="new 0 0 512 512" xml:space="preserve">
<path id="online_game" d="M490.14,351.623c-0.471-1.441-1.254-2.734-2.254-3.844l-21.03-22.99c-2.01-2.205-4.872-3.449-7.872-3.449
	h-24.187c-2.362,0-4.638,0.783-6.521,2.215l-9.215,7.098h-59.266c29.48-36.049,45.53-80.785,45.53-127.991
	c0-54.132-21.079-105.015-59.363-143.294C307.688,21.083,256.806,0.004,202.664,0.004c-54.123,0-105.025,21.079-143.294,59.363
	C21.09,97.646,0.011,148.529,0.011,202.661c0,54.138,21.079,105.021,59.358,143.306c38.27,38.273,89.172,59.354,143.294,59.354
	c5.549,0,11.064-0.236,16.535-0.668c-10.064,44.344-8.814,74.609,3.637,91.873c7.285,10.117,18.128,15.471,31.344,15.471
	c11.485,0,27.745-5.725,39.951-32.99c2.529-5.637,4.451-11.266,5.872-16.059c5.323,4,11.971,6.373,19.138,6.373
	c9.451,0,17.951-4.129,23.823-10.668h37.677c5.863,6.539,14.373,10.668,23.824,10.668c7.49,0,14.382-2.6,19.843-6.922
	c1.421,4.912,3.392,10.754,6.039,16.607c12.196,27.266,28.451,32.99,39.932,32.99c13.206,0,24.049-5.354,31.362-15.471
	C518.532,473.084,514.777,425.682,490.14,351.623z M74.447,74.45c16.299-16.289,35.143-29.093,55.643-38.044
	c-4.015,8.466-8.593,18.902-13.187,31.02c-2.676,7.073-5.47,15.059-8.191,23.789H59.604C64.168,85.372,69.119,79.779,74.447,74.45z
	 M45.247,112.544h57.437c-5.937,23.382-10.642,50.539-11.564,79.716H21.653C23.247,163.877,31.34,136.74,45.247,112.544z
	 M45.389,293.055c-13.907-24.117-22.049-51.178-23.706-79.467h69.456c0.966,29.089,5.687,56.152,11.623,79.467H45.389z
	 M74.447,330.889c-5.25-5.256-10.122-10.766-14.637-16.52h48.98c2.706,8.656,5.471,16.529,8.112,23.529
	c4.594,12.127,9.172,22.568,13.187,31.029C109.59,359.967,90.747,347.182,74.447,330.889z M191.992,383.662
	c-11.172-0.637-22.172-2.293-32.858-4.922c-4.029-7.117-13.294-24.559-22.465-48.9c-1.799-4.756-3.642-9.902-5.471-15.471h60.794
	V383.662z M191.992,293.055h-67.187c-6.187-22.961-11.279-50.147-12.324-79.467h79.51V293.055z M191.992,192.26h-79.53
	c1-29.412,6.079-56.677,12.265-79.716h67.265V192.26z M191.992,91.215h-60.873c1.858-5.646,3.721-10.906,5.549-15.716
	c9.171-24.353,18.436-41.779,22.465-48.921c10.687-2.628,21.687-4.274,32.858-4.922V91.215z M404.454,362.652h-85.266l0.029-10.656
	h85.236V362.652z M305.395,330.652l-9.226-7.098c-0.667-0.529-1.402-0.971-2.187-1.314c0.862-2.539,1.706-5.156,2.549-7.871h48.981
	c-4.451,5.676-9.246,11.107-14.422,16.283H305.395z M359.934,293.055h-57.353c5.921-23.314,10.637-50.378,11.607-79.467h69.471
	C381.983,241.877,373.846,268.938,359.934,293.055z M360.091,112.544c13.893,24.196,22,51.333,23.598,79.716h-69.471
	c-0.941-29.177-5.637-56.334-11.578-79.716H360.091z M330.875,74.45c5.323,5.329,10.284,10.922,14.862,16.765H296.61
	c-2.716-8.73-5.52-16.716-8.187-23.789c-4.579-12.117-9.157-22.554-13.177-31.02C295.737,45.357,314.591,58.161,330.875,74.45z
	 M213.335,21.656c11.177,0.647,22.172,2.294,32.863,4.922c4.029,7.142,13.294,24.568,22.48,48.921
	c1.813,4.81,3.676,10.069,5.539,15.716h-60.883V21.656z M213.335,112.544h67.256c6.195,23.039,11.265,50.304,12.265,79.716h-79.521
	V112.544z M213.335,213.588h79.51c-1.049,29.319-6.137,56.506-12.333,79.467h-67.177V213.588z M213.335,383.662v-69.293h60.795
	c-0.785,2.41-1.579,4.715-2.354,6.971h-6.299c-3,0-5.843,1.244-7.877,3.449l-21.03,22.99c-1,1.109-1.765,2.402-2.25,3.844
	c-3.622,10.902-6.809,21.246-9.529,31.029C220.992,383.104,217.179,383.447,213.335,383.662z M319.14,447.996
	c-5.893,0-10.667-4.805-10.667-10.676c0-5.893,4.774-10.668,10.667-10.668c5.872,0,10.656,4.775,10.656,10.668
	C329.796,443.191,325.012,447.996,319.14,447.996z M404.464,447.996c-5.873,0-10.668-4.805-10.668-10.676
	c0-5.893,4.795-10.668,10.668-10.668c5.882,0,10.676,4.775,10.676,10.668C415.14,443.191,410.346,447.996,404.464,447.996z
	 M484.326,484.055c-2.029,2.824-5.716,6.588-14.049,6.588c-9.294,0-16.187-10.9-20.323-20.029
	c-5.422-11.961-7.647-24.342-7.677-24.461c-0.589-3.471-2.843-6.283-5.843-7.754c0.02-0.363,0.029-0.717,0.029-1.078
	c0-17.639-14.354-32-32-32c-17.638,0-31.99,14.361-31.99,32H351.14c0-17.639-14.363-32-32-32c-17.657,0-32,14.361-32,32
	c0,0.52,0.02,1.029,0.029,1.549c-2.559,1.549-4.432,4.156-5,7.283c-0.01,0.119-2.235,12.5-7.657,24.461
	c-4.127,9.129-11.02,20.029-20.333,20.029c-8.324,0-12-3.764-14.044-6.588c-6.936-9.627-14.314-38.471,13.721-123.559l16.324-17.844
	h15.833l9.226,7.127c0.814,0.619,1.716,1.119,2.657,1.48l-0.099,22.01c0,2.844,1.108,5.57,3.108,7.57
	c2,2.01,4.726,3.156,7.568,3.156H415.14c2.824,0,5.549-1.127,7.549-3.127s3.118-4.717,3.108-7.561l-0.021-21.783
	c1.236-0.373,2.412-0.951,3.441-1.746l9.217-7.127h15.862l16.313,17.844C498.64,445.584,491.258,474.428,484.326,484.055z"/>
</svg>
