<?xml version="1.0" encoding="utf-8"?>
<!-- Generator: Adobe Illustrator 16.0.0, SVG Export Plug-In . SVG Version: 6.00 Build 0)  -->
<!DOCTYPE svg PUBLIC "-//W3C//DTD SVG 1.1//EN" "http://www.w3.org/Graphics/SVG/1.1/DTD/svg11.dtd">
<svg version="1.1" id="Layer_1" xmlns="http://www.w3.org/2000/svg" xmlns:xlink="http://www.w3.org/1999/xlink" x="0px" y="0px"
	 width="512px" height="512px" viewBox="0 0 512 512" enable-background="new 0 0 512 512" xml:space="preserve">
<g id="pacman">
	<path d="M324.895,182.034l-5.225-9.313c-7.637-13.657-17.168-26.235-28.324-37.393c-32.234-32.25-75.093-49.995-120.672-49.995
		c-45.593,0-88.451,17.745-120.687,49.995C17.757,167.549,0.006,210.406,0.006,256c0,45.589,17.75,88.433,49.981,120.687
		c32.235,32.236,75.093,49.98,120.687,49.98c45.579,0,88.438-17.744,120.672-50c11.156-11.156,20.688-23.734,28.324-37.383
		l5.225-9.312L192.532,256L324.895,182.034z M295.512,337.981c-5.578,8.471-12.029,16.373-19.244,23.607
		c-28.207,28.205-65.702,43.736-105.594,43.736c-39.887,0-77.387-15.531-105.593-43.736C36.865,333.394,21.335,295.894,21.335,256
		c0-39.893,15.529-77.388,43.745-105.594c28.206-28.201,65.706-43.73,105.593-43.73c39.892,0,77.387,15.529,105.594,43.73
		c7.215,7.235,13.666,15.143,19.244,23.613L148.801,256L295.512,337.981z"/>
	<path d="M181.331,202.672c8.544,0,16.593-3.329,22.623-9.373c12.485-12.485,12.485-32.779,0-45.265
		c-6.03-6.034-14.079-9.358-22.623-9.358c-8.544,0-16.578,3.324-22.622,9.373c-12.471,12.471-12.471,32.765,0,45.25
		C164.752,199.343,172.787,202.672,181.331,202.672z M173.801,163.127c2.015-2.015,4.687-3.127,7.529-3.127
		c2.858,0,5.529,1.112,7.544,3.127c4.157,4.157,4.157,10.922,0,15.079c-2.015,2.015-4.686,3.122-7.544,3.122
		c-2.843,0-5.515-1.107-7.529-3.122C169.629,174.049,169.629,167.284,173.801,163.127z"/>
	<path d="M53.335,256L53.335,256c0-2.735-1.034-5.451-3.128-7.549c-4.156-4.152-10.906-4.152-15.078,0
		c-2.078,2.098-3.123,4.813-3.123,7.549l0,0c0,37.05,14.421,71.864,40.608,98.05c26.201,26.195,61.015,40.617,98.059,40.617
		c0.329,0,0.657-0.01,1-0.01c2.814,0.059,5.642-0.971,7.78-3.107c4.176-4.176,4.176-10.922,0-15.098
		c-2.079-2.078-4.809-3.127-7.53-3.127v-0.012c-0.421,0.012-0.843,0.012-1.25,0.012c-31.343,0-60.809-12.197-82.966-34.354
		C65.537,316.813,53.335,287.343,53.335,256z"/>
	<path d="M362.67,213.328c-23.529,0-42.668,19.143-42.668,42.672c0,23.53,19.139,42.667,42.668,42.667
		c23.52,0,42.656-19.137,42.656-42.667C405.326,232.471,386.189,213.328,362.67,213.328z M362.67,277.323
		c-11.766,0-21.344-9.559-21.344-21.323c0-2.187,0.344-4.294,0.951-6.294c0.52,1.151,1.236,2.23,2.176,3.166
		c4.168,4.177,10.922,4.177,15.09,0c4.156-4.166,4.156-10.921,0-15.073c-0.951-0.956-2.029-1.672-3.168-2.191
		c1.98-0.607,4.109-0.936,6.295-0.936c11.754,0,21.334,9.563,21.334,21.328S374.424,277.323,362.67,277.323z"/>
	<path d="M469.326,213.328c-23.52,0-42.656,19.143-42.656,42.672c0,23.53,19.137,42.667,42.656,42.667
		c23.529,0,42.668-19.137,42.668-42.667C511.994,232.471,492.855,213.328,469.326,213.328z M469.326,277.323
		c-11.764,0-21.322-9.559-21.322-21.323c0-2.187,0.322-4.294,0.951-6.294c0.51,1.151,1.234,2.23,2.166,3.166
		c4.176,4.177,10.922,4.177,15.078,0c4.176-4.166,4.176-10.921,0-15.073c-0.932-0.956-2.01-1.672-3.156-2.191
		c1.99-0.607,4.098-0.936,6.283-0.936c11.766,0,21.344,9.563,21.344,21.328S481.092,277.323,469.326,277.323z"/>
</g>
</svg>
