<?xml version="1.0" encoding="utf-8"?>
<!-- Generator: Adobe Illustrator 16.0.0, SVG Export Plug-In . SVG Version: 6.00 Build 0)  -->
<!DOCTYPE svg PUBLIC "-//W3C//DTD SVG 1.1//EN" "http://www.w3.org/Graphics/SVG/1.1/DTD/svg11.dtd">
<svg version="1.1" id="Layer_1" xmlns="http://www.w3.org/2000/svg" xmlns:xlink="http://www.w3.org/1999/xlink" x="0px" y="0px"
	 width="512px" height="512px" viewBox="0 0 512 512" enable-background="new 0 0 512 512" xml:space="preserve">
<path id="playstation_4" d="M490.144,314.264c-0.461-1.42-1.225-2.734-2.244-3.832l-21.02-22.98
	c-2.03-2.207-4.873-3.471-7.873-3.471H434.84c-2.362,0-4.657,0.783-6.52,2.225l-9.216,7.107h-99.785l-0.5-234.593
	c0-5.357-4-9.888-9.323-10.559L139.28,26.847c-0.034-0.015-0.063-0.015-0.113-0.015c-0.216-0.015-0.436-0.034-0.657-0.049
	c-0.152,0-0.309-0.015-0.466-0.015c-0.034,0-0.063-0.015-0.093-0.015H32c-5.892,0-10.671,4.779-10.671,10.672v401.928L1.794,468.666
	c-2.186,3.266-2.373,7.471-0.529,10.941c1.858,3.471,5.465,5.639,9.407,5.639h147.902c0.579,0,1.143-0.061,1.706-0.139l0,0
	l79.809-12.893c4.343,1.561,9.079,2.363,14.186,2.363c6.471,0,14.457-1.812,22.378-8.264l50-8.08l0,0
	c1.353-0.225,2.687-0.705,3.922-1.469c5.01-3.109,6.539-9.688,3.432-14.688l-6.902-11.146c6.245-1.578,11.745-5.01,15.922-9.668
	h37.666c5.863,6.551,14.363,10.668,23.814,10.668c7.49,0,14.372-2.588,19.833-6.922c1.421,4.912,3.401,10.734,6.029,16.607
	c12.196,27.236,28.451,32.961,39.932,32.961c13.206,0,24.049-5.344,31.333-15.441C518.536,435.686,514.791,388.314,490.144,314.264z
	 M94.951,48.082h32.343v181.261H94.951V48.082z M94.951,250.671h32.343v181.261H94.951V250.671z M42.652,48.082h30.971v181.261
	H42.652V48.082z M42.652,250.671h30.971v181.261H42.652V250.671z M30.593,463.922l7.107-10.678h94.437l6.873,10.678H30.593z
	 M404.507,325.312h-85.246l0.049-10.676h85.188L404.507,325.312z M148.603,49.504l148.922,18.657l0.344,161.182H148.603V49.504z
	 M148.603,250.671h149.315l0.078,36.878l-1.735-1.344c-1.862-1.441-4.156-2.225-6.52-2.225h-24.166c-3,0-5.844,1.264-7.878,3.471
	l-21.015,22.98c-1.015,1.098-1.779,2.412-2.25,3.832c-15.407,46.285-22.643,82.158-21.78,108.266l-64.049,7.98V250.671z
	 M308.556,399.932c0-5.873,4.784-10.658,10.656-10.658c5.873,0,10.657,4.785,10.657,10.658c0,5.893-4.784,10.676-10.657,10.676
	C313.34,410.607,308.556,405.824,308.556,399.932z M156.103,451.078l59.579-7.441c1.063,3.756,2.421,7.168,4.049,10.266
	l-55.971,9.029L156.103,451.078z M294.085,441.883c0.049-0.088,0.078-0.168,0.127-0.266c1.235-2.764,2.334-5.529,3.294-8.186
	l5.618-0.697l4.343,7L294.085,441.883z M404.507,410.607c-5.873,0-10.657-4.783-10.657-10.676c0-5.873,4.784-10.658,10.657-10.658
	c5.872,0,10.676,4.785,10.676,10.658C415.183,405.824,410.379,410.607,404.507,410.607z M484.35,446.656
	c-2.049,2.844-5.716,6.588-14.049,6.588c-9.294,0-16.187-10.891-20.323-20.029c-5.422-11.951-7.638-24.322-7.657-24.441
	c-0.608-3.459-2.843-6.293-5.843-7.764c0-0.354,0.02-0.695,0.02-1.078c0-17.619-14.344-31.98-31.99-31.98
	c-17.638,0-31.98,14.361-31.98,31.98h-21.334c0-17.619-14.343-31.98-31.98-31.98c-17.637,0-31.98,14.361-31.98,31.98
	c0,0.52,0.01,1.039,0.029,1.549c-2.559,1.549-4.451,4.156-5,7.293c-1.627,9.393-11.176,44.471-27.986,44.471
	c-8.328,0-12-3.744-14.044-6.588c-6.941-9.627-14.299-38.441,13.716-123.52l16.314-17.824h15.844l9.215,7.109
	c0.814,0.627,1.727,1.127,2.657,1.48l-0.088,22.02c-0.02,2.842,1.107,5.559,3.107,7.578c2,2,4.716,3.127,7.56,3.127h106.627
	c2.824,0,5.529-1.127,7.529-3.127s3.128-4.717,3.128-7.549l-0.02-21.766c1.235-0.373,2.401-0.971,3.44-1.764l9.217-7.109h15.843
	l16.313,17.824C498.644,408.215,491.291,437.029,484.35,446.656z"/>
</svg>
