<?xml version="1.0" encoding="utf-8"?>
<!-- Generator: Adobe Illustrator 16.0.0, SVG Export Plug-In . SVG Version: 6.00 Build 0)  -->
<!DOCTYPE svg PUBLIC "-//W3C//DTD SVG 1.1//EN" "http://www.w3.org/Graphics/SVG/1.1/DTD/svg11.dtd">
<svg version="1.1" id="Layer_1" xmlns="http://www.w3.org/2000/svg" xmlns:xlink="http://www.w3.org/1999/xlink" x="0px" y="0px"
	 width="512px" height="512px" viewBox="0 0 512 512" enable-background="new 0 0 512 512" xml:space="preserve">
<g id="playstation">
	<path d="M60.927,242.204c4.167-4.177,4.167-10.941,0-15.113c-4.171-4.157-10.931-4.157-15.098,0
		c-4.167,4.172-4.167,10.937,0,15.113C49.996,246.37,56.755,246.37,60.927,242.204z"/>
	<path d="M359.84,242.204c4.157-4.177,4.157-10.941,0-15.113c-4.177-4.157-10.941-4.157-15.108,0
		c-4.176,4.172-4.176,10.937,0,15.113C348.898,246.37,355.663,246.37,359.84,242.204z"/>
	<path d="M195.285,216.419c-4.171,4.172-4.171,10.937,0,15.094c4.162,4.171,10.932,4.171,15.093,0
		c4.171-4.157,4.171-10.922,0-15.094C206.217,212.248,199.447,212.248,195.285,216.419z"/>
	<path d="M181.667,149.688h42.701c5.902,0,10.681-4.784,10.681-10.672c0-5.892-4.779-10.671-10.681-10.671h-42.701
		c-5.892,0-10.671,4.779-10.671,10.671C170.996,144.904,175.775,149.688,181.667,149.688z"/>
	<path d="M490.114,287.635c-0.471-1.422-1.234-2.715-2.244-3.824l-21.05-23.02c-2.029-2.201-4.892-3.465-7.872-3.465h-24.227
		c-2.353,0-4.646,0.779-6.51,2.234l-9.234,7.104h-15.363c-0.166-1.744-0.354-3.416-0.539-4.994L386.389,94.703
		c-1.706-17.015-17-30.857-34.118-30.857H53.383c-17.103,0-32.397,13.843-34.103,30.857L2.177,265.719
		c-0.029,0.338-0.054,0.682-0.078,1.014C0.897,278.586,0,294.154,0,304.371v5C0,327.027,14.368,341.4,32.03,341.4h186.76
		c-9.902,44.02-8.607,74.098,3.789,91.283c7.299,10.119,18.152,15.471,31.383,15.471c11.495,0,27.75-5.725,39.966-33
		c2.549-5.656,4.471-11.283,5.882-16.078c5.354,4,11.98,6.373,19.157,6.373c9.461,0,17.98-4.127,23.853-10.678h37.707
		c5.872,6.551,14.392,10.678,23.843,10.678c7.5,0,14.392-2.598,19.853-6.922c1.422,4.902,3.412,10.744,6.039,16.627
		c12.217,27.275,28.48,33,39.98,33c13.236,0,24.079-5.352,31.373-15.471C518.536,409.213,514.791,361.781,490.114,287.635z
		 M404.369,298.703h-85.363l0.05-10.676h85.294L404.369,298.703z M246.064,85.188v20.779c0,4.549,2.883,8.594,7.187,10.079
		c17.334,6,31.824,14.95,41.941,25.892c9.774,10.544,14.922,22.529,14.922,34.672c0,17.529-10.589,34.323-29.844,47.279
		c-20.524,13.829-48.034,21.437-77.441,21.437c-29.402,0-56.912-7.607-77.451-21.437c-19.24-12.956-29.833-29.75-29.833-47.279
		c0-12.25,5.255-24.343,15.196-34.971c10.309-11.015,25.059-19.985,42.671-25.922c4.333-1.466,7.255-5.529,7.255-10.122V85.188
		H246.064z M23.422,267.84L40.52,96.831c0.627-6.206,6.632-11.643,12.863-11.643h85.937V98.14
		c-17.789,7.034-32.956,16.922-44.167,28.907c-13.71,14.656-20.961,31.779-20.961,49.563c0,24.857,13.946,47.951,39.265,64.995
		c24.025,16.156,55.765,25.059,89.373,25.059c33.613,0,65.354-8.902,89.363-25.059c25.334-17.044,39.274-40.138,39.274-64.995
		c0-32.657-24.353-62.063-64.049-78.049V85.188h84.853c6.236,0,12.236,5.437,12.863,11.643l16.98,169.833h-76.902l-9.216-7.104
		c-1.872-1.455-4.177-2.234-6.529-2.234h-24.206c-2.99,0-5.853,1.264-7.877,3.465l-15.133,16.549H32.03
		c-2.623,0-4.956-0.969-6.539-2.715C23.897,272.859,23.162,270.449,23.422,267.84z M85.402,320.047H32.03
		c-5.892,0-10.681-4.785-10.681-10.676v-5c0-2.236,0.049-4.766,0.142-7.48c3.299,1.186,6.843,1.812,10.539,1.812h53.373V320.047z
		 M149.457,320.047h-42.701v-21.344h42.701V320.047z M170.81,320.047v-21.344h59.696c-2.338,7.402-4.456,14.51-6.338,21.344H170.81z
		 M318.967,384.105c-5.882,0-10.677-4.795-10.677-10.676c0-5.883,4.795-10.688,10.677-10.688c5.883,0,10.687,4.805,10.687,10.688
		C329.653,379.311,324.85,384.105,318.967,384.105z M404.369,384.105c-5.872,0-10.677-4.795-10.677-10.676
		c0-5.883,4.805-10.688,10.677-10.688c5.892,0,10.667,4.805,10.667,10.688C415.036,379.311,410.261,384.105,404.369,384.105z
		 M484.301,420.193c-2.039,2.844-5.735,6.619-14.06,6.619c-9.312,0-16.205-10.912-20.362-20.07
		c-5.421-11.98-7.638-24.352-7.657-24.471c-0.607-3.48-2.853-6.303-5.853-7.764c0.01-0.354,0.03-0.717,0.03-1.078
		c0-17.668-14.373-32.029-32.03-32.029s-32.02,14.361-32.02,32.029h-21.353c0-17.668-14.363-32.029-32.03-32.029
		c-17.657,0-32.02,14.361-32.02,32.029c0,0.52,0.02,1.02,0.029,1.539c-2.559,1.559-4.451,4.166-5,7.303
		c-1.638,9.412-11.187,44.541-28.015,44.541c-8.333,0-12.015-3.775-14.059-6.619c-6.946-9.637-14.329-38.49,13.726-123.646
		l16.338-17.863h15.853l9.236,7.107c0.813,0.648,1.705,1.129,2.656,1.5l-0.088,22.029c-0.02,2.844,1.107,5.57,3.107,7.58
		c2,2.02,4.735,3.146,7.559,3.146h106.746c2.843,0,5.568-1.127,7.568-3.127s3.117-4.717,3.117-7.559l-0.029-21.805
		c1.236-0.373,2.412-0.951,3.461-1.766l9.216-7.107h15.872l16.324,17.863C498.634,381.703,491.252,410.557,484.301,420.193z"/>
</g>
</svg>
