<?xml version="1.0" encoding="utf-8"?>
<!-- Generator: Adobe Illustrator 16.0.0, SVG Export Plug-In . SVG Version: 6.00 Build 0)  -->
<!DOCTYPE svg PUBLIC "-//W3C//DTD SVG 1.1//EN" "http://www.w3.org/Graphics/SVG/1.1/DTD/svg11.dtd">
<svg version="1.1" id="Layer_1" xmlns="http://www.w3.org/2000/svg" xmlns:xlink="http://www.w3.org/1999/xlink" x="0px" y="0px"
	 width="512px" height="512px" viewBox="0 0 512 512" enable-background="new 0 0 512 512" xml:space="preserve">
<g id="playing_cards">
	<path d="M501.326,138.661H288.002c-5.891,0-10.676,4.779-10.676,10.672v277.318c0,5.902,4.785,10.688,10.676,10.688h213.324
		c5.893,0,10.668-4.785,10.668-10.688V149.333C511.994,143.44,507.219,138.661,501.326,138.661z M490.65,373.339v42.656h-32H298.66
		V202.7c0.01,2.055,0.607,4.099,1.793,5.883l21.324,32c1.99,2.966,5.314,4.75,8.883,4.75c3.559,0,6.902-1.784,8.873-4.75l21.342-32
		c2.373-3.588,2.373-8.25,0-11.838l-21.342-32.001c-1.971-2.965-5.314-4.75-8.873-4.75c-3.568,0-6.893,1.785-8.883,4.75
		l-21.324,32.001c-1.186,1.784-1.783,3.828-1.793,5.882v-42.633h32h159.99V373.339z M322.141,202.661l8.52-12.765l8.51,12.765
		l-8.51,12.77L322.141,202.661z"/>
	<path d="M224.002,74.661H10.659c-5.887,0-10.652,4.784-10.652,10.672v32v32v213.318v32v32c0,5.902,4.765,10.688,10.652,10.688
		h213.344c5.892,0,10.657-4.785,10.657-10.688v-32v-32V149.333v-32v-32C234.66,79.445,229.895,74.661,224.002,74.661z
		 M87.159,178.739l30.172-30.166l30.172,30.166l-30.172,30.172L87.159,178.739z M147.502,269.249l-30.172,30.168l-30.172-30.168
		l30.172-30.166L147.502,269.249z M102.237,223.995l-30.171,30.171l-30.157-30.171l30.157-30.172L102.237,223.995z M102.237,314.495
		l-30.171,30.186l-30.157-30.186l30.157-30.158L102.237,314.495z M117.331,329.583l22.407,22.412H94.923L117.331,329.583z
		 M132.409,314.495l30.172-30.158l30.172,30.158l-30.172,30.186L132.409,314.495z M132.409,223.995l30.172-30.172l30.172,30.172
		l-30.172,30.171L132.409,223.995z M162.581,163.661l-30.172-30.172l30.172-30.171l30.172,30.171L162.581,163.661z M139.738,95.999
		l-22.407,22.402L94.923,95.999H139.738z M102.237,133.489l-30.171,30.172l-30.157-30.172l30.157-30.171L102.237,133.489z
		 M21.335,95.999h27.887l-22.407,22.402l-5.48-5.49V95.999z M21.335,154.059l5.48-5.485l30.171,30.166l-30.171,30.172l-5.48-5.485
		V154.059z M21.335,244.563l5.48-5.48l30.171,30.166l-30.171,30.168l-5.48-5.48V244.563z M21.335,335.083l5.48-5.5l22.407,22.412
		H21.335V335.083z M213.331,415.995H21.335v-10.656h191.995V415.995z M213.331,383.995H21.335v-10.656h191.995V383.995z
		 M213.331,351.995h-27.907l22.407-22.412l5.5,5.5V351.995z M213.331,293.937l-5.5,5.48l-30.171-30.168l30.171-30.166l5.5,5.49
		V293.937z M213.331,203.416l-5.5,5.495l-30.171-30.172l30.171-30.166l5.5,5.495V203.416z M213.331,112.911l-5.5,5.49
		l-22.407-22.402h27.907V112.911z"/>
	<path d="M467.533,335.397c-1.971-2.971-5.314-4.746-8.883-4.746c-3.559,0-6.883,1.775-8.873,4.746l-21.322,32
		c-2.393,3.598-2.393,8.254,0,11.842l21.322,32c1.99,2.971,5.314,4.756,8.873,4.756c3.568,0,6.912-1.785,8.883-4.756l21.344-32
		c1.186-1.773,1.773-3.842,1.773-5.9c0-2.07-0.588-4.129-1.773-5.941L467.533,335.397z M458.65,386.083l-8.51-12.744l8.51-12.785
		l8.52,12.785L458.65,386.083z"/>
</g>
</svg>
