<?xml version="1.0" encoding="utf-8"?>
<!-- Generator: Adobe Illustrator 16.0.0, SVG Export Plug-In . SVG Version: 6.00 Build 0)  -->
<!DOCTYPE svg PUBLIC "-//W3C//DTD SVG 1.1//EN" "http://www.w3.org/Graphics/SVG/1.1/DTD/svg11.dtd">
<svg version="1.1" id="Layer_1" xmlns="http://www.w3.org/2000/svg" xmlns:xlink="http://www.w3.org/1999/xlink" x="0px" y="0px"
	 width="512px" height="512px" viewBox="0 0 512 512" enable-background="new 0 0 512 512" xml:space="preserve">
<g id="pokeball">
	<path d="M491.877,156.351c-12.893-30.485-31.344-57.858-54.844-81.363c-23.52-23.51-50.912-41.961-81.373-54.862
		C324.092,6.776,290.562,0.002,256.002,0.002c-34.554,0-68.088,6.774-99.647,20.123C125.87,33.026,98.487,51.478,74.987,74.987
		c-23.505,23.505-41.966,50.878-54.858,81.363C6.776,187.919,0.006,221.443,0.006,256.008c0,34.549,6.77,68.078,20.123,99.646
		c12.892,30.48,31.353,57.854,54.858,81.373c23.5,23.5,50.882,41.951,81.368,54.844c31.559,13.352,65.094,20.127,99.647,20.127
		c34.56,0,68.089-6.775,99.658-20.127c30.461-12.893,57.854-31.344,81.373-54.844c23.5-23.52,41.951-50.893,54.844-81.373
		c13.342-31.568,20.117-65.098,20.117-99.646C511.994,221.443,505.219,187.919,491.877,156.351z M490.65,256.008
		c0,0.637,0,1.284-0.01,1.926c-10.412,1.986-30.205,5.436-57.676,8.857c-20.766,2.6-48.324,5.461-81.275,7.529
		c0.215-2.52,0.314-5.068,0.314-7.656c0-0.98-0.02-1.955-0.051-2.932c68.207-4.234,116.58-11.984,138.541-16.039
		C490.592,250.449,490.65,253.224,490.65,256.008z M90.066,90.071c44.328-44.319,103.255-68.736,165.937-68.736
		c62.687,0,121.609,24.417,165.933,68.736c37.234,37.24,60.4,84.789,66.871,136.211c-10.812,2.02-29.9,5.279-55.842,8.515
		c-21.344,2.662-49.873,5.607-84.061,7.701c-10.734-41.275-48.312-71.829-92.902-71.829c-44.588,0-82.172,30.554-92.912,71.829
		c-34.182-2.094-62.711-5.039-84.049-7.701c-8.902-1.113-16.99-2.221-24.226-3.284c5.367-44.868,25.436-86.373,57.882-118.819
		c38.275-38.27,89.172-59.358,143.304-59.358l0,0c2.726,0,5.46-1.039,7.539-3.122c4.168-4.167,4.168-10.917,0-15.088
		c-2.078-2.079-4.812-3.123-7.539-3.123l0,0l0,0l0,0c-59.833,0-116.083,23.304-158.388,65.608
		c-35.672,35.677-57.813,81.265-63.883,130.554c-4.093-0.695-7.617-1.338-10.534-1.882C29.654,174.86,52.835,127.312,90.066,90.071z
		 M330.66,266.664c0,41.178-33.49,74.676-74.658,74.676c-41.172,0-74.662-33.498-74.662-74.676c0-41.166,33.49-74.666,74.662-74.666
		C297.17,191.998,330.66,225.498,330.66,266.664z M21.34,256.008c0-2.784,0.063-5.559,0.157-8.314
		c21.97,4.055,70.348,11.805,138.554,16.039c-0.034,0.977-0.049,1.951-0.049,2.932c0,2.588,0.103,5.137,0.304,7.656
		c-32.941-2.068-60.505-4.93-81.265-7.529c-27.48-3.422-47.27-6.871-57.677-8.857C21.355,257.292,21.34,256.645,21.34,256.008z
		 M421.936,421.93c-44.324,44.334-103.246,68.734-165.933,68.734c-62.682,0-121.608-24.4-165.937-68.734
		c-38.638-38.639-62.138-88.402-67.53-142.059c22.936,4.225,72.53,12.029,142.059,16.127c12.422,38.637,48.701,66.666,91.407,66.666
		c42.707,0,78.98-28.029,91.402-66.666c45.6-2.688,82.629-6.971,109.188-10.785c-6.186,43.029-25.98,82.785-57.275,114.1
		c-38.283,38.273-89.195,59.352-143.314,59.352l0,0c-2.726,0-5.461,1.049-7.539,3.129c-4.172,4.166-4.172,10.92,0,15.078
		c2.078,2.088,4.813,3.127,7.539,3.127c59.843,0,116.089-23.305,158.382-65.598c36.178-36.188,58.441-82.529,64.148-132.609
		c4.137-0.695,7.773-1.322,10.932-1.92C484.072,333.527,460.572,383.291,421.936,421.93z"/>
	<path d="M256.002,213.336c-29.407,0-53.338,23.927-53.338,53.328c0,29.412,23.932,53.334,53.338,53.334
		c29.402,0,53.343-23.922,53.343-53.334C309.346,237.263,285.404,213.336,256.002,213.336z M256.002,298.664
		c-17.647,0-32-14.354-32-32c0-17.642,14.353-31.995,32-31.995c17.638,0,32,14.354,32,31.995
		C288.002,284.311,273.641,298.664,256.002,298.664z"/>
</g>
</svg>
