<?xml version="1.0" encoding="utf-8"?>
<!-- Generator: Adobe Illustrator 16.0.0, SVG Export Plug-In . SVG Version: 6.00 Build 0)  -->
<!DOCTYPE svg PUBLIC "-//W3C//DTD SVG 1.1//EN" "http://www.w3.org/Graphics/SVG/1.1/DTD/svg11.dtd">
<svg version="1.1" id="Layer_1" xmlns="http://www.w3.org/2000/svg" xmlns:xlink="http://www.w3.org/1999/xlink" x="0px" y="0px"
	 width="512px" height="512px" viewBox="0 0 512 512" enable-background="new 0 0 512 512" xml:space="preserve">
<g id="pokemon_egg">
	<path fill="#080808" d="M255.998,373.342c14.206,0,49.754-2.717,73.01-27.951c16.01-17.363,22.893-41.52,20.432-71.814
		c-4.059-50.279-22.658-81.524-37.539-98.873c-17.08-19.917-38.5-32.29-55.903-32.29c-8.196,0-17.578,2.735-27.157,7.912
		c-10.146,5.485-20.054,13.554-28.651,23.343c-14.917,16.976-33.555,47.775-37.618,98.024c-2.485,30.627,4.563,55.178,20.937,72.932
		C208.085,371.262,245.204,373.342,255.998,373.342z M282.635,348.527c1.402-12.559,9.588-23.373,24.775-32.873
		c6.41-4,13.068-7.068,18.754-9.312c-2.441,9.715-6.725,17.949-12.844,24.578C304.635,340.352,293.252,345.625,282.635,348.527z
		 M295.693,188.591c12.844,14.956,28.873,42.133,32.5,86.7c0.188,2.58,0.314,5.109,0.373,7.549
		c-7.746,2.471-20.059,7.061-31.971,14.422c-23.246,14.373-35.363,33.08-35.529,54.609c-1.922,0.098-3.633,0.127-5.069,0.127
		c-6.123,0-37.632-1.049-56.809-21.844c-9.235-10.02-14.432-23.412-15.54-39.971c1.201,0.098,2.46,0.156,3.765,0.156
		c3.868,0,8.142-0.529,12.681-1.939c15.706-4.922,28.78-18.57,38.844-40.584c9.461-20.701,11.02-39.068,4.627-54.573
		c-3.362-8.182-8.465-14.187-13.348-18.456c10.466-7.755,20.132-11.04,25.779-11.04
		C264.859,163.748,281.066,171.522,295.693,188.591z M214.654,189.532c3.171,2.436,6.902,6.265,9.186,11.833
		c4.049,9.819,2.604,22.471-4.309,37.583c-7.235,15.848-16.049,25.862-25.471,28.971c-3.726,1.234-7.117,1.244-9.794,0.842
		C188.095,231.513,200.718,206.047,214.654,189.532z"/>
	<path fill="#080808" d="M448.008,106.674L448.008,106.674h10.646v-32c0-41.172-33.48-74.672-74.646-74.672h-256
		c-41.172,0-74.662,33.5-74.662,74.672v32h10.662h10.667v298.668H53.345v32c0,41.156,33.49,74.656,74.662,74.656h256
		c41.166,0,74.646-33.5,74.646-74.656v-32h-21.303V106.674H448.008z M128.007,21.335h256c29.402,0,53.344,23.931,53.344,53.338
		v10.662h-10.697H96.007H74.673V74.674C74.673,45.267,98.605,21.335,128.007,21.335z M74.673,437.342v-10.678h10.672h10.662l0,0
		h42.667v64h-10.667C98.605,490.664,74.673,466.742,74.673,437.342z M352.008,426.664v64h-192v-64H352.008z M384.008,490.664
		h-10.656v-64h42.656l0,0h10.646h10.697v10.678C437.352,466.742,413.41,490.664,384.008,490.664z M416.008,405.342h-320V106.674h320
		V405.342z"/>
	<path fill="#080808" d="M192.007,469.342h21.333c5.893,0,10.667-4.785,10.667-10.678c0-5.891-4.774-10.666-10.667-10.666h-21.333
		c-5.893,0-10.662,4.775-10.662,10.666C181.345,464.557,186.115,469.342,192.007,469.342z"/>
	<path fill="#080808" d="M245.341,469.342h21.333c5.893,0,10.676-4.785,10.676-10.678c0-5.891-4.783-10.666-10.676-10.666h-21.333
		c-5.887,0-10.671,4.775-10.671,10.666C234.669,464.557,239.454,469.342,245.341,469.342z"/>
	<path fill="#080808" d="M298.664,469.342h21.344c5.893,0,10.656-4.785,10.656-10.678c0-5.891-4.764-10.666-10.656-10.666h-21.344
		c-5.873,0-10.656,4.775-10.656,10.666C288.008,464.557,292.791,469.342,298.664,469.342z"/>
	<path fill="#080808" d="M181.345,64.002h149.319c5.902,0,10.686-4.774,10.686-10.667c0-5.887-4.783-10.662-10.686-10.662H181.345
		c-5.892,0-10.671,4.774-10.671,10.662C170.674,59.228,175.454,64.002,181.345,64.002z"/>
	<path fill="#080808" d="M117.345,394.664c5.887,0,10.662-4.764,10.662-10.666v-256c0-5.887-4.775-10.662-10.662-10.662
		c-5.892,0-10.672,4.774-10.672,10.662v256C106.673,389.9,111.453,394.664,117.345,394.664z"/>
	<path fill="#080808" d="M394.664,394.664c5.902,0,10.688-4.764,10.688-10.666v-256c0-5.887-4.785-10.662-10.688-10.662
		c-5.883,0-10.656,4.774-10.656,10.662v256C384.008,389.9,388.781,394.664,394.664,394.664z"/>
</g>
</svg>
