<?xml version="1.0" encoding="utf-8"?>
<!-- Generator: Adobe Illustrator 16.0.0, SVG Export Plug-In . SVG Version: 6.00 Build 0)  -->
<!DOCTYPE svg PUBLIC "-//W3C//DTD SVG 1.1//EN" "http://www.w3.org/Graphics/SVG/1.1/DTD/svg11.dtd">
<svg version="1.1" id="Layer_1" xmlns="http://www.w3.org/2000/svg" xmlns:xlink="http://www.w3.org/1999/xlink" x="0px" y="0px"
	 width="512px" height="512px" viewBox="0 0 512 512" enable-background="new 0 0 512 512" xml:space="preserve">
<g id="pokemon_location_2">
	<path d="M501.326,0.002H381.582H10.678c-5.892,0-10.672,4.774-10.672,10.662v490.678c0,5.871,4.78,10.656,10.672,10.656h97.417
		h262.75h130.48c5.893,0,10.668-4.785,10.668-10.656V448.9V330.527V121.875V10.664C511.994,4.776,507.219,0.002,501.326,0.002z
		 M490.67,21.335v86.701l-31.205,13.946l-35.402-79.201l-9.578-21.446H490.67z M87.659,21.335L21.335,50.978V21.335H87.659z
		 M207.625,490.645L490.67,363.498v71.588l-124.373,55.559H207.625z M490.67,490.645h-72.088l72.088-32.195V490.645z
		 M490.67,340.105L155.566,490.645H21.335V74.346l118.608-53.011h251.168l13.48,30.152l44.098,98.677l41.98-18.76V340.105z"/>
	<path d="M234.674,96.007c-28.471,0-55.393,11.368-75.795,32.01c-20.206,20.437-31.343,47.113-31.343,75.113
		c0,30.765,14.857,52.976,33.672,81.083c15.465,23.158,34.73,51.951,51.044,94.471c2.201,6,9.343,15.971,22.422,15.971
		c12.966,0,20.157-9.461,22.343-15.049l0.043-0.107c16.373-43.049,35.707-72.078,51.256-95.402
		c18.695-28.098,33.48-50.284,33.48-80.966c0-28-11.127-54.677-31.344-75.113C290.053,107.375,263.125,96.007,234.674,96.007z
		 M234.674,117.346c42.73,0,79.378,33.177,85.035,74.652h-43.863c-4.902-18.138-21.5-31.53-41.171-31.53
		c-19.672,0-36.28,13.393-41.187,31.53h-43.858C155.287,150.522,191.924,117.346,234.674,117.346z M256.002,203.13
		c0,11.77-9.563,21.339-21.328,21.339s-21.344-9.569-21.344-21.339c0-11.755,9.579-21.328,21.344-21.328
		S256.002,191.375,256.002,203.13z M290.553,272.281c-16.119,24.188-36.178,54.305-53.393,99.529
		c-0.049,0.119-0.765,1.531-2.485,1.531c-1.456,0-2.329-1.873-2.471-2.207l0,0c-17.172-44.793-37.187-74.734-53.265-98.764
		c-14.937-22.334-26.329-39.363-29.295-59.035h43.594c4.593,18.612,21.421,32.466,41.437,32.466c20,0,36.837-13.854,41.417-32.466
		h43.598C316.738,232.943,305.404,249.959,290.553,272.281z"/>
</g>
</svg>
