<?xml version="1.0" encoding="utf-8"?>
<!-- Generator: Adobe Illustrator 16.0.0, SVG Export Plug-In . SVG Version: 6.00 Build 0)  -->
<!DOCTYPE svg PUBLIC "-//W3C//DTD SVG 1.1//EN" "http://www.w3.org/Graphics/SVG/1.1/DTD/svg11.dtd">
<svg version="1.1" id="Layer_1" xmlns="http://www.w3.org/2000/svg" xmlns:xlink="http://www.w3.org/1999/xlink" x="0px" y="0px"
	 width="512px" height="512px" viewBox="0 0 512 512" enable-background="new 0 0 512 512" xml:space="preserve">
<g id="pokemon_go">
	<path fill="#080808" d="M136.456,387.115c-4.157,4.156-4.157,10.922,0,15.078c4.171,4.178,10.921,4.178,15.093,0
		c4.172-4.156,4.172-10.922,0-15.078C147.377,382.949,140.627,382.949,136.456,387.115z"/>
	<path fill="#080808" d="M364.873,387.115c-4.177-4.166-10.922-4.166-15.079,0c-4.176,4.156-4.176,10.922,0,15.078
		c4.157,4.178,10.902,4.178,15.079,0C369.04,398.037,369.04,391.271,364.873,387.115z"/>
	<path fill="#080808" d="M421.324,170.664v-42.667c0-5.887-4.765-10.661-10.657-10.661V42.664c0-23.56-19.107-42.662-42.666-42.662
		H133.343c-23.578,0-42.667,19.103-42.667,42.662v426.658c0,23.578,19.089,42.676,42.667,42.676h234.658
		c23.559,0,42.666-19.098,42.666-42.676V255.998c5.893,0,10.657-4.774,10.657-10.662v-42.672c0-5.892-4.765-10.666-10.657-10.666
		v-10.662C416.56,181.336,421.324,176.557,421.324,170.664z M133.343,21.335h234.658c11.764,0,21.323,9.574,21.323,21.329v21.338
		H112V42.664C112,30.909,121.578,21.335,133.343,21.335z M215.343,426.664c-13.279-8.822-23.078-22.471-26.906-38.402
		c7.828,1.854,18.436,3.795,31.936,5.051c4,13.107,16.206,22.686,30.613,22.686c14.402,0,26.623-9.578,30.623-22.707
		c13.205-1.234,23.578-3.137,31.284-4.969c-3.843,15.91-13.647,29.529-26.893,38.342H215.343z M280.628,371.93
		c-4.785-11.668-16.27-19.932-29.643-19.932c-13.392,0-24.877,8.264-29.642,19.951c-15.294-1.471-26.873-3.893-34.25-6.029
		c3.687-31.814,30.799-56.6,63.579-56.6c32.799,0,59.907,24.814,63.563,56.648C307.03,368.086,295.687,370.479,280.628,371.93z
		 M261.657,383.998c0,5.873-4.785,10.666-10.672,10.666c-5.877,0-10.657-4.793-10.657-10.666c0-5.883,4.779-10.676,10.657-10.676
		C256.872,373.322,261.657,378.115,261.657,383.998z M336,373.322c0-47.041-38.284-85.324-85.328-85.324
		c-47.044,0-85.329,38.283-85.329,85.324c0,20.176,7.034,38.715,18.765,53.342H112V85.336h277.324v341.328h-72.108
		C328.971,412.037,336,393.498,336,373.322z M368.001,490.664H133.343c-11.765,0-21.343-9.578-21.343-21.342v-21.324h277.324v21.324
		C389.324,481.086,379.765,490.664,368.001,490.664z"/>
	<path fill="#080808" d="M325.323,458.664H176c-5.893,0-10.657,4.766-10.657,10.658c0,5.891,4.765,10.676,10.657,10.676h149.323
		c5.893,0,10.677-4.785,10.677-10.676C336,463.43,331.216,458.664,325.323,458.664z"/>
	<path fill="#080808" d="M325.323,53.335c5.893,0,10.677-4.779,10.677-10.671c0-5.888-4.784-10.662-10.677-10.662
		c-5.892,0-10.656,4.774-10.656,10.662C314.667,48.556,319.432,53.335,325.323,53.335z"/>
	<path fill="#080808" d="M176,53.335h117.323c5.893,0,10.677-4.779,10.677-10.671c0-5.888-4.784-10.662-10.677-10.662H176
		c-5.893,0-10.657,4.774-10.657,10.662C165.343,48.556,170.107,53.335,176,53.335z"/>
	<path fill="#080808" d="M348.235,116.757c-0.754-2.804-2.627-5.171-5.176-6.563c-2.549-1.387-5.559-1.677-8.324-0.804
		c-1.02,0.323-25.412,8.103-49.049,22.789c-9.578,5.961-17.284,11.961-23.422,17.897c-4.686-0.623-8.529-0.74-10.799-0.74
		c-0.343,0-0.608,0-0.794,0c-0.187,0-0.471,0-0.799,0c-1.921,0-5.873,0.103-10.829,0.765c-7.279-7.039-15.529-13.024-23.387-17.922
		c-23.642-14.687-48.03-22.466-49.064-22.789c-2.765-0.873-5.765-0.583-8.309,0.804c-2.549,1.393-4.422,3.76-5.191,6.563
		c-5.671,20.844,8.093,43.123,40.907,66.266c-2.343,8.107-3.157,16.529-3.437,20.554c-1.265,3.642-3.813,12.132-3.892,21.932
		c-0.123,18.362,8.593,32.107,24.579,38.676c27.623,11.363,36.279,12.971,38.716,13.127l0.706,0.049l0.701-0.049
		c2.441-0.156,11.093-1.764,38.716-13.127c15.971-6.568,24.705-20.313,24.568-38.676c-0.068-9.8-2.607-18.29-3.893-21.932
		c-0.265-4.024-1.098-12.446-3.441-20.554C340.138,159.88,353.922,137.601,348.235,116.757z M176.142,135.812
		c8.093,3.445,18.294,8.313,28.25,14.49c3.794,2.362,7.309,4.76,10.53,7.19c-3.765,2.015-7.128,4.373-10.049,7.079
		C190.515,154.257,180.687,144.365,176.142,135.812z M281.971,244.459c-19.813,8.146-28.377,10.632-31.299,11.343
		c-2.937-0.711-11.5-3.196-31.314-11.343c-5.25-2.162-11.28-6.196-11.343-18.334c-0.063-8.534,2.985-16.304,3-16.343l0.672-1.682
		l0.093-1.804c0.422-8.813,2.706-20.476,5.407-23.779c9.421-11.521,30.328-11.854,32.686-11.854c0.25,0,0.421,0.005,0.441,0.005
		l0.294,0.01l0.377-0.01c0.059,0,0.216-0.005,0.48-0.005c2.363,0,23.27,0.333,32.672,11.854c2.705,3.304,4.99,14.966,5.422,23.77
		l0.078,1.813l0.686,1.682c0.029,0.068,2.941,7.5,3,15.872C293.422,238.287,286.893,242.434,281.971,244.459z M296.471,164.576
		c-3.117-2.868-6.52-5.196-10.049-7.084c3.128-2.367,6.529-4.695,10.216-7c10-6.25,20.362-11.181,28.549-14.666
		C320.638,144.38,310.813,154.268,296.471,164.576z"/>
	<path fill="#080808" d="M221.794,195.125c-4.171,4.162-4.171,10.922,0,15.083c4.157,4.167,10.922,4.167,15.079,0
		c4.171-4.161,4.171-10.921,0-15.083C232.716,190.958,225.951,190.958,221.794,195.125z"/>
	<path fill="#080808" d="M264.451,195.125c-4.157,4.162-4.157,10.922,0,15.083c4.177,4.167,10.922,4.167,15.099,0
		c4.156-4.161,4.156-10.921,0-15.083C275.373,190.958,268.628,190.958,264.451,195.125z"/>
</g>
</svg>
