<?xml version="1.0" encoding="utf-8"?>
<!-- Generator: Adobe Illustrator 16.0.0, SVG Export Plug-In . SVG Version: 6.00 Build 0)  -->
<!DOCTYPE svg PUBLIC "-//W3C//DTD SVG 1.1//EN" "http://www.w3.org/Graphics/SVG/1.1/DTD/svg11.dtd">
<svg version="1.1" id="Layer_1" xmlns="http://www.w3.org/2000/svg" xmlns:xlink="http://www.w3.org/1999/xlink" x="0px" y="0px"
	 width="512px" height="512px" viewBox="0 0 512 512" enable-background="new 0 0 512 512" xml:space="preserve">
<g id="psp_game">
	<path d="M479.994,138.666h-60.432L405.326,128H106.668l-14.225,10.667H32.007c0,0-32,21.951-32,117.334
		c0,95.373,32,117.344,32,117.344h60.437L106.668,384h298.658l14.236-10.656h60.432c0,0,32-21.971,32-117.344
		C511.994,160.617,479.994,138.666,479.994,138.666z M478.572,336.941c-2.854,7.166-5.697,11.99-7.854,15.059h-51.156h-7.127
		l-5.688,4.264l-8.529,6.393h-14.215c0-5.873-4.785-10.656-10.678-10.656h-21.322c-5.893,0-10.678,4.783-10.678,10.656H330.66
		c0-5.873-4.766-10.656-10.658-10.656H298.66c-5.873,0-10.658,4.783-10.658,10.656h-53.337c0-5.873-4.77-10.656-10.662-10.656
		s-10.672,4.783-10.672,10.656h-10.667c0-5.873-4.77-10.656-10.662-10.656c-5.893,0-10.672,4.783-10.672,10.656h-10.662
		c0-5.873-4.774-10.656-10.667-10.656h-21.333c-5.892,0-10.667,4.783-10.667,10.656h-14.226l-8.529-6.393L99.561,352h-7.118H41.276
		c-2.147-3.068-5-7.893-7.858-15.059c-5.515-13.854-12.083-39.1-12.083-80.941c0-41.833,6.568-67.099,12.083-80.927
		c2.858-7.182,5.711-12.015,7.858-15.074h51.167h7.118l5.687-4.265l8.529-6.397h284.442l8.529,6.397l5.688,4.265h7.127h51.156
		c2.156,3.059,5,7.892,7.854,15.074c5.52,13.828,12.078,39.093,12.078,80.927C490.65,297.842,484.092,323.088,478.572,336.941z"/>
	<path d="M437.326,245.338c5.893,0,10.678-4.784,10.678-10.671c0-5.892-4.785-10.667-10.678-10.667
		c-5.891,0-10.676,4.774-10.676,10.667C426.65,240.554,431.436,245.338,437.326,245.338z"/>
	<path d="M437.326,266.666c-5.891,0-10.676,4.775-10.676,10.676c0,5.873,4.785,10.658,10.676,10.658
		c5.893,0,10.678-4.785,10.678-10.658C448.004,271.441,443.219,266.666,437.326,266.666z"/>
	<path d="M458.65,245.338c-5.873,0-10.646,4.77-10.646,10.662s4.773,10.666,10.646,10.666c5.912,0,10.676-4.773,10.676-10.666
		S464.562,245.338,458.65,245.338z"/>
	<path d="M416.004,245.338c-5.893,0-10.678,4.77-10.678,10.662s4.785,10.666,10.678,10.666c5.881,0,10.646-4.773,10.646-10.666
		S421.885,245.338,416.004,245.338z"/>
	<path d="M96.002,245.338H85.331v-10.671c0-5.892-4.77-10.667-10.662-10.667c-5.892,0-10.667,4.774-10.667,10.667v10.671H53.335
		c-5.893,0-10.667,4.77-10.667,10.662s4.774,10.666,10.667,10.666h10.667v10.676c0,5.873,4.775,10.658,10.667,10.658
		c5.893,0,10.662-4.785,10.662-10.658v-10.676h10.672c5.892,0,10.666-4.773,10.666-10.666S101.894,245.338,96.002,245.338z"/>
	<path d="M127.998,341.342h256.006V170.666H127.998V341.342z M149.331,192h213.33v128h-213.33V192z"/>
	<path d="M265.125,239.289l-5.211-9.313c-2.383-4.27-5.368-8.201-8.853-11.687c-10.073-10.079-23.465-15.623-37.716-15.623
		c-14.25,0-27.646,5.544-37.715,15.623c-10.079,10.068-15.627,23.471-15.627,37.711c0,14.254,5.549,27.637,15.627,37.715
		c10.069,10.068,23.465,15.629,37.715,15.629c14.25,0,27.643-5.561,37.716-15.629c3.485-3.5,6.47-7.422,8.853-11.686l5.221-9.314
		L235.213,256L265.125,239.289z M234.488,280.029c-5.848,5.156-13.284,7.971-21.143,7.971c-8.554,0-16.593-3.334-22.637-9.373
		c-6.049-6.029-9.378-14.078-9.378-22.627s3.329-16.588,9.378-22.623c6.044-6.049,14.083-9.377,22.637-9.377
		c7.868,0,15.294,2.823,21.143,7.971L191.473,256L234.488,280.029z"/>
	<path d="M269.787,248.461c-4.162,4.166-4.162,10.91,0,15.088c4.166,4.156,10.922,4.156,15.088,0c4.156-4.178,4.156-10.922,0-15.088
		C280.709,244.289,273.953,244.289,269.787,248.461z"/>
	<path d="M301.787,248.461c-4.156,4.166-4.156,10.91,0,15.088c4.166,4.156,10.922,4.156,15.088,0c4.158-4.178,4.158-10.922,0-15.088
		C312.709,244.289,305.953,244.289,301.787,248.461z"/>
	<path d="M333.777,248.461c-4.146,4.166-4.146,10.91,0,15.088c4.176,4.156,10.941,4.156,15.098,0c4.158-4.178,4.158-10.922,0-15.088
		C344.719,244.289,337.953,244.289,333.777,248.461z"/>
</g>
</svg>
