<?xml version="1.0" encoding="utf-8"?>
<!-- Generator: Adobe Illustrator 16.0.0, SVG Export Plug-In . SVG Version: 6.00 Build 0)  -->
<!DOCTYPE svg PUBLIC "-//W3C//DTD SVG 1.1//EN" "http://www.w3.org/Graphics/SVG/1.1/DTD/svg11.dtd">
<svg version="1.1" id="Layer_1" xmlns="http://www.w3.org/2000/svg" xmlns:xlink="http://www.w3.org/1999/xlink" x="0px" y="0px"
	 width="512px" height="512px" viewBox="0 0 512 512" enable-background="new 0 0 512 512" xml:space="preserve">
<g id="sega">
	<path d="M117.335,261.447h170.663c17.657,0,32-14.349,32-32.001c0-17.637-14.343-31.995-32-31.995H117.335
		c-17.642,0-32,14.358-32,31.995C85.335,247.099,99.693,261.447,117.335,261.447z M170.669,240.113v-21.328h64v21.328H170.669z
		 M298.665,229.446c0,5.888-4.794,10.667-10.667,10.667h-32v-21.328h32C293.871,218.785,298.665,223.564,298.665,229.446z
		 M117.335,218.785h32v21.328h-32c-5.882,0-10.667-4.779-10.667-10.667C106.668,223.564,111.453,218.785,117.335,218.785z"/>
	<path d="M511.989,423.869c-0.059-11.912-6.226-50.902-33.746-87.717c-16.156-21.598-36.94-38.715-61.783-50.912
		c-3.618-1.773-7.344-3.461-11.118-5.029v-29.426c0-0.029,0-0.054-0.02-0.083c0-0.314-0.01-0.628-0.05-0.941
		c0-0.068-0.01-0.133-0.01-0.196c-0.029-0.265-0.078-0.529-0.127-0.794c-0.02-0.063-0.02-0.128-0.029-0.187
		c-0.049-0.221-0.107-0.441-0.176-0.657l-53.314-192c-1.295-4.618-5.5-7.809-10.275-7.809h-42.754V26.789H106.6v21.329H63.997
		c-4.784,0-8.99,3.19-10.27,7.809l-53.338,192c-0.059,0.24-0.118,0.48-0.172,0.726c-0.005,0.05-0.015,0.094-0.024,0.143
		c-0.054,0.279-0.093,0.554-0.122,0.843c-0.005,0.039-0.015,0.084-0.015,0.133c-0.029,0.313-0.049,0.617-0.049,0.932
		c0,0.02-0.005,0.054-0.005,0.083v42.662c0,2.52,0.897,4.951,2.53,6.891l36.103,42.658c2.02,2.402,5,3.783,8.137,3.783h87.182
		c-22.471,34.883-27.299,69.227-27.299,77.148c0,6.883,0,21.225,4.868,34.029c6.657,17.568,20.568,27.254,39.171,27.254h0.015
		c35.853-0.02,62.367-9.529,88.015-18.734c22.75-8.166,44.246-15.873,70.677-15.873c26.422,0,47.872,7.707,70.579,15.873
		c25.607,9.205,52.078,18.734,87.951,18.734c12.372,0,22.441-3.812,29.941-11.342C512.145,459.525,512.057,436.34,511.989,423.869z
		 M106.6,140.191c-6.397-2.906-9.338-5.437-10.226-6.74c0.888-1.304,3.819-3.828,10.226-6.74V140.191z M288.292,144.113
		c-2.862,0.917-6.078,1.828-9.686,2.721c-20.736,5.122-47.717,7.951-75.967,7.951c-28.26,0-55.235-2.829-75.976-7.951
		c-3.618-0.893-6.824-1.804-9.681-2.721H288.292z M298.587,126.677c6.471,2.922,9.411,5.471,10.313,6.774
		c-0.902,1.313-3.843,3.854-10.313,6.779V126.677z M127.929,48.118h149.334v74.672H127.929V48.118z M72.11,69.451h13.226
		c0,5.893,4.774,10.667,10.662,10.667c5.485,0,10-4.143,10.603-9.461v33.112c-21.068,7.417-31.74,17.378-31.74,29.682
		c0,33.677,80.319,42.662,127.78,42.662c32.201,0,62.608-3.461,85.604-9.75c27.99-7.638,42.157-18.711,42.157-32.912
		c0-12.328-10.687-22.299-31.813-29.711V69.451h0.078c0,5.893,4.765,10.667,10.677,10.667c5.872,0,10.656-4.774,10.656-10.667
		h13.216l49.657,178.751l-17.029,20.146c-17.569-3.549-36.441-5.342-56.5-5.352c-38.235,0.01-72.167,6.666-100.986,19.783H51.718
		l-29.255-34.577L72.11,69.451z M106.668,325.447H51.718l-30.382-35.902v-9.646l17.299,20.439c2.02,2.402,5,3.785,8.137,3.785
		h59.897V325.447z M127.998,304.123h44.946c-8.25,6.402-15.868,13.51-22.805,21.324h-22.142V304.123z M482.744,458.84
		c-3.372,3.371-8.216,5.029-14.813,5.029c-32.158,0-56.844-8.873-80.736-17.471c-23.422-8.402-47.646-17.129-77.794-17.129
		c-30.157,0-54.413,8.707-77.888,17.129c-23.922,8.598-48.662,17.471-80.804,17.471l-0.015,10.666v-10.666l0,0
		c-9.765,0-15.696-4.158-19.226-13.471c-3.485-9.168-3.485-20.441-3.485-26.471c0-5.559,5.132-40.736,29.524-73.746
		c14.187-19.186,32.402-34.441,54.152-45.342c27.132-13.6,60.005-20.502,97.682-20.502c37.745,0,70.638,6.756,97.735,20.051
		c21.774,10.695,39.98,25.666,54.068,44.539c24.363,32.578,29.471,67.49,29.5,75.049C490.694,433.34,490.773,450.74,482.744,458.84z
		"/>
	<path d="M234.669,368.123h-10.672v-10.676c0-5.893-4.774-10.668-10.667-10.668c-5.887,0-10.661,4.775-10.661,10.668v10.676h-10.672
		c-5.893,0-10.662,4.775-10.662,10.646c0,5.912,4.77,10.678,10.662,10.678h10.672v10.666c0,5.883,4.774,10.656,10.661,10.656
		c5.893,0,10.667-4.773,10.667-10.656v-10.666h10.672c5.887,0,10.662-4.766,10.662-10.678
		C245.331,372.898,240.556,368.123,234.669,368.123z"/>
	<path d="M316.998,378.77h-15.343c-5.893,0-10.657,4.785-10.657,10.678s4.765,10.666,10.657,10.666h15.343
		c5.873,0,10.657-4.773,10.657-10.666S322.871,378.77,316.998,378.77z"/>
	<path d="M330.655,314.779h-42.657c-5.911,0-10.677,4.775-10.677,10.668s4.766,10.676,10.677,10.676h42.657
		c5.902,0,10.666-4.783,10.666-10.676S336.558,314.779,330.655,314.779z"/>
	<path d="M434.214,364.996c4.157-4.178,4.157-10.922,0-15.098c-4.176-4.158-10.921-4.158-15.098,0
		c-4.156,4.176-4.156,10.92,0,15.098C423.272,369.152,430.038,369.152,434.214,364.996z"/>
	<path d="M412.871,375.652c4.167-4.156,4.167-10.912,0-15.078c-4.157-4.176-10.911-4.176-15.079,0
		c-4.176,4.166-4.176,10.922,0,15.078C401.96,379.82,408.714,379.82,412.871,375.652z"/>
	<path d="M391.538,386.32c4.176-4.168,4.176-10.922,0-15.08c-4.167-4.166-10.922-4.166-15.078,0c-4.168,4.158-4.168,10.912,0,15.08
		C380.616,390.496,387.371,390.496,391.538,386.32z"/>
	<path d="M429.793,381.898c-4.177,4.176-4.177,10.922,0,15.098c4.167,4.156,10.921,4.156,15.078,0
		c4.167-4.176,4.167-10.922,0-15.098C440.714,377.74,433.96,377.74,429.793,381.898z"/>
	<path d="M408.46,392.574c-4.168,4.166-4.168,10.922,0,15.078c4.156,4.168,10.911,4.168,15.078,0c4.176-4.156,4.176-10.912,0-15.078
		C419.371,388.398,412.616,388.398,408.46,392.574z"/>
	<path d="M387.116,403.24c-4.156,4.158-4.156,10.912,0,15.08c4.156,4.176,10.922,4.176,15.098,0c4.157-4.168,4.157-10.922,0-15.08
		C398.038,399.074,391.292,399.074,387.116,403.24z"/>
</g>
</svg>
