<?xml version="1.0" encoding="utf-8"?>
<!-- Generator: Adobe Illustrator 16.0.0, SVG Export Plug-In . SVG Version: 6.00 Build 0)  -->
<!DOCTYPE svg PUBLIC "-//W3C//DTD SVG 1.1//EN" "http://www.w3.org/Graphics/SVG/1.1/DTD/svg11.dtd">
<svg version="1.1" id="Layer_1" xmlns="http://www.w3.org/2000/svg" xmlns:xlink="http://www.w3.org/1999/xlink" x="0px" y="0px"
	 width="512px" height="512px" viewBox="0 0 512 512" enable-background="new 0 0 512 512" xml:space="preserve">
<g id="sega_gamepad">
	<path fill="#080808" d="M511.989,436.615c-0.029-6.117-1.745-21.844-8-42.088c-7.667-24.893-19.295-47.844-34.529-68.236
		c-20.344-27.215-46.539-48.812-77.854-64.186c-28.607-14.039-61.549-22.862-98.285-26.372v-33.735
		c0-5.893-4.773-10.662-10.666-10.662h-5.334v-32c0-5.883,4.785-10.672,10.677-10.672l0,0h117.324c17.677,0,32-14.318,32-32
		c0-17.672-14.323-32-32-32H127.998v0.01c-5.888,0-10.672-4.789-10.672-10.672c0-5.882,4.784-10.666,10.672-10.666l0,0h117.329
		c17.672,0,31.995-14.329,31.995-32.001V10.664c0-5.888-4.774-10.662-10.666-10.662c-5.893,0-10.658,4.774-10.658,10.662v20.671
		c0,5.888-4.799,10.667-10.671,10.667H127.998l0,0c-17.672,0-32,14.328-32,32s14.328,32,32,32l0,0h277.325
		c5.872,0,10.677,4.789,10.677,10.662c0,5.883-4.805,10.672-10.677,10.672H287.998l0,0c-17.677,0-32,14.328-32,32v32h-5.343
		c-5.893,0-10.657,4.77-10.657,10.662v32.318c-45.358,1.813-85.564,11.362-119.672,28.455c-31.23,15.668-57.422,37.6-77.843,65.227
		C7.203,375.732,0.001,425.842,0.001,436.654c0,9.275,0,26.559,6.03,42.461c8.157,21.5,24.5,32.883,47.28,32.883h0.034
		c45.279-0.02,78.917-12.078,111.437-23.754c29.323-10.531,57.029-20.471,91.309-20.471c34.28,0,61.917,9.939,91.182,20.471
		c32.49,11.676,66.079,23.754,111.373,23.754c15,0,27.177-4.578,36.157-13.598C512.194,480.9,512.058,452.086,511.989,436.615z
		 M261.327,234.037v-21.373h10.671v21.647C268.469,234.179,264.92,234.076,261.327,234.037z M479.685,483.342
		c-4.911,4.932-11.783,7.303-21.039,7.303c-41.568,0-73.383-11.412-104.146-22.48c-29.688-10.666-60.412-21.715-98.408-21.715
		c-38,0-68.765,11.049-98.515,21.715c-30.794,11.049-62.657,22.48-104.245,22.48h-0.02c-22.422,0-31.98-16.137-31.98-53.99
		c0-2.422,1.186-15.312,7-33.941c4.843-15.529,14.201-38.893,31.309-62.029c18.407-24.902,42.029-44.705,70.25-58.844
		c35.079-17.578,77.515-26.499,126.123-26.514c48.702,0.015,91.153,8.74,126.182,25.936c28.266,13.863,51.863,33.324,70.177,57.795
		c31.608,42.285,38.245,87.785,38.274,97.656C490.714,449.086,490.822,472.154,479.685,483.342z"/>
	<path fill="#080808" d="M149.326,308.654c-35.279,0-64,28.717-64,64c0,35.295,28.721,64,64,64c35.299,0,64-28.705,64-64
		C213.326,337.371,184.625,308.654,149.326,308.654z M149.326,415.322c-23.515,0-42.657-19.139-42.657-42.668
		c0-23.52,19.143-42.656,42.657-42.656c23.529,0,42.672,19.137,42.672,42.656C191.998,396.184,172.855,415.322,149.326,415.322z"/>
	<path fill="#080808" d="M170.669,361.998h-10.671V351.32c0-5.891-4.779-10.666-10.672-10.666c-5.892,0-10.657,4.775-10.657,10.666
		v10.678h-10.671c-5.888,0-10.672,4.783-10.672,10.656c0,5.902,4.784,10.668,10.672,10.668h10.671v10.676
		c0,5.893,4.765,10.656,10.657,10.656c5.893,0,10.672-4.764,10.672-10.656v-10.676h10.671c5.892,0,10.657-4.766,10.657-10.668
		C181.326,366.781,176.561,361.998,170.669,361.998z"/>
	<path fill="#080808" d="M338.194,358.871c4.177-4.158,4.177-10.922,0-15.09c-4.156-4.156-10.922-4.156-15.078,0
		c-4.167,4.168-4.167,10.932,0,15.09C327.272,363.027,334.038,363.027,338.194,358.871z"/>
	<path fill="#080808" d="M380.871,348.213c4.157-4.186,4.157-10.932,0-15.088c-4.177-4.176-10.922-4.176-15.099,0
		c-4.156,4.156-4.156,10.902,0,15.088C369.949,352.371,376.694,352.371,380.871,348.213z"/>
	<path fill="#080808" d="M423.538,337.527c4.156-4.156,4.156-10.902,0-15.078c-4.167-4.168-10.922-4.168-15.088,0
		c-4.158,4.176-4.158,10.922,0,15.078C412.616,341.703,419.371,341.703,423.538,337.527z"/>
	<path fill="#080808" d="M426.646,351.32c-11.304,0-21.265,5.922-26.951,14.805c-4.637-2.627-10-4.127-15.695-4.127
		c-11.314,0-21.285,5.902-26.971,14.793c-4.638-2.627-10-4.137-15.707-4.137c-17.637,0-32,14.373-32,32c0,17.658,14.363,32,32,32
		c11.314,0,21.285-5.912,26.971-14.783c4.638,2.627,10,4.127,15.707,4.127c11.313,0,21.264-5.912,26.961-14.814
		c4.646,2.629,9.99,4.139,15.686,4.139c17.657,0,32-14.354,32-32C458.646,365.684,444.303,351.32,426.646,351.32z M341.321,415.322
		c-5.872,0-10.666-4.775-10.666-10.668c0-5.883,4.794-10.656,10.666-10.656c5.893,0,10.678,4.773,10.678,10.656
		C351.999,410.547,347.214,415.322,341.321,415.322z M383.999,404.654c-5.893,0-10.677-4.783-10.677-10.656
		c0-5.883,4.784-10.676,10.677-10.676c5.872,0,10.656,4.793,10.656,10.676C394.655,399.871,389.871,404.654,383.999,404.654z
		 M426.646,393.998c-5.873,0-10.646-4.785-10.646-10.676c0-5.893,4.773-10.668,10.646-10.668c5.893,0,10.677,4.775,10.677,10.668
		C437.322,389.213,432.538,393.998,426.646,393.998z"/>
	<path fill="#080808" d="M277.321,361.998h-21.324c-5.892,0-10.671,4.783-10.671,10.656c0,5.902,4.779,10.668,10.671,10.668h21.324
		c5.893,0,10.677-4.766,10.677-10.668C287.998,366.781,283.214,361.998,277.321,361.998z"/>
	<path fill="#080808" d="M298.655,276.654h-64c-5.878,0-10.657,4.785-10.657,10.666c0,5.893,4.779,10.678,10.657,10.678h64
		c5.902,0,10.666-4.785,10.666-10.678C309.321,281.439,304.558,276.654,298.655,276.654z"/>
</g>
</svg>
