<?xml version="1.0" encoding="utf-8"?>
<!-- Generator: Adobe Illustrator 16.0.0, SVG Export Plug-In . SVG Version: 6.00 Build 0)  -->
<!DOCTYPE svg PUBLIC "-//W3C//DTD SVG 1.1//EN" "http://www.w3.org/Graphics/SVG/1.1/DTD/svg11.dtd">
<svg version="1.1" id="Layer_1" xmlns="http://www.w3.org/2000/svg" xmlns:xlink="http://www.w3.org/1999/xlink" x="0px" y="0px"
	 width="512px" height="512px" viewBox="0 0 512 512" enable-background="new 0 0 512 512" xml:space="preserve">
<g id="slot_machine">
	<path fill="#080808" d="M149.338,191.998H64c-5.887,0-10.662,4.774-10.662,10.671v149.329c0,5.893,4.774,10.656,10.662,10.656
		h85.338c5.888,0,10.662-4.764,10.662-10.656V202.669C160,196.772,155.226,191.998,149.338,191.998z M138.667,341.34h-64V213.336h64
		V341.34z"/>
	<path fill="#080808" d="M288,202.669v149.329c0,5.893,4.784,10.656,10.657,10.656h85.344c5.882,0,10.656-4.764,10.656-10.656
		V202.669c0-5.896-4.774-10.671-10.656-10.671h-85.344C292.784,191.998,288,196.772,288,202.669z M309.344,213.336h64V341.34h-64
		V213.336z"/>
	<path fill="#080808" d="M266.667,191.998h-85.329c-5.892,0-10.671,4.774-10.671,10.671v149.329c0,5.893,4.78,10.656,10.671,10.656
		h85.329c5.893,0,10.676-4.764,10.676-10.656V202.669C277.343,196.772,272.56,191.998,266.667,191.998z M256,341.34h-64V213.336h64
		V341.34z"/>
	<path fill="#080808" d="M90.524,266.664h14.681l-13.54,26.863c-2.646,5.264-0.529,11.686,4.726,14.334
		c1.539,0.764,3.182,1.137,4.79,1.137c3.907,0,7.662-2.137,9.539-5.873l21.329-42.324c2.657-5.264,0.539-11.676-4.726-14.327
		c-1.51-0.765-3.127-1.118-4.711-1.133c-0.034,0-0.059-0.005-0.088-0.005h-32c-5.888,0-10.662,4.77-10.662,10.662
		S84.637,266.664,90.524,266.664z"/>
	<path fill="#080808" d="M208,266.664h14.677l-13.535,26.863c-2.652,5.264-0.534,11.686,4.726,14.334
		c1.539,0.764,3.181,1.137,4.79,1.137c3.906,0,7.661-2.137,9.539-5.873l21.323-42.324c2.657-5.264,0.539-11.676-4.726-14.327
		c-1.515-0.765-3.122-1.118-4.71-1.133c-0.03,0-0.054-0.005-0.083-0.005h-32c-5.892,0-10.667,4.77-10.667,10.662
		S202.108,266.664,208,266.664z"/>
	<path fill="#080808" d="M362.118,246.474c-1.5-0.765-3.117-1.118-4.716-1.133c-0.01,0-0.049-0.005-0.059-0.005h-32
		c-5.912,0-10.687,4.77-10.687,10.662s4.774,10.666,10.687,10.666h14.667l-13.54,26.863c-2.657,5.264-0.539,11.686,4.726,14.334
		c1.549,0.764,3.177,1.137,4.804,1.137c3.893,0,7.657-2.137,9.53-5.873l21.323-42.324
		C369.501,255.537,367.393,249.125,362.118,246.474z"/>
	<path fill="#080808" d="M224,138.674c5.892,0,10.662-4.784,10.662-10.677V42.674c0-5.893-4.77-10.672-10.662-10.672
		s-10.667,4.779-10.667,10.672v85.323C213.333,133.89,218.108,138.674,224,138.674z"/>
	<path fill="#080808" d="M182.765,141.914c1.971,3.422,5.554,5.328,9.245,5.328c1.809,0,3.647-0.46,5.323-1.431
		c5.104-2.946,6.849-9.466,3.902-14.569l-42.667-73.896c-2.941-5.104-9.466-6.854-14.568-3.907
		c-5.099,2.946-6.854,9.471-3.907,14.568L182.765,141.914z"/>
	<path fill="#080808" d="M177.813,165.336c2.946-5.104,1.196-11.628-3.907-14.568l-73.897-42.667
		c-5.104-2.951-11.628-1.201-14.569,3.896c-2.946,5.104-1.206,11.628,3.902,14.574l73.902,42.671
		c1.676,0.966,3.515,1.427,5.318,1.427C172.25,170.669,175.838,168.758,177.813,165.336z"/>
	<path fill="#080808" d="M348.001,108.101l-73.912,42.667c-5.099,2.94-6.844,9.465-3.902,14.568
		c1.971,3.422,5.559,5.333,9.245,5.333c1.813,0,3.647-0.461,5.313-1.427l73.912-42.671c5.088-2.946,6.844-9.471,3.902-14.574
		C359.618,106.899,353.089,105.149,348.001,108.101z"/>
	<path fill="#080808" d="M250.662,145.812c1.681,0.976,3.515,1.431,5.328,1.431c3.682,0,7.265-1.906,9.245-5.328l42.667-73.907
		c2.941-5.098,1.187-11.622-3.902-14.568c-5.098-2.946-11.627-1.196-14.568,3.907l-42.667,73.896
		C243.813,136.346,245.559,142.865,250.662,145.812z"/>
	<path fill="#080808" d="M231.539,178.208c4.172-4.161,4.172-10.921,0-15.083c-4.167-4.167-10.917-4.167-15.078,0
		c-4.172,4.162-4.172,10.922,0,15.083C220.623,182.375,227.373,182.375,231.539,178.208z"/>
	<path fill="#080808" d="M490.647,245.336h-10.656v-76.5c12.412-4.407,21.343-16.265,21.343-30.162c0-17.652-14.372-32-31.99-32
		c-17.657,0-32,14.348-32,32c0,13.897,8.901,25.755,21.304,30.162v76.5h-10.646c0-5.893-4.785-10.667-10.657-10.667v-21.333
		c0-56.985-22.206-110.555-62.5-150.849C334.56,22.198,280.98,0.002,224,0.002c-56.985,0-110.554,22.196-150.849,62.485
		c-40.289,40.294-62.485,93.863-62.485,150.849v245.318c0,5.902,4.784,10.688,10.672,10.688h21.328v32
		c0,5.871,4.779,10.656,10.672,10.656h341.319c5.902,0,10.687-4.785,10.687-10.656v-32h21.304c5.912,0,10.696-4.785,10.696-10.688
		V319.998c5.872,0,10.657-4.785,10.657-10.656h42.646c5.912,0,10.687-4.785,10.687-10.688v-42.656
		C501.334,250.105,496.56,245.336,490.647,245.336z M469.344,127.997c5.872,0,10.647,4.79,10.647,10.677
		c0,5.883-4.775,10.662-10.647,10.662c-5.892,0-10.696-4.779-10.696-10.662C458.647,132.787,463.452,127.997,469.344,127.997z
		 M384.001,490.645h-21.344c0-5.871-4.774-10.646-10.656-10.646c-5.893,0-10.658,4.775-10.658,10.646H320
		c0-5.871-4.784-10.646-10.656-10.646c-5.912,0-10.687,4.775-10.687,10.646H170.667c0-5.871-4.774-10.646-10.667-10.646H96
		c-5.888,0-10.662,4.775-10.662,10.646H64v-21.303h320.001V490.645z M96.098,437.342h63.809c5.892,0,10.662-4.785,10.662-10.688
		h10.863c0,5.902,4.775,10.688,10.662,10.688h63.814c5.887,0,10.662-4.785,10.662-10.688h10.862c0,5.902,4.774,10.688,10.657,10.688
		h63.813c5.892,0,10.657-4.785,10.657-10.688h13.107l5.334,21.344H66.995l5.333-21.344h13.103
		C85.431,432.557,90.206,437.342,96.098,437.342z M106.765,415.998v-10.656h42.471v10.656H106.765z M202.765,415.998v-10.656h42.471
		v10.656H202.765z M298.765,415.998v-10.656h42.471v10.656H298.765z M416.001,447.998h-13l-8.657-34.598
		c-1.187-4.746-5.461-8.059-10.343-8.059H362.56v-10.688c0-5.883-4.766-10.656-10.657-10.656h-63.813
		c-5.883,0-10.657,4.773-10.657,10.656v10.688h-10.862v-10.688c0-5.883-4.775-10.656-10.662-10.656h-63.814
		c-5.887,0-10.662,4.773-10.662,10.656v10.688h-10.863v-10.688c0-5.883-4.77-10.656-10.662-10.656H96.098
		c-5.892,0-10.667,4.773-10.667,10.656v10.688H64c-4.887,0-9.162,3.312-10.348,8.059l-8.642,34.598H32.004V213.336
		c0-51.289,19.966-99.5,56.23-135.765C124.5,41.306,172.721,21.335,224,21.335c51.274,0,99.5,19.971,135.765,56.236
		c36.266,36.265,56.236,84.476,56.236,135.765V447.998z M479.991,287.998h-31.99v-21.334h31.99V287.998z"/>
</g>
</svg>
