<?xml version="1.0" encoding="utf-8"?>
<!-- Generator: Adobe Illustrator 16.0.0, SVG Export Plug-In . SVG Version: 6.00 Build 0)  -->
<!DOCTYPE svg PUBLIC "-//W3C//DTD SVG 1.1//EN" "http://www.w3.org/Graphics/SVG/1.1/DTD/svg11.dtd">
<svg version="1.1" id="Layer_1" xmlns="http://www.w3.org/2000/svg" xmlns:xlink="http://www.w3.org/1999/xlink" x="0px" y="0px"
	 width="512px" height="512px" viewBox="0 0 512 512" enable-background="new 0 0 512 512" xml:space="preserve">
<g id="tv_game_2">
	<path d="M394.66,74.676c5.902,0,10.686-4.784,10.686-10.672c0-5.892-4.783-10.672-10.686-10.672
		c-5.883,0-10.656,4.78-10.656,10.672C384.004,69.892,388.777,74.676,394.66,74.676z"/>
	<path d="M394.66,117.333c5.902,0,10.686-4.77,10.686-10.657c0-5.893-4.783-10.672-10.686-10.672
		c-5.883,0-10.656,4.779-10.656,10.672C384.004,112.563,388.777,117.333,394.66,117.333z"/>
	<path d="M501.336,384h-53.332l-21.354-32h-16v-21.334h16c11.785,0,21.354-9.559,21.354-21.344V202.813c0-0.049,0-0.094,0-0.143
		c0-0.063,0-0.107,0-0.156V32.004c0-11.779-9.568-21.328-21.354-21.328H21.34c-11.78,0-21.334,9.549-21.334,21.328v277.318
		c0,11.785,9.554,21.344,21.334,21.344h336.005V352h-16l-21.344,32H266.67c-5.893,0-10.667,4.764-10.667,10.666v63.99
		c0,1.902,0.505,3.775,1.476,5.422l18.818,32c1.922,3.246,5.422,5.246,9.205,5.246h196.992c3.783,0,7.283-2,9.205-5.246l18.834-32
		c0.961-1.646,1.461-3.52,1.461-5.422v-63.99C511.994,388.764,507.219,384,501.336,384z M234.665,266.666v-31.995
		c0-5.887-4.77-10.671-10.662-10.671h-10.682l-0.005-10.672c0-5.893-4.784-10.657-10.667-10.657h-0.005l-42.642,0.015
		c-5.893,0-10.662,4.784-10.662,10.657V224H64.002V74.676H266.67v10.657h-53.334c-5.887,0-10.671,4.779-10.671,10.671v42.672
		c0,5.888,4.785,10.652,10.671,10.652h10.667v32c0,5.892,4.774,10.672,10.662,10.672h32.005v74.666H234.665z M149.34,266.666
		v-21.338h10.662c5.892,0,10.667-4.765,10.667-10.657v-10.656L191.993,224l0.01,10.671c0.01,5.893,4.779,10.657,10.662,10.657
		h10.671v21.338H149.34z M64.002,266.666v-21.338h64v21.338H64.002z M234.665,127.999h-10.662v-21.323h42.667v63.995h-21.334
		v-31.995C245.336,132.784,240.556,127.999,234.665,127.999z M288.002,181.328V96.004V74.676h53.344v80.344
		c-13.098,11.715-21.344,28.73-21.344,47.651c0,18.907,8.246,35.922,21.344,47.657v16.338h-53.344V181.328z M341.346,202.671
		c0-23.529,19.129-42.672,42.658-42.672s42.646,19.143,42.646,42.672c0,23.515-19.117,42.657-42.646,42.657
		S341.346,226.186,341.346,202.671z M410.65,309.322v-48.48c5.883-2.699,11.254-6.264,16-10.514v58.994H410.65z M21.34,309.322
		V32.004h405.31l0,0v122.995c-11.305-10.156-26.275-16.323-42.646-16.323c-7.471,0-14.658,1.279-21.344,3.652V74.676
		c0-11.784-9.539-21.344-21.314-21.344H64.002c-11.779,0-21.333,9.56-21.333,21.344v191.99c0,11.785,9.554,21.334,21.333,21.334
		h277.344c6.354,0,12.078-2.795,16-7.236v28.559H21.34z M378.66,266.441c1.773,0.156,3.539,0.225,5.344,0.225
		c1.793,0,3.578-0.068,5.342-0.225V352H378.66V266.441z M352.748,373.324h4.598l0,0h53.305l0,0h4.598l11.402,17.127v14.873h-85.275
		l-0.029-14.893L352.748,373.324z M320.062,405.324l0.02,10.676c0,5.893,4.764,10.666,10.666,10.666h106.598
		c5.873,0,10.658-4.773,10.658-10.666v-10.676h42.646V448H277.346v-42.676H320.062z M476.406,480H291.592l-6.275-10.676h197.373
		L476.406,480z"/>
	<path d="M384.004,192c2.715,0,5.461-1.045,7.529-3.123c4.166-4.172,4.166-10.922,0-15.078c-2.068-2.094-4.814-3.128-7.529-3.128
		l0,0l0,0l0,0c-17.629,0-31.941,14.299-32,31.907c-0.041,2.75,1.01,5.515,3.117,7.627c4.156,4.172,10.912,4.172,15.098,0
		c2.059-2.078,3.127-4.813,3.127-7.534l0,0C373.346,196.784,378.121,192,384.004,192L384.004,192z"/>
</g>
</svg>
