<?xml version="1.0" encoding="utf-8"?>
<!-- Generator: Adobe Illustrator 16.0.0, SVG Export Plug-In . SVG Version: 6.00 Build 0)  -->
<!DOCTYPE svg PUBLIC "-//W3C//DTD SVG 1.1//EN" "http://www.w3.org/Graphics/SVG/1.1/DTD/svg11.dtd">
<svg version="1.1" id="Layer_1" xmlns="http://www.w3.org/2000/svg" xmlns:xlink="http://www.w3.org/1999/xlink" x="0px" y="0px"
	 width="512px" height="512px" viewBox="0 0 512 512" enable-background="new 0 0 512 512" xml:space="preserve">
<g id="tv_game_1">
	<path fill="#080808" d="M490.65,149.335H281.748L412.875,18.212c4.158-4.167,4.158-10.922,0-15.088
		c-4.156-4.162-10.92-4.162-15.098,0l-141.775,141.79L114.213,3.124c-4.162-4.162-10.921-4.162-15.083,0
		c-4.167,4.167-4.167,10.921,0,15.088l131.123,131.123H21.34c-11.78,0-21.334,9.544-21.334,21.328v319.981
		c0,11.785,9.554,21.354,21.334,21.354h469.31c11.785,0,21.344-9.568,21.344-21.354V170.663
		C511.994,158.879,502.436,149.335,490.65,149.335z M490.65,490.645H21.34V170.663h469.31V490.645z"/>
	<path fill="#080808" d="M85.34,447.998h277.32c11.773,0,21.344-9.568,21.344-21.344V234.664c0-11.785-9.57-21.329-21.344-21.329
		H85.34c-11.779,0-21.338,9.544-21.338,21.329v191.991C64.002,438.43,73.561,447.998,85.34,447.998z M85.34,405.322h64v21.332h-64
		V405.322z M234.665,426.654h-63.996v-21.332h10.671c5.888,0,10.662-4.775,10.662-10.658v-10.656l21.328-0.01l0.005,10.666
		c0,5.893,4.775,10.658,10.667,10.658h10.662V426.654z M256.002,287.998h-10.667v-21.334h42.666v63.99H266.67v-32
		C266.67,292.762,261.891,287.998,256.002,287.998z M309.346,341.32h53.314v42.678h-53.314V341.32z M309.346,319.998V277.32h53.314
		v42.678H309.346z M309.346,426.654v-21.332h53.314v21.332H309.346z M362.66,255.998h-53.314v-21.334h53.314V255.998z
		 M288.002,234.664v10.671h-53.337c-5.888,0-10.662,4.77-10.662,10.663v42.657c0,5.893,4.774,10.666,10.662,10.666h10.671v32
		c0,5.893,4.774,10.678,10.667,10.678h32v74.656h-32v-32c0-5.893-4.774-10.656-10.667-10.656H234.66l-0.01-10.676
		c-0.01-5.893-4.78-10.668-10.662-10.668h-0.01l-42.647,0.029c-5.882,0-10.657,4.766-10.657,10.658l-0.005,10.656H85.34V234.664
		H288.002z"/>
	<path fill="#080808" d="M437.346,234.664c5.873,0,10.658-4.775,10.658-10.667c0-5.893-4.785-10.662-10.658-10.662
		c-5.91,0-10.695,4.77-10.695,10.662C426.65,229.889,431.436,234.664,437.346,234.664z"/>
	<path fill="#080808" d="M437.346,277.32c5.873,0,10.658-4.773,10.658-10.656c0-5.893-4.785-10.667-10.658-10.667
		c-5.91,0-10.695,4.774-10.695,10.667C426.65,272.547,431.436,277.32,437.346,277.32z"/>
	<path fill="#080808" d="M437.346,319.998c5.873,0,10.658-4.785,10.658-10.678c0-5.881-4.785-10.666-10.658-10.666
		c-5.91,0-10.695,4.785-10.695,10.666C426.65,315.213,431.436,319.998,437.346,319.998z"/>
	<path fill="#080808" d="M437.355,447.654c17.58,0,31.834-14.254,31.834-31.832c0-17.58-14.254-31.824-31.834-31.824
		c-17.578,0-31.822,14.244-31.822,31.824C405.533,433.4,419.777,447.654,437.355,447.654z M437.355,405.322
		c5.795,0,10.5,4.715,10.5,10.5c0,5.793-4.705,10.5-10.5,10.5c-5.793,0-10.5-4.707-10.5-10.5
		C426.855,410.037,431.562,405.322,437.355,405.322z"/>
</g>
</svg>
