<?xml version="1.0" encoding="utf-8"?>
<!-- Generator: Adobe Illustrator 16.0.0, SVG Export Plug-In . SVG Version: 6.00 Build 0)  -->
<!DOCTYPE svg PUBLIC "-//W3C//DTD SVG 1.1//EN" "http://www.w3.org/Graphics/SVG/1.1/DTD/svg11.dtd">
<svg version="1.1" id="Layer_1" xmlns="http://www.w3.org/2000/svg" xmlns:xlink="http://www.w3.org/1999/xlink" x="0px" y="0px"
	 width="512px" height="512px" viewBox="0 0 512 512" enable-background="new 0 0 512 512" xml:space="preserve">
<g id="video_game_machine">
	<path fill="#080808" d="M370.215,312.449c-4.176-4.168-10.941-4.168-15.098,0c-4.156,4.176-4.156,10.922,0,15.078
		c4.156,4.176,10.922,4.176,15.098,0C374.373,323.371,374.373,316.625,370.215,312.449z"/>
	<path fill="#080808" d="M131.126,312.449c-4.167,4.176-4.167,10.922,0,15.078c4.162,4.176,10.922,4.176,15.084,0
		c4.166-4.156,4.166-10.902,0-15.078C142.048,308.281,135.289,308.281,131.126,312.449z"/>
	<path fill="#080808" d="M173.789,312.449c-4.162,4.176-4.162,10.922,0,15.078c4.162,4.176,10.922,4.176,15.083,0
		c4.167-4.156,4.167-10.902,0-15.078C184.71,308.281,177.951,308.281,173.789,312.449z"/>
	<path fill="#080808" d="M416,288.027V10.664c0-5.888-4.785-10.662-10.656-10.662H106.666C100.774,0.002,96,4.776,96,10.664v277.363
		c0,0.02,0,0.029,0,0.029v202.588c0,5.912,4.774,10.697,10.666,10.697h10.672c0,5.871,4.774,10.656,10.662,10.656
		c5.892,0,10.667-4.785,10.667-10.656h234.678c0,5.871,4.764,10.656,10.656,10.656c5.883,0,10.656-4.785,10.656-10.656h10.688
		c5.871,0,10.656-4.785,10.656-10.697V288.057C416,288.057,416,288.047,416,288.027z M117.337,75.526l31.564,25.255l-9.971,119.594
		l-21.593,32.397V75.526z M342.186,106.664l8.893,106.672h-118.25c1.187-3.343,1.834-6.932,1.834-10.672c0-17.642-14.349-32-32-32
		c-17.637,0-31.995,14.358-31.995,32c0,3.74,0.652,7.329,1.833,10.672h-11.579l8.892-106.672H342.186z M192,202.664
		c0-5.882,4.779-10.666,10.662-10.666c5.887,0,10.671,4.784,10.671,10.666c0,5.883-4.784,10.672-10.671,10.672
		C196.779,213.336,192,208.547,192,202.664z M155.039,234.664H192v21.334c0,5.893,4.774,10.666,10.662,10.666
		c5.892,0,10.671-4.773,10.671-10.666v-21.334h143.628l28.441,42.676h-258.81L155.039,234.664z M373.059,220.375l-9.971-119.594
		l31.568-25.255v177.246L373.059,220.375z M348.244,85.336h-184.5l-26.667-21.334h237.844L348.244,85.336z M117.337,298.654h277.319
		v42.686H117.337V298.654z M394.656,21.335v21.329H117.337V21.335H394.656z M117.337,479.998V362.654h277.319v117.344H117.337z"/>
	<path fill="#080808" d="M277.342,245.336H256c-5.892,0-10.667,4.77-10.667,10.662s4.774,10.666,10.667,10.666h21.342
		c5.873,0,10.658-4.773,10.658-10.666S283.215,245.336,277.342,245.336z"/>
	<path fill="#080808" d="M330.656,245.336h-21.312c-5.912,0-10.688,4.77-10.688,10.662s4.775,10.666,10.688,10.666h21.312
		c5.902,0,10.686-4.773,10.686-10.666S336.559,245.336,330.656,245.336z"/>
	<path fill="#080808" d="M330.656,309.342h-21.312c-5.912,0-10.688,4.764-10.688,10.656s4.775,10.656,10.688,10.656h21.312
		c5.902,0,10.686-4.764,10.686-10.656S336.559,309.342,330.656,309.342z"/>
</g>
</svg>
