<?xml version="1.0" encoding="utf-8"?>
<!-- Generator: Adobe Illustrator 16.0.0, SVG Export Plug-In . SVG Version: 6.00 Build 0)  -->
<!DOCTYPE svg PUBLIC "-//W3C//DTD SVG 1.1//EN" "http://www.w3.org/Graphics/SVG/1.1/DTD/svg11.dtd">
<svg version="1.1" id="Layer_1" xmlns="http://www.w3.org/2000/svg" xmlns:xlink="http://www.w3.org/1999/xlink" x="0px" y="0px"
	 width="512px" height="512px" viewBox="0 0 512 512" enable-background="new 0 0 512 512" xml:space="preserve">
<path id="wheel_of_fortune" fill="#080808" d="M473.498,322.969c11.383-28.129,17.156-57.828,17.156-88.305
	c0-30.471-5.773-60.182-17.156-88.299c-11.805-29.113-29.146-55.23-51.559-77.633c-22.402-22.397-48.529-39.74-77.619-51.544
	C316.193,5.781,286.479,0.002,256.012,0.002c-30.48,0-60.187,5.779-88.294,17.187c-29.123,11.804-55.25,29.146-77.638,51.544
	c-22.393,22.402-39.735,48.52-51.549,77.633c-11.407,28.117-17.186,57.828-17.186,88.299c0,30.477,5.779,60.176,17.186,88.305
	c11.814,29.107,29.157,55.225,51.549,77.617c8.672,8.686,17.922,16.598,27.672,23.727l-48.486,66.332H53.345
	c-5.893,0-10.672,4.785-10.672,10.697c0,5.871,4.779,10.656,10.672,10.656h21.313h0.015c0,0,0,0,0.015,0h21.329
	c5.892,0,10.656-4.785,10.656-10.656c0-5.912-4.765-10.697-10.656-10.697h-0.329l39.858-54.529
	c10.25,6.127,20.985,11.5,32.172,16.039c28.107,11.383,57.813,17.168,88.294,17.168c30.466,0,60.181-5.785,88.308-17.168
	c11.158-4.539,21.902-9.912,32.148-16.039l39.883,54.529h-0.344c-5.883,0-10.656,4.785-10.656,10.697
	c0,5.871,4.773,10.656,10.656,10.656h21.344l0,0c0,0,0,0,0.029,0h21.273c5.912,0,10.697-4.785,10.697-10.656
	c0-5.912-4.785-10.697-10.697-10.697h-15.902l-48.471-66.332c9.756-7.129,18.971-15.041,27.658-23.727
	C444.352,378.193,461.693,352.076,473.498,322.969z M399.096,362.664c17.912-19.961,31.217-43.088,39.412-68.059l20.617,5.529
	c-9.156,28.549-24.344,54.951-44.902,77.637L399.096,362.664z M256.012,405.322c-45.593,0-88.451-17.746-120.682-49.98
	c-32.235-32.236-49.985-75.1-49.985-120.678c0-45.588,17.75-88.446,49.985-120.682c29.716-29.701,68.432-47.098,110.01-49.646v42.75
	c-65.623,5.436-117.353,60.578-117.353,127.578c0,70.578,57.431,128.02,128.024,128.02c70.583,0,128.025-57.441,128.025-128.02
	c0-67-51.756-122.143-117.363-127.578v-42.75c41.578,2.549,80.295,19.945,110.02,49.646c32.217,32.235,49.961,75.094,49.961,120.682
	c0,45.578-17.744,88.441-49.961,120.678C344.439,387.576,301.596,405.322,256.012,405.322z M42.673,234.664
	c0-15.26,1.608-30.274,4.721-44.853l20.638,5.529c-2.657,12.789-4.015,25.956-4.015,39.323c0,13.373,1.358,26.529,4.015,39.334
	l-20.638,5.529C44.281,264.934,42.673,249.929,42.673,234.664z M73.517,174.723l-20.642-5.529
	c9.172-28.544,24.363-54.961,44.922-77.647l15.127,15.108C95.002,126.635,81.688,149.747,73.517,174.723z M256.012,245.326
	c5.892,0,10.662-4.774,10.662-10.662v-41.313c18.393,4.75,31.99,21.471,31.99,41.313c0,23.529-19.127,42.676-42.652,42.676
	c-23.529,0-42.672-19.146-42.672-42.676c0-19.843,13.628-36.563,32-41.313v41.313C245.341,240.552,250.125,245.326,256.012,245.326z
	 M245.341,171.562c-30.23,5.093-53.324,31.446-53.324,63.103c0,35.285,28.701,63.99,63.995,63.99
	c35.269,0,63.996-28.705,63.996-63.99c0-31.656-23.098-58.01-53.334-63.103v-43.064c53.834,5.378,96.02,50.932,96.02,106.167
	c0,58.834-47.842,106.688-106.681,106.688c-58.838,0-106.701-47.854-106.701-106.688c0-55.235,42.187-100.789,96.03-106.167V171.562
	z M245.341,32.002v10.966c-9.701,0.524-19.28,1.774-28.657,3.721l-5.53-20.643c14.579-3.107,29.593-4.711,44.858-4.711
	C250.125,21.335,245.341,26.11,245.341,32.002z M469.352,234.664c0,15.265-1.629,30.27-4.727,44.863l-20.656-5.529
	c2.656-12.805,4.039-25.961,4.039-39.334c0-13.367-1.383-26.534-4.039-39.323l20.656-5.529
	C467.723,204.39,469.352,219.404,469.352,234.664z M459.125,169.193l-20.617,5.529c-8.195-24.976-21.5-48.088-39.412-68.068
	l15.127-15.108C434.781,114.232,449.969,140.649,459.125,169.193z M399.125,76.463l-15.117,15.108
	c-19.971-17.912-43.098-31.226-68.068-39.407l5.539-20.633C350.037,40.698,376.439,55.885,399.125,76.463z M300.881,26.046
	l-5.531,20.643c-9.41-1.946-18.969-3.196-28.676-3.721V32.002c0-5.892-4.77-10.667-10.662-10.667l0,0
	C271.262,21.335,286.281,22.938,300.881,26.046z M190.546,31.531l5.515,20.633c-24.966,8.182-48.093,21.495-68.059,39.407
	l-15.113-15.108C135.576,55.885,161.983,40.698,190.546,31.531z M52.875,300.135l20.642-5.529
	c8.171,24.98,21.485,48.098,39.407,68.059l-15.127,15.107C77.237,355.086,62.046,328.684,52.875,300.135z M112.889,392.871
	l15.113-15.129c19.966,17.922,43.093,31.256,68.059,39.412l-5.515,20.639C161.983,428.615,135.576,413.449,112.889,392.871z
	 M211.154,443.273l5.53-20.619c12.799,2.639,25.956,4,39.328,4c13.378,0,26.525-1.361,39.337-4l5.531,20.619
	c-14.6,3.117-29.619,4.725-44.869,4.725C240.748,447.998,225.733,446.391,211.154,443.273z M321.479,437.793l-5.539-20.639
	c24.971-8.156,48.098-21.49,68.068-39.412l15.117,15.129C376.439,413.449,350.037,428.615,321.479,437.793z"/>
</svg>
