<?xml version="1.0" encoding="utf-8"?>
<!-- Generator: Adobe Illustrator 16.0.0, SVG Export Plug-In . SVG Version: 6.00 Build 0)  -->
<!DOCTYPE svg PUBLIC "-//W3C//DTD SVG 1.1//EN" "http://www.w3.org/Graphics/SVG/1.1/DTD/svg11.dtd">
<svg version="1.1" id="Layer_1" xmlns="http://www.w3.org/2000/svg" xmlns:xlink="http://www.w3.org/1999/xlink" x="0px" y="0px"
	 width="512px" height="512px" viewBox="0 0 512 512" enable-background="new 0 0 512 512" xml:space="preserve">
<g id="xbox_one">
	<path fill="#080808" d="M509.514,88.928c0,0-0.02-0.015-0.02-0.024l-53.727-63.976c-2.02-2.417-5.02-3.804-8.156-3.804H63.737
		c-3.171,0-6.186,1.411-8.216,3.848L2.458,88.957c0,0,0,0,0,0.01c-1.529,1.844-2.451,4.211-2.451,6.795v127.961
		c0,5.882,4.78,10.661,10.652,10.661h490.677c5.883,0,10.658-4.779,10.658-10.661V95.762
		C511.994,93.158,511.062,90.776,509.514,88.928z M256.002,66.546L330.248,85.1h-74.246V66.546z M418.219,85.1L256.002,44.561
		v-2.108h31.589L458.248,85.1H418.219z M460.455,63.668l-84.912-21.216h67.078L460.455,63.668z M68.737,42.452h165.937V85.1H33.365
		L68.737,42.452z M490.67,213.056H21.335v-42.652h224.01c5.873,0,10.657-4.774,10.657-10.666c0-5.883-4.784-10.657-10.657-10.657
		H21.335v-42.652H490.67V213.056z"/>
	<path fill="#080808" d="M426.611,191.728c17.637,0,31.98-14.349,31.98-31.99c0-17.633-14.344-31.98-31.98-31.98
		c-17.646,0-31.99,14.348-31.99,31.98C394.621,177.379,408.965,191.728,426.611,191.728z M426.611,149.08
		c5.873,0,10.666,4.784,10.666,10.657c0,5.882-4.793,10.666-10.666,10.666c-5.883,0-10.656-4.784-10.656-10.666
		C415.955,153.864,420.729,149.08,426.611,149.08z"/>
	<path fill="#080808" d="M390.826,290.405l-1.215-3.188l-8.834-5.842v-13.354l-64.824-19.506l-20.391,13.652h-79.124l-20.388-13.652
		l-64.829,19.506v13.354l-8.829,5.842l-1.22,3.188c-1.559,4.068-37.951,99.607-39.809,142.283
		c-1.142,26.139,10.829,40.471,21.059,47.873c10.75,7.785,21.628,9.471,22.829,9.627l4.985,0.688l3.686-3.412
		c0.142-0.107,13.642-12.5,28.892-25.078c26.937-22.197,35.108-25.059,36.5-25.422h113.374c1.393,0.363,9.559,3.225,36.5,25.422
		c15.244,12.578,28.744,24.971,28.893,25.078l3.695,3.412l4.971-0.688c1.207-0.156,12.078-1.842,22.834-9.627
		c10.225-7.402,22.195-21.734,21.059-47.873C428.777,390.013,392.375,294.474,390.826,290.405z M397.66,462.856
		c-3.344,2.529-6.814,4.098-9.461,5.02c-5.539-4.971-15.766-14-26.922-23.158c-31.186-25.549-41.607-29.059-48.215-29.059h-25.08
		h-74.637h-14.406c-6.608,0-17.03,3.51-48.216,29.059c-11.172,9.158-21.378,18.188-26.922,23.158
		c-2.471-0.873-5.706-2.295-8.858-4.598c-8.735-6.314-12.863-16.275-12.285-29.658c1.549-35.166,30.907-115.461,37.235-132.412
		l12.638-8.393v-8.939l40.02-12.041l17.422,11.648h92.058l17.422-11.648l40.021,12.041v8.939l12.637,8.393
		c6.322,16.951,35.686,97.227,37.234,132.412C409.904,446.688,405.984,456.532,397.66,462.856z"/>
	<path fill="#080808" d="M181.36,287.688c-17.637,0-31.98,14.363-31.98,32c0,17.627,14.344,31.98,31.98,31.98
		c17.643,0,31.985-14.354,31.985-31.98C213.345,302.052,199.002,287.688,181.36,287.688z M181.36,330.347
		c-5.872,0-10.671-4.785-10.671-10.658s4.799-10.656,10.671-10.656c5.878,0,10.657,4.783,10.657,10.656
		S187.238,330.347,181.36,330.347z"/>
	<path fill="#080808" d="M319.982,383.659c0-17.627-14.352-31.99-32-31.99c-17.637,0-31.98,14.363-31.98,31.99
		c0,17.658,14.343,32,31.98,32C305.631,415.659,319.982,401.317,319.982,383.659z M287.982,394.327
		c-5.871,0-10.656-4.775-10.656-10.668c0-5.883,4.785-10.656,10.656-10.656c5.893,0,10.678,4.773,10.678,10.656
		C298.66,389.552,293.875,394.327,287.982,394.327z"/>
	<path fill="#080808" d="M323.092,333.474c-4.158,4.156-4.158,10.902,0,15.088c4.176,4.156,10.922,4.156,15.098,0
		c4.156-4.186,4.156-10.932,0-15.088C334.014,329.315,327.268,329.315,323.092,333.474z"/>
	<path fill="#080808" d="M344.424,312.159c-4.156,4.156-4.156,10.902,0,15.059c4.168,4.178,10.922,4.178,15.08,0
		c4.166-4.156,4.166-10.902,0-15.059C355.346,307.974,348.592,307.974,344.424,312.159z"/>
	<path fill="#080808" d="M338.189,305.905c4.156-4.168,4.156-10.922,0-15.09c-4.176-4.156-10.922-4.156-15.098,0
		c-4.158,4.168-4.158,10.922,0,15.09C327.268,310.062,334.014,310.062,338.189,305.905z"/>
	<path fill="#080808" d="M316.855,312.159c-4.166-4.186-10.922-4.186-15.068,0c-4.176,4.156-4.176,10.902,0,15.059
		c4.146,4.178,10.902,4.178,15.068,0C321.012,323.062,321.012,316.315,316.855,312.159z"/>
	<path fill="#080808" d="M224.017,405.003v-10.676h10.657c5.887,0,10.671-4.766,10.671-10.668c0-5.883-4.785-10.656-10.671-10.656
		h-10.657v-10.656c0-5.912-4.779-10.678-10.672-10.678c-5.892,0-10.656,4.766-10.656,10.678v10.656h-10.672
		c-5.887,0-10.657,4.773-10.657,10.656c0,5.902,4.77,10.668,10.657,10.668h10.672v10.676c0,5.873,4.765,10.656,10.656,10.656
		C219.238,415.659,224.017,410.876,224.017,405.003z"/>
</g>
</svg>
