<?xml version="1.0" encoding="UTF-8" standalone="no"?>
<!DOCTYPE svg PUBLIC "-//W3C//DTD SVG 1.1//EN" "http://www.w3.org/Graphics/SVG/1.1/DTD/svg11.dtd">
<svg width="100%" height="100%" viewBox="0 0 2550 3300" version="1.1" xmlns="http://www.w3.org/2000/svg" xmlns:xlink="http://www.w3.org/1999/xlink" xml:space="preserve" style="fill-rule:evenodd;clip-rule:evenodd;stroke-linejoin:round;stroke-miterlimit:1.41421;">
    <g transform="matrix(5.60151,0,0,5.60151,-428.498,-9508.91)">
        <path d="M418.825,1975.89C418.825,1981.08 418.773,1986.12 418.896,1991.14C418.91,1991.71 419.897,1992.71 420.452,1992.73C424.666,1992.86 428.886,1992.87 433.099,1992.73C433.677,1992.71 434.702,1991.7 434.717,1991.12C434.846,1986.09 434.791,1981.06 434.791,1975.89L418.825,1975.89ZM443.235,1995.1C440.516,1998.78 436.954,1999.61 432.894,1999.41C428.067,1999.18 423.225,1999.4 418.39,1999.35C413.081,1999.29 410.53,1996.36 410.527,1990.42C410.524,1985.93 410.51,1981.44 410.532,1976.95C410.554,1972.47 412.405,1969.75 416.276,1969.61C423.347,1969.36 430.431,1969.47 437.508,1969.6C440.124,1969.65 441.92,1971.53 443.235,1973.98L443.235,1995.1Z" style="fill:white;fill-rule:nonzero;"/>
    </g>
    <g transform="matrix(5.60151,0,0,5.60151,-428.498,-9508.91)">
        <path d="M260.717,1968.71C260.75,1976.51 260.83,1984.32 260.795,1992.12C260.779,1995.62 258.419,1998.32 254.601,1998.51C248.575,1998.81 242.517,1998.86 236.496,1998.5C232.027,1998.24 230.207,1995.48 230.191,1990.36C230.168,1983.14 230.146,1975.92 230.125,1968.71L233.754,1968.71C237.981,1969.97 238.859,1973.36 238.594,1977.81C238.358,1981.79 238.477,1985.8 238.606,1989.79C238.632,1990.6 239.378,1992.05 239.83,1992.07C244.008,1992.24 248.193,1992.17 252.578,1992.17C252.578,1987.72 252.531,1983.74 252.591,1979.75C252.647,1976.07 252.819,1972.39 252.939,1968.71L260.717,1968.71Z" style="fill:white;fill-rule:nonzero;"/>
    </g>
    <g transform="matrix(5.60151,0,0,5.60151,-428.498,-9508.91)">
        <path d="M290.791,1968.71C297.43,1971.8 296.519,1974.03 296.006,1981.55C295.894,1983.19 293.681,1985.73 292.189,1985.98C286.698,1986.9 281.104,1987.03 275.643,1987.45C274.923,1983.51 275.799,1981.47 278.511,1980.93C280.863,1980.46 283.309,1980.49 285.713,1980.49C287.438,1980.48 287.92,1979.66 287.91,1977.81C287.9,1976.01 287.293,1975.42 285.762,1975.45C281.292,1975.51 276.821,1975.47 272.004,1975.47C272.004,1980.61 272.013,1985.46 272.002,1990.31C271.986,1996.45 269.568,1998.95 263.828,1998.44L263.828,1968.71L290.791,1968.71Z" style="fill:white;fill-rule:nonzero;"/>
    </g>
    <g transform="matrix(5.60151,0,0,5.60151,-428.498,-9508.91)">
        <path d="M198.495,1968.71C197.274,1973.04 196.099,1977.38 194.82,1981.69C193.344,1986.66 191.694,1991.57 190.295,1996.56C189.842,1998.18 189.175,1998.68 187.752,1998.73C181.557,1998.94 181.541,1998.99 179.468,1992.43C177.243,1985.39 175.038,1978.35 172.869,1971.29C172.622,1970.49 172.662,1969.57 172.569,1968.71L177.754,1968.71C179.042,1970.41 180.765,1971.91 181.518,1973.88C182.695,1976.96 183.187,1980.37 184.025,1983.63C184.436,1985.22 184.971,1986.78 185.449,1988.35C185.655,1988.32 185.861,1988.29 186.067,1988.27C187.617,1981.75 189.167,1975.23 190.717,1968.71L198.495,1968.71Z" style="fill:white;fill-rule:nonzero;"/>
    </g>
    <g transform="matrix(5.60151,0,0,5.60151,-428.498,-9508.91)">
        <path d="M205.754,1968.71C210.083,1970.39 211.133,1974.03 210.764,1978.82C210.494,1982.31 210.806,1985.85 210.675,1989.36C210.595,1991.51 211.182,1992.31 213.154,1992.24C217.208,1992.1 221.269,1992.18 225.326,1992.23C225.966,1992.24 227.071,1992.45 227.143,1992.8C227.29,1993.5 227.029,1994.44 226.685,1995.12C225.337,1997.8 222.954,1998.49 220.525,1998.61C216.82,1998.79 213.096,1998.81 209.392,1998.61C204.402,1998.36 202.317,1995.71 202.313,1990.05C202.308,1984.09 202.294,1978.13 202.326,1972.17C202.333,1971.02 202.532,1969.86 202.643,1968.71L205.754,1968.71Z" style="fill:white;fill-rule:nonzero;"/>
    </g>
    <g transform="matrix(5.60151,0,0,5.60151,-428.498,-9508.91)">
        <path d="M149.236,1968.71C149.983,1969.16 150.725,1969.62 151.477,1970.05C153.401,1971.17 154.409,1972.84 154.376,1975.39C154.305,1980.84 154.354,1986.29 154.354,1992.11L170.7,1992.11C170.911,1992.38 171.121,1992.66 171.331,1992.93C170.556,1994.24 170.017,1995.95 168.946,1996.75C167.573,1997.77 165.795,1998.46 164.151,1998.57C160.46,1998.84 156.73,1998.88 153.041,1998.6C148.977,1998.29 145.744,1996.27 146.02,1990.35C146.355,1983.15 146.116,1975.92 146.125,1968.71L149.236,1968.71Z" style="fill:white;fill-rule:nonzero;"/>
    </g>
    <g transform="matrix(5.60151,0,0,5.60151,-428.498,-9508.91)">
        <path d="M316.826,1975.87C316.826,1981.13 316.774,1986.27 316.91,1991.4C316.923,1991.89 318.103,1992.73 318.756,1992.75C322.805,1992.87 326.86,1992.87 330.909,1992.74C331.532,1992.72 332.651,1991.85 332.664,1991.34C332.795,1986.22 332.744,1981.09 332.744,1975.87L316.826,1975.87ZM322.743,1969.43C326.451,1969.44 330.163,1969.31 333.867,1969.47C339.013,1969.68 341.067,1971.82 340.922,1977.39C340.801,1982.07 340.749,1986.76 340.932,1991.43C341.151,1997.06 337.746,1999.12 334.327,1999.23C326.313,1999.5 318.288,1999.32 310.268,1999.36C308.837,1999.36 308.285,1998.64 308.291,1997.04C308.32,1988.56 308.326,1980.07 308.287,1971.59C308.279,1969.9 308.932,1969.39 310.324,1969.41C314.463,1969.46 318.603,1969.43 322.743,1969.43" style="fill:white;fill-rule:nonzero;"/>
    </g>
    <g transform="matrix(5.60151,0,0,5.60151,-428.498,-9508.91)">
        <path d="M351.925,1975.89C351.925,1981.09 351.863,1985.97 351.997,1990.84C352.016,1991.51 352.991,1992.69 353.551,1992.72C357.771,1992.87 362,1992.87 366.221,1992.73C366.807,1992.71 367.85,1991.72 367.864,1991.15C367.994,1986.12 367.94,1981.07 367.94,1975.89L351.925,1975.89ZM360.041,1999.35C357.11,1999.35 354.178,1999.4 351.248,1999.34C346.255,1999.24 343.65,1996.27 343.645,1990.75C343.641,1986.07 343.626,1981.38 343.651,1976.7C343.673,1972.47 345.549,1969.76 349.324,1969.62C356.383,1969.35 363.462,1969.35 370.521,1969.63C374.105,1969.77 376.531,1972.46 376.31,1976.91C376.075,1981.68 376.259,1986.47 376.257,1991.25C376.254,1996.22 374.027,1998.92 369.61,1999.31C369.439,1999.33 369.266,1999.34 369.093,1999.34C366.076,1999.34 363.059,1999.34 360.041,1999.34L360.041,1999.35Z" style="fill:white;fill-rule:nonzero;"/>
    </g>
    <g transform="matrix(5.60151,0,0,5.60151,-428.498,-9508.91)">
        <path d="M387.089,1984.5C387.089,1986.47 387.155,1988.3 387.07,1990.13C386.986,1991.94 387.506,1992.88 389.244,1992.84C392.094,1992.76 394.946,1992.78 397.796,1992.82C399.252,1992.85 399.716,1992.13 399.696,1990.51C399.636,1985.63 399.611,1980.74 399.737,1975.86C399.862,1971.04 401.814,1969.05 405.958,1969.52C406.639,1969.6 407.755,1970.78 407.767,1971.46C407.891,1978.59 407.928,1985.73 407.778,1992.86C407.704,1996.36 405.096,1999.06 401.493,1999.22C396.147,1999.46 390.78,1999.47 385.433,1999.24C381.493,1999.07 378.802,1995.96 378.745,1991.51C378.63,1982.62 377.606,1984.48 384.733,1984.27C385.403,1984.25 386.076,1984.39 387.089,1984.5" style="fill:white;fill-rule:nonzero;"/>
    </g>
</svg>
