<?xml version="1.0" standalone="no"?>
<!DOCTYPE svg PUBLIC "-//W3C//DTD SVG 20010904//EN"
 "http://www.w3.org/TR/2001/REC-SVG-20010904/DTD/svg10.dtd">
<svg version="1.0" xmlns="http://www.w3.org/2000/svg"
 width="1024.000000pt" height="1024.000000pt" viewBox="0 0 1024.000000 1024.000000"
 preserveAspectRatio="xMidYMid meet">
<metadata>
Created by potrace 1.11, written by Peter Selinger 2001-2013
</metadata>
<g transform="translate(0.000000,1024.000000) scale(0.100000,-0.100000)"
fill="#000000" stroke="none">
<path d="M4790 9524 c-173 -97 -344 -192 -380 -212 -36 -19 -265 -146 -510
-282 -245 -136 -470 -260 -500 -277 -30 -16 -118 -65 -195 -108 -77 -42 -162
-90 -190 -105 -27 -15 -88 -49 -135 -75 -119 -67 -157 -87 -225 -125 -33 -18
-136 -75 -228 -127 -93 -51 -171 -93 -174 -93 -2 0 -17 -8 -31 -19 -25 -17
-88 -52 -222 -123 -30 -16 -59 -33 -65 -37 -5 -4 -46 -27 -90 -51 -44 -23
-164 -89 -267 -146 -103 -57 -191 -104 -197 -104 -5 0 -11 -4 -13 -8 -3 -7
-102 -63 -288 -165 -30 -16 -176 -97 -325 -180 -148 -82 -299 -166 -335 -185
-36 -19 -69 -38 -75 -42 -10 -7 -32 -19 -213 -117 -46 -25 -82 -47 -80 -48 2
-2 30 -17 63 -35 33 -18 114 -62 180 -98 66 -35 149 -81 185 -100 36 -19 88
-47 115 -62 28 -15 79 -43 115 -62 97 -52 225 -121 310 -168 41 -22 102 -55
136 -72 l61 -31 130 72 c71 39 134 71 139 71 8 0 89 -133 161 -263 12 -22 27
-45 33 -51 5 -5 10 -13 10 -17 0 -4 -70 -46 -156 -94 -86 -47 -170 -94 -187
-104 -18 -10 -104 -57 -192 -106 -88 -48 -165 -92 -172 -97 -8 -6 15 -23 75
-55 48 -25 110 -58 137 -73 28 -15 80 -44 118 -64 37 -20 97 -52 135 -72 37
-20 92 -50 122 -67 97 -53 153 -83 252 -136 109 -58 98 -59 195 9 l56 40 77
-128 c42 -70 141 -233 220 -362 78 -129 148 -244 154 -255 6 -11 38 -64 71
-118 33 -54 68 -113 79 -130 10 -18 55 -93 101 -167 45 -74 179 -295 297 -490
416 -688 653 -1079 881 -1455 127 -209 307 -506 400 -660 93 -154 231 -381
306 -505 75 -124 166 -273 201 -332 35 -59 66 -106 67 -104 2 2 -10 36 -26 77
-16 41 -89 238 -161 439 -72 201 -135 374 -141 385 -5 11 -26 70 -48 130 -40
114 -137 381 -198 545 -19 52 -55 151 -79 220 -25 69 -49 134 -54 145 -8 18
-77 208 -102 280 -5 17 -14 39 -18 50 -5 11 -20 52 -33 90 -39 108 -134 368
-177 485 -21 58 -57 157 -80 220 -23 63 -58 158 -77 210 -19 52 -59 160 -88
240 -124 343 -232 639 -302 830 -41 113 -92 252 -113 310 -83 226 -123 335
-126 339 -3 3 -40 -2 -194 -24 -58 -8 -136 -19 -155 -21 -11 -1 -40 -5 -65 -8
-25 -4 -58 -8 -75 -10 -16 -2 -48 -7 -69 -11 -28 -6 -37 -5 -32 4 4 6 11 11
16 11 5 0 35 15 67 34 32 18 87 49 123 68 36 19 125 68 198 109 72 41 144 81
160 89 72 40 239 132 252 140 15 9 114 63 245 135 249 136 542 297 555 305 15
10 117 65 225 122 33 18 62 35 65 38 3 3 34 21 70 40 36 18 190 103 343 187
l278 153 107 -59 c59 -32 128 -70 155 -85 26 -14 66 -37 90 -49 23 -13 68 -38
100 -55 195 -108 440 -242 522 -287 39 -21 104 -57 145 -80 41 -24 102 -57
135 -75 125 -68 192 -104 265 -145 41 -23 116 -64 165 -90 50 -27 106 -58 125
-69 19 -12 49 -28 65 -36 17 -8 32 -17 35 -20 3 -3 30 -18 60 -34 30 -16 97
-53 148 -83 51 -29 97 -53 102 -53 4 0 10 -3 12 -7 2 -5 19 -16 38 -25 40 -20
145 -77 210 -116 25 -15 63 -35 84 -45 52 -23 41 -30 -30 -18 -33 6 -79 13
-104 16 -25 3 -97 12 -160 21 -129 18 -133 19 -210 28 l-55 7 -83 -233 c-46
-128 -97 -267 -112 -308 -16 -41 -52 -140 -81 -220 -28 -80 -56 -156 -62 -170
-6 -14 -11 -29 -13 -35 -1 -5 -53 -147 -114 -315 -164 -445 -179 -486 -212
-580 -16 -47 -59 -164 -94 -260 -36 -96 -77 -206 -91 -245 -35 -98 -56 -156
-96 -265 -20 -52 -61 -165 -92 -250 -104 -287 -266 -734 -316 -870 -28 -74
-63 -171 -79 -215 -16 -44 -52 -143 -81 -220 -28 -77 -71 -194 -94 -260 -42
-116 -171 -469 -195 -530 -19 -50 1 -19 152 230 80 132 229 380 333 550 103
171 196 324 206 342 10 18 29 49 43 70 13 21 76 125 140 231 172 286 338 560
431 712 45 74 225 371 400 660 494 816 538 888 603 995 34 55 73 120 88 145
123 204 357 591 401 662 l53 86 74 -50 74 -51 109 58 c59 32 140 75 178 96 39
20 140 75 225 121 202 110 315 171 384 207 41 21 53 31 43 39 -11 9 -620 349
-680 380 -26 13 -27 16 -14 35 7 12 53 90 102 174 57 98 92 149 99 144 6 -4
52 -30 101 -56 50 -27 104 -57 120 -67 17 -10 35 -18 40 -18 6 0 80 38 165 83
424 229 559 302 600 325 25 13 125 67 223 120 156 83 175 96 160 107 -21 15
-260 148 -448 250 -38 20 -74 41 -80 45 -5 4 -59 34 -120 67 -60 33 -126 69
-145 80 -55 31 -888 492 -960 531 -36 19 -72 41 -80 48 -8 7 -19 13 -25 14 -5
1 -48 23 -95 49 -47 27 -110 62 -140 78 -30 17 -217 121 -415 230 -198 110
-389 216 -425 236 -36 19 -139 77 -230 127 -91 51 -194 108 -230 128 -36 19
-308 170 -605 335 -297 165 -560 310 -585 324 -25 13 -63 35 -85 47 -22 12
-78 43 -125 68 -47 26 -121 67 -165 92 -44 25 -82 46 -85 45 -3 0 -147 -79
-320 -175z m355 -1132 c17 -10 60 -35 98 -55 37 -20 97 -54 135 -74 37 -20 88
-49 115 -65 26 -15 47 -25 47 -21 0 3 8 -1 18 -9 9 -8 37 -26 62 -39 25 -13
70 -37 100 -55 30 -17 84 -47 120 -66 66 -36 545 -298 635 -349 28 -15 73 -40
100 -55 49 -26 185 -101 275 -152 25 -13 74 -41 110 -60 36 -19 103 -56 150
-82 47 -26 117 -64 155 -85 102 -54 195 -106 195 -109 0 -1 -9 -44 -21 -96
-11 -52 -22 -102 -24 -110 -2 -8 -6 -26 -9 -40 -3 -14 -8 -37 -11 -52 -19
-103 -21 -106 -69 -79 -20 12 -52 30 -71 41 -19 10 -65 36 -102 56 -37 21
-122 67 -188 104 -66 37 -149 83 -185 102 -134 74 -396 219 -410 228 -8 5 -37
21 -65 36 -27 15 -104 57 -170 94 -66 37 -145 81 -175 97 -30 17 -179 99 -330
183 -151 84 -300 166 -330 182 -30 17 -84 47 -121 68 l-67 38 -468 -260 c-258
-142 -496 -274 -529 -292 -33 -19 -82 -46 -110 -61 -27 -16 -102 -57 -165 -92
-63 -34 -122 -67 -130 -72 -8 -6 -42 -24 -75 -42 -33 -17 -94 -51 -135 -74
-139 -78 -175 -98 -225 -125 -27 -15 -133 -73 -234 -129 -101 -56 -186 -100
-189 -96 -3 3 -7 11 -8 18 -1 7 -9 42 -18 80 -9 37 -18 79 -21 95 -6 36 -11
55 -29 132 -8 35 -14 65 -13 66 5 5 343 192 522 289 33 18 76 41 95 52 19 11
87 48 150 83 63 34 135 74 160 88 103 57 331 182 405 222 44 23 85 46 90 50 6
4 42 24 80 44 39 20 77 41 85 47 8 5 71 40 140 77 69 38 152 83 185 102 33 18
85 46 115 63 30 16 69 37 85 47 17 10 66 37 110 60 44 24 89 49 100 57 25 16
24 17 60 -5z"/>
</g>
</svg>
